M48
INCH,TZ
T1C0.0157
T2C0.0295
T3C0.0315
T4C0.0354
T5C0.0394
T6C0.0400
T7C0.0512
T8C0.0547
%
G90
G05
T1
X70300Y-34350
X70450Y-29650
T2
X64492Y-29640
X64492Y-30140
X64492Y-30640
X64492Y-34720
X64492Y-35220
X64492Y-35720
X64492Y-39800
X64492Y-40300
X64492Y-40800
T3
X51796Y-32598
X51796Y-35598
X51796Y-36598
X51796Y-39598
X53600Y-30600
X53600Y-31600
X53600Y-32600
X53600Y-33600
X53600Y-34600
X53600Y-35600
X53600Y-36600
X53600Y-37600
X53600Y-38600
X53600Y-39600
X53646Y-28318
X56600Y-30600
X56600Y-31600
X56600Y-32600
X56600Y-33600
X56600Y-34600
X56600Y-35600
X56600Y-36600
X56600Y-37600
X56600Y-38600
X56600Y-39600
X56646Y-28318
X59423Y-35600
X59600Y-31150
X59600Y-34150
X59600Y-37050
X59600Y-40050
X62423Y-35600
X62850Y-27600
X62850Y-32680
X62850Y-37760
X65850Y-27600
X65850Y-32680
X65850Y-37760
X72250Y-26700
X72250Y-33850
X72250Y-41350
X75250Y-26700
X75250Y-33850
X75250Y-41350
T4
X46800Y-36850
X47800Y-36850
T5
X46741Y-28650
X46741Y-29650
X46741Y-30650
X46741Y-31650
X46741Y-32650
X46741Y-33650
T6
X50266Y-28320
X50266Y-30880
X52046Y-28320
X52046Y-30880
T7
X77550Y-28681
X77550Y-30650
X77550Y-33031
X77550Y-35000
X77550Y-37381
X77550Y-39350
T8
X69650Y-28200
X69650Y-29200
X69650Y-30200
X69650Y-33000
X69650Y-34000
X69650Y-35000
X69650Y-37800
X69650Y-38800
X69650Y-39800
T0
M30
