%TF.GenerationSoftware,KiCad,Pcbnew,(6.0.1)*%
%TF.CreationDate,2022-05-05T12:39:53-05:00*%
%TF.ProjectId,RGB_LightsBluetooth,5247425f-4c69-4676-9874-73426c756574,1*%
%TF.SameCoordinates,Original*%
%TF.FileFunction,Soldermask,Top*%
%TF.FilePolarity,Negative*%
%FSLAX46Y46*%
G04 Gerber Fmt 4.6, Leading zero omitted, Abs format (unit mm)*
G04 Created by KiCad (PCBNEW (6.0.1)) date 2022-05-05 12:39:53*
%MOMM*%
%LPD*%
G01*
G04 APERTURE LIST*
%ADD10C,1.600000*%
%ADD11O,1.600000X1.600000*%
%ADD12R,1.500000X1.050000*%
%ADD13O,1.500000X1.050000*%
%ADD14O,1.524000X1.524000*%
%ADD15R,1.800000X1.800000*%
%ADD16C,1.800000*%
%ADD17R,2.085000X2.085000*%
%ADD18C,2.085000*%
%ADD19R,1.950000X1.950000*%
%ADD20C,1.950000*%
%ADD21R,1.700000X1.700000*%
%ADD22O,1.700000X1.700000*%
%ADD23R,1.600000X1.600000*%
G04 APERTURE END LIST*
D10*
%TO.C,R7*%
X151384000Y-94107000D03*
D11*
X151384000Y-101727000D03*
%TD*%
D10*
%TO.C,R8*%
X151384000Y-86741000D03*
D11*
X151384000Y-79121000D03*
%TD*%
D10*
%TO.C,R12*%
X159639000Y-83007200D03*
D11*
X167259000Y-83007200D03*
%TD*%
D12*
%TO.C,Q3*%
X163809000Y-90728800D03*
D13*
X163809000Y-89458800D03*
X163809000Y-88188800D03*
%TD*%
D10*
%TO.C,R10*%
X159639000Y-95910400D03*
D11*
X167259000Y-95910400D03*
%TD*%
D10*
%TO.C,R4*%
X191135000Y-105029000D03*
D11*
X183515000Y-105029000D03*
%TD*%
D14*
%TO.C,SW1*%
X127676800Y-78435200D03*
X127676800Y-71932800D03*
X132198000Y-71932800D03*
X132198000Y-78435200D03*
%TD*%
D10*
%TO.C,R5*%
X191135000Y-67818000D03*
D11*
X183515000Y-67818000D03*
%TD*%
D10*
%TO.C,R6*%
X191135000Y-85979000D03*
D11*
X183515000Y-85979000D03*
%TD*%
D10*
%TO.C,R11*%
X159639000Y-70104000D03*
D11*
X167259000Y-70104000D03*
%TD*%
D15*
%TO.C,D1*%
X118872000Y-93599000D03*
D16*
X121412000Y-93599000D03*
%TD*%
D10*
%TO.C,R1*%
X131562000Y-92959000D03*
D11*
X131562000Y-100579000D03*
%TD*%
D17*
%TO.C,Q4*%
X176911000Y-101092000D03*
D18*
X176911000Y-98552000D03*
X176911000Y-96012000D03*
%TD*%
D19*
%TO.C,J1*%
X196977000Y-99949000D03*
D20*
X196977000Y-94949000D03*
%TD*%
D21*
%TO.C,J4*%
X118722000Y-85471000D03*
D22*
X118722000Y-82931000D03*
X118722000Y-80391000D03*
X118722000Y-77851000D03*
X118722000Y-75311000D03*
X118722000Y-72771000D03*
%TD*%
D17*
%TO.C,Q5*%
X176911000Y-76708000D03*
D18*
X176911000Y-74168000D03*
X176911000Y-71628000D03*
%TD*%
D10*
%TO.C,R2*%
X131562000Y-82799000D03*
D11*
X131562000Y-90419000D03*
%TD*%
D19*
%TO.C,J3*%
X196977000Y-88900000D03*
D20*
X196977000Y-83900000D03*
%TD*%
D12*
%TO.C,Q2*%
X163809000Y-103632000D03*
D13*
X163809000Y-102362000D03*
X163809000Y-101092000D03*
%TD*%
D12*
%TO.C,Q1*%
X163809000Y-77825600D03*
D13*
X163809000Y-76555600D03*
X163809000Y-75285600D03*
%TD*%
D19*
%TO.C,J2*%
X196977000Y-77851000D03*
D20*
X196977000Y-72851000D03*
%TD*%
D10*
%TO.C,R9*%
X150934000Y-90424000D03*
D11*
X158554000Y-90424000D03*
%TD*%
D17*
%TO.C,Q6*%
X176911000Y-88900000D03*
D18*
X176911000Y-86360000D03*
X176911000Y-83820000D03*
%TD*%
D10*
%TO.C,R3*%
X143881000Y-71928800D03*
D11*
X136261000Y-71928800D03*
%TD*%
D23*
%TO.C,U2*%
X136144000Y-77724000D03*
D11*
X136144000Y-80264000D03*
X136144000Y-82804000D03*
X136144000Y-85344000D03*
X136144000Y-87884000D03*
X136144000Y-90424000D03*
X136144000Y-92964000D03*
X136144000Y-95504000D03*
X136144000Y-98044000D03*
X136144000Y-100584000D03*
X143764000Y-100584000D03*
X143764000Y-98044000D03*
X143764000Y-95504000D03*
X143764000Y-92964000D03*
X143764000Y-90424000D03*
X143764000Y-87884000D03*
X143764000Y-85344000D03*
X143764000Y-82804000D03*
X143764000Y-80264000D03*
X143764000Y-77724000D03*
%TD*%
M02*
