%TF.GenerationSoftware,KiCad,Pcbnew,(6.0.1)*%
%TF.CreationDate,2022-05-05T18:55:06-05:00*%
%TF.ProjectId,RGB_LightsBluetooth,5247425f-4c69-4676-9874-73426c756574,1*%
%TF.SameCoordinates,Original*%
%TF.FileFunction,Copper,L2,Bot*%
%TF.FilePolarity,Positive*%
%FSLAX46Y46*%
G04 Gerber Fmt 4.6, Leading zero omitted, Abs format (unit mm)*
G04 Created by KiCad (PCBNEW (6.0.1)) date 2022-05-05 18:55:06*
%MOMM*%
%LPD*%
G01*
G04 APERTURE LIST*
%TA.AperFunction,ComponentPad*%
%ADD10C,1.600000*%
%TD*%
%TA.AperFunction,ComponentPad*%
%ADD11O,1.600000X1.600000*%
%TD*%
%TA.AperFunction,ComponentPad*%
%ADD12R,1.500000X1.050000*%
%TD*%
%TA.AperFunction,ComponentPad*%
%ADD13O,1.500000X1.050000*%
%TD*%
%TA.AperFunction,ComponentPad*%
%ADD14O,1.524000X1.524000*%
%TD*%
%TA.AperFunction,ComponentPad*%
%ADD15R,1.800000X1.800000*%
%TD*%
%TA.AperFunction,ComponentPad*%
%ADD16C,1.800000*%
%TD*%
%TA.AperFunction,ComponentPad*%
%ADD17R,2.085000X2.085000*%
%TD*%
%TA.AperFunction,ComponentPad*%
%ADD18C,2.085000*%
%TD*%
%TA.AperFunction,ComponentPad*%
%ADD19R,1.950000X1.950000*%
%TD*%
%TA.AperFunction,ComponentPad*%
%ADD20C,1.950000*%
%TD*%
%TA.AperFunction,ComponentPad*%
%ADD21R,1.700000X1.700000*%
%TD*%
%TA.AperFunction,ComponentPad*%
%ADD22O,1.700000X1.700000*%
%TD*%
%TA.AperFunction,ComponentPad*%
%ADD23R,1.600000X1.600000*%
%TD*%
%TA.AperFunction,Conductor*%
%ADD24C,0.250000*%
%TD*%
%TA.AperFunction,Conductor*%
%ADD25C,0.300000*%
%TD*%
G04 APERTURE END LIST*
D10*
%TO.P,R7,1*%
%TO.N,/R*%
X151384000Y-94107000D03*
D11*
%TO.P,R7,2*%
%TO.N,Net-(Q2-Pad2)*%
X151384000Y-101727000D03*
%TD*%
D10*
%TO.P,R8,1*%
%TO.N,/B*%
X151384000Y-86741000D03*
D11*
%TO.P,R8,2*%
%TO.N,Net-(Q1-Pad2)*%
X151384000Y-79121000D03*
%TD*%
D10*
%TO.P,R12,1*%
%TO.N,Net-(Q3-Pad1)*%
X159639000Y-83007200D03*
D11*
%TO.P,R12,2*%
%TO.N,/12V*%
X167259000Y-83007200D03*
%TD*%
D12*
%TO.P,Q3,1,C*%
%TO.N,Net-(Q3-Pad1)*%
X163809000Y-90728800D03*
D13*
%TO.P,Q3,2,B*%
%TO.N,Net-(Q3-Pad2)*%
X163809000Y-89458800D03*
%TO.P,Q3,3,E*%
%TO.N,GND*%
X163809000Y-88188800D03*
%TD*%
D10*
%TO.P,R10,1*%
%TO.N,Net-(Q2-Pad1)*%
X159639000Y-95910400D03*
D11*
%TO.P,R10,2*%
%TO.N,/12V*%
X167259000Y-95910400D03*
%TD*%
D10*
%TO.P,R4,1*%
%TO.N,Net-(J1-Pad2)*%
X191135000Y-105029000D03*
D11*
%TO.P,R4,2*%
%TO.N,GND*%
X183515000Y-105029000D03*
%TD*%
D14*
%TO.P,SW1,1,1*%
%TO.N,GND*%
X127676800Y-78435200D03*
X127676800Y-71932800D03*
%TO.P,SW1,2,2*%
%TO.N,Net-(R3-Pad2)*%
X132198000Y-71932800D03*
X132198000Y-78435200D03*
%TD*%
D10*
%TO.P,R5,1*%
%TO.N,Net-(J2-Pad2)*%
X191135000Y-67818000D03*
D11*
%TO.P,R5,2*%
%TO.N,GND*%
X183515000Y-67818000D03*
%TD*%
D10*
%TO.P,R6,1*%
%TO.N,Net-(J3-Pad2)*%
X191135000Y-85979000D03*
D11*
%TO.P,R6,2*%
%TO.N,GND*%
X183515000Y-85979000D03*
%TD*%
D10*
%TO.P,R11,1*%
%TO.N,Net-(Q1-Pad1)*%
X159639000Y-70104000D03*
D11*
%TO.P,R11,2*%
%TO.N,/12V*%
X167259000Y-70104000D03*
%TD*%
D15*
%TO.P,D1,1,K*%
%TO.N,GND*%
X118872000Y-93599000D03*
D16*
%TO.P,D1,2,A*%
%TO.N,Net-(D1-Pad2)*%
X121412000Y-93599000D03*
%TD*%
D10*
%TO.P,R1,1*%
%TO.N,/TX*%
X131562000Y-92959000D03*
D11*
%TO.P,R1,2*%
%TO.N,GND*%
X131562000Y-100579000D03*
%TD*%
D17*
%TO.P,Q4,1*%
%TO.N,Net-(Q2-Pad1)*%
X176911000Y-101092000D03*
D18*
%TO.P,Q4,2*%
%TO.N,Net-(J1-Pad1)*%
X176911000Y-98552000D03*
%TO.P,Q4,3*%
%TO.N,/12V*%
X176911000Y-96012000D03*
%TD*%
D19*
%TO.P,J1,1,1*%
%TO.N,Net-(J1-Pad1)*%
X196977000Y-99949000D03*
D20*
%TO.P,J1,2,2*%
%TO.N,Net-(J1-Pad2)*%
X196977000Y-94949000D03*
%TD*%
D21*
%TO.P,J4,1,Pin_1*%
%TO.N,Net-(D1-Pad2)*%
X118722000Y-85471000D03*
D22*
%TO.P,J4,2,Pin_2*%
%TO.N,/TX*%
X118722000Y-82931000D03*
%TO.P,J4,3,Pin_3*%
%TO.N,/RX*%
X118722000Y-80391000D03*
%TO.P,J4,4,Pin_4*%
%TO.N,GND*%
X118722000Y-77851000D03*
%TO.P,J4,5,Pin_5*%
%TO.N,/5V*%
X118722000Y-75311000D03*
%TO.P,J4,6,Pin_6*%
%TO.N,unconnected-(J4-Pad6)*%
X118722000Y-72771000D03*
%TD*%
D17*
%TO.P,Q5,1*%
%TO.N,Net-(Q1-Pad1)*%
X176911000Y-76708000D03*
D18*
%TO.P,Q5,2*%
%TO.N,Net-(J2-Pad1)*%
X176911000Y-74168000D03*
%TO.P,Q5,3*%
%TO.N,/12V*%
X176911000Y-71628000D03*
%TD*%
D10*
%TO.P,R2,1*%
%TO.N,Net-(R2-Pad1)*%
X131562000Y-82799000D03*
D11*
%TO.P,R2,2*%
%TO.N,/TX*%
X131562000Y-90419000D03*
%TD*%
D19*
%TO.P,J3,1,1*%
%TO.N,Net-(J3-Pad1)*%
X196977000Y-88900000D03*
D20*
%TO.P,J3,2,2*%
%TO.N,Net-(J3-Pad2)*%
X196977000Y-83900000D03*
%TD*%
D12*
%TO.P,Q2,1,C*%
%TO.N,Net-(Q2-Pad1)*%
X163809000Y-103632000D03*
D13*
%TO.P,Q2,2,B*%
%TO.N,Net-(Q2-Pad2)*%
X163809000Y-102362000D03*
%TO.P,Q2,3,E*%
%TO.N,GND*%
X163809000Y-101092000D03*
%TD*%
D12*
%TO.P,Q1,1,C*%
%TO.N,Net-(Q1-Pad1)*%
X163809000Y-77825600D03*
D13*
%TO.P,Q1,2,B*%
%TO.N,Net-(Q1-Pad2)*%
X163809000Y-76555600D03*
%TO.P,Q1,3,E*%
%TO.N,GND*%
X163809000Y-75285600D03*
%TD*%
D19*
%TO.P,J2,1,1*%
%TO.N,Net-(J2-Pad1)*%
X196977000Y-77851000D03*
D20*
%TO.P,J2,2,2*%
%TO.N,Net-(J2-Pad2)*%
X196977000Y-72851000D03*
%TD*%
D10*
%TO.P,R9,1*%
%TO.N,/G*%
X150934000Y-90424000D03*
D11*
%TO.P,R9,2*%
%TO.N,Net-(Q3-Pad2)*%
X158554000Y-90424000D03*
%TD*%
D17*
%TO.P,Q6,1*%
%TO.N,Net-(Q3-Pad1)*%
X176911000Y-88900000D03*
D18*
%TO.P,Q6,2*%
%TO.N,Net-(J3-Pad1)*%
X176911000Y-86360000D03*
%TO.P,Q6,3*%
%TO.N,/12V*%
X176911000Y-83820000D03*
%TD*%
D10*
%TO.P,R3,1*%
%TO.N,/5V*%
X143881000Y-71928800D03*
D11*
%TO.P,R3,2*%
%TO.N,Net-(R3-Pad2)*%
X136261000Y-71928800D03*
%TD*%
D23*
%TO.P,U2,1,PA2/~{RESET}*%
%TO.N,Net-(R3-Pad2)*%
X136144000Y-77724000D03*
D11*
%TO.P,U2,2,PD0*%
%TO.N,/RX*%
X136144000Y-80264000D03*
%TO.P,U2,3,PD1*%
%TO.N,Net-(R2-Pad1)*%
X136144000Y-82804000D03*
%TO.P,U2,4,PA1/XTAL2*%
%TO.N,unconnected-(U2-Pad4)*%
X136144000Y-85344000D03*
%TO.P,U2,5,PA0/XTAL1*%
%TO.N,unconnected-(U2-Pad5)*%
X136144000Y-87884000D03*
%TO.P,U2,6,PD2*%
%TO.N,unconnected-(U2-Pad6)*%
X136144000Y-90424000D03*
%TO.P,U2,7,PD3*%
%TO.N,unconnected-(U2-Pad7)*%
X136144000Y-92964000D03*
%TO.P,U2,8,PD4*%
%TO.N,unconnected-(U2-Pad8)*%
X136144000Y-95504000D03*
%TO.P,U2,9,PD5*%
%TO.N,unconnected-(U2-Pad9)*%
X136144000Y-98044000D03*
%TO.P,U2,10,GND*%
%TO.N,GND*%
X136144000Y-100584000D03*
%TO.P,U2,11,PD6*%
%TO.N,unconnected-(U2-Pad11)*%
X143764000Y-100584000D03*
%TO.P,U2,12,PB0*%
%TO.N,unconnected-(U2-Pad12)*%
X143764000Y-98044000D03*
%TO.P,U2,13,PB1*%
%TO.N,unconnected-(U2-Pad13)*%
X143764000Y-95504000D03*
%TO.P,U2,14,PB2*%
%TO.N,/R*%
X143764000Y-92964000D03*
%TO.P,U2,15,PB3*%
%TO.N,/G*%
X143764000Y-90424000D03*
%TO.P,U2,16,PB4*%
%TO.N,/B*%
X143764000Y-87884000D03*
%TO.P,U2,17,PB5*%
%TO.N,unconnected-(U2-Pad17)*%
X143764000Y-85344000D03*
%TO.P,U2,18,PB6*%
%TO.N,unconnected-(U2-Pad18)*%
X143764000Y-82804000D03*
%TO.P,U2,19,PB7*%
%TO.N,unconnected-(U2-Pad19)*%
X143764000Y-80264000D03*
%TO.P,U2,20,VCC*%
%TO.N,/5V*%
X143764000Y-77724000D03*
%TD*%
D24*
%TO.N,Net-(R3-Pad2)*%
X136144000Y-76598700D02*
X136261000Y-76481700D01*
X136261000Y-76481700D02*
X136261000Y-71928800D01*
X136144000Y-77724000D02*
X136144000Y-76598700D01*
%TO.N,/TX*%
X118722000Y-82931000D02*
X119897300Y-82931000D01*
X131562000Y-90419000D02*
X127385300Y-90419000D01*
X131562000Y-90419000D02*
X131562000Y-92959000D01*
X127385300Y-90419000D02*
X119897300Y-82931000D01*
%TO.N,Net-(R2-Pad1)*%
X131567000Y-82804000D02*
X131562000Y-82799000D01*
X136144000Y-82804000D02*
X131567000Y-82804000D01*
%TO.N,Net-(J1-Pad2)*%
X196977000Y-94949000D02*
X191135000Y-100791000D01*
X191135000Y-100791000D02*
X191135000Y-105029000D01*
%TO.N,Net-(J2-Pad2)*%
X196168000Y-72851000D02*
X191135000Y-67818000D01*
X196977000Y-72851000D02*
X196168000Y-72851000D01*
%TO.N,Net-(Q2-Pad1)*%
X162733700Y-103632000D02*
X159639000Y-100537300D01*
X163809000Y-103632000D02*
X162733700Y-103632000D01*
X159639000Y-100537300D02*
X159639000Y-95910400D01*
D25*
%TO.N,/12V*%
X167259000Y-71628000D02*
X167259000Y-71354300D01*
X167259000Y-70104000D02*
X167259000Y-71354300D01*
X167259000Y-83007200D02*
X167259000Y-71628000D01*
X167259000Y-95910400D02*
X167259000Y-83007200D01*
X167259000Y-71628000D02*
X176911000Y-71628000D01*
D24*
%TO.N,Net-(Q1-Pad1)*%
X162733700Y-77825600D02*
X159639000Y-74730900D01*
X163809000Y-77825600D02*
X162733700Y-77825600D01*
X159639000Y-74730900D02*
X159639000Y-70104000D01*
%TO.N,Net-(Q3-Pad1)*%
X159639000Y-87634100D02*
X159639000Y-83007200D01*
X162733700Y-90728800D02*
X159639000Y-87634100D01*
X163809000Y-90728800D02*
X162733700Y-90728800D01*
%TO.N,Net-(D1-Pad2)*%
X118722000Y-90909000D02*
X121412000Y-93599000D01*
X118722000Y-85471000D02*
X118722000Y-90909000D01*
%TD*%
%TA.AperFunction,Conductor*%
%TO.N,GND*%
G36*
X199583560Y-65552002D02*
G01*
X199630053Y-65605658D01*
X199640157Y-65675932D01*
X199610663Y-65740512D01*
X199580145Y-65766116D01*
X199374282Y-65889322D01*
X199374278Y-65889325D01*
X199370600Y-65891526D01*
X199367257Y-65894204D01*
X199367253Y-65894207D01*
X199261820Y-65978675D01*
X199154374Y-66064756D01*
X198963659Y-66265728D01*
X198801983Y-66490724D01*
X198672338Y-66735580D01*
X198577124Y-66995765D01*
X198518102Y-67266466D01*
X198496364Y-67542672D01*
X198496776Y-67549814D01*
X198512312Y-67819272D01*
X198565653Y-68091149D01*
X198567040Y-68095200D01*
X198637076Y-68299759D01*
X198655397Y-68353272D01*
X198779885Y-68600789D01*
X198782311Y-68604318D01*
X198782314Y-68604324D01*
X198930752Y-68820301D01*
X198936814Y-68829121D01*
X199123279Y-69034044D01*
X199195633Y-69094541D01*
X199332538Y-69209012D01*
X199332543Y-69209016D01*
X199335830Y-69211764D01*
X199419438Y-69264211D01*
X199566893Y-69356710D01*
X199566897Y-69356712D01*
X199570533Y-69358993D01*
X199823047Y-69473007D01*
X200088697Y-69551697D01*
X200092931Y-69552345D01*
X200092936Y-69552346D01*
X200358327Y-69592956D01*
X200358329Y-69592956D01*
X200362569Y-69593605D01*
X200503603Y-69595821D01*
X200635304Y-69597890D01*
X200635310Y-69597890D01*
X200639595Y-69597957D01*
X200914649Y-69564672D01*
X201182640Y-69494365D01*
X201438610Y-69388339D01*
X201677822Y-69248555D01*
X201895850Y-69077599D01*
X201919460Y-69053236D01*
X202014150Y-68955523D01*
X202088660Y-68878635D01*
X202252683Y-68655344D01*
X202328269Y-68516132D01*
X202378352Y-68465810D01*
X202447690Y-68450554D01*
X202514269Y-68475206D01*
X202556951Y-68531941D01*
X202565000Y-68576254D01*
X202565000Y-104270622D01*
X202544998Y-104338743D01*
X202491342Y-104385236D01*
X202421068Y-104395340D01*
X202356488Y-104365846D01*
X202327034Y-104328412D01*
X202295612Y-104267532D01*
X202275161Y-104227910D01*
X202270923Y-104221879D01*
X202146218Y-104044443D01*
X202115850Y-104001233D01*
X202033691Y-103912819D01*
X201930171Y-103801418D01*
X201930168Y-103801415D01*
X201927250Y-103798275D01*
X201923934Y-103795561D01*
X201923931Y-103795558D01*
X201716168Y-103625506D01*
X201712850Y-103622790D01*
X201476617Y-103478027D01*
X201472681Y-103476299D01*
X201226852Y-103368387D01*
X201226848Y-103368386D01*
X201222924Y-103366663D01*
X200956464Y-103290760D01*
X200952222Y-103290156D01*
X200952216Y-103290155D01*
X200686419Y-103252327D01*
X200682168Y-103251722D01*
X200536201Y-103250958D01*
X200409398Y-103250293D01*
X200409391Y-103250293D01*
X200405112Y-103250271D01*
X200400868Y-103250830D01*
X200400864Y-103250830D01*
X200279893Y-103266757D01*
X200130422Y-103286435D01*
X200126282Y-103287568D01*
X200126280Y-103287568D01*
X200114612Y-103290760D01*
X199863182Y-103359543D01*
X199842448Y-103368387D01*
X199612278Y-103466562D01*
X199612271Y-103466566D01*
X199608336Y-103468244D01*
X199604655Y-103470447D01*
X199374282Y-103608322D01*
X199374278Y-103608325D01*
X199370600Y-103610526D01*
X199367257Y-103613204D01*
X199367253Y-103613207D01*
X199261820Y-103697675D01*
X199154374Y-103783756D01*
X198963659Y-103984728D01*
X198801983Y-104209724D01*
X198672338Y-104454580D01*
X198670863Y-104458611D01*
X198598640Y-104655971D01*
X198577124Y-104714765D01*
X198518102Y-104985466D01*
X198517766Y-104989736D01*
X198498045Y-105240319D01*
X198496364Y-105261672D01*
X198496776Y-105268814D01*
X198512312Y-105538272D01*
X198565653Y-105810149D01*
X198567040Y-105814200D01*
X198643654Y-106037972D01*
X198655397Y-106072272D01*
X198779885Y-106319789D01*
X198782311Y-106323318D01*
X198782314Y-106323324D01*
X198819757Y-106377803D01*
X198936814Y-106548121D01*
X199123279Y-106753044D01*
X199190311Y-106809091D01*
X199332538Y-106928012D01*
X199332543Y-106928016D01*
X199335830Y-106930764D01*
X199394480Y-106967555D01*
X199566893Y-107075710D01*
X199566897Y-107075712D01*
X199570533Y-107077993D01*
X199571618Y-107078483D01*
X199621666Y-107127777D01*
X199637284Y-107197035D01*
X199612978Y-107263741D01*
X199556467Y-107306718D01*
X199511540Y-107315000D01*
X119125602Y-107315000D01*
X119057481Y-107294998D01*
X119010988Y-107241342D01*
X119000884Y-107171068D01*
X119030378Y-107106488D01*
X119062032Y-107080212D01*
X119065830Y-107077993D01*
X119254822Y-106967555D01*
X119472850Y-106796599D01*
X119665660Y-106597635D01*
X119829683Y-106374344D01*
X119944471Y-106162931D01*
X119959835Y-106134635D01*
X119959836Y-106134633D01*
X119961885Y-106130859D01*
X120059819Y-105871685D01*
X120101371Y-105690257D01*
X120120714Y-105605802D01*
X120120715Y-105605798D01*
X120121672Y-105601618D01*
X120127326Y-105538272D01*
X120146081Y-105328119D01*
X120146301Y-105325654D01*
X120146617Y-105295522D01*
X182232273Y-105295522D01*
X182279764Y-105472761D01*
X182283510Y-105483053D01*
X182375586Y-105680511D01*
X182381069Y-105690007D01*
X182506028Y-105868467D01*
X182513084Y-105876875D01*
X182667125Y-106030916D01*
X182675533Y-106037972D01*
X182853993Y-106162931D01*
X182863489Y-106168414D01*
X183060947Y-106260490D01*
X183071239Y-106264236D01*
X183243503Y-106310394D01*
X183257599Y-106310058D01*
X183261000Y-106302116D01*
X183261000Y-106296967D01*
X183769000Y-106296967D01*
X183772973Y-106310498D01*
X183781522Y-106311727D01*
X183958761Y-106264236D01*
X183969053Y-106260490D01*
X184166511Y-106168414D01*
X184176007Y-106162931D01*
X184354467Y-106037972D01*
X184362875Y-106030916D01*
X184516916Y-105876875D01*
X184523972Y-105868467D01*
X184648931Y-105690007D01*
X184654414Y-105680511D01*
X184746490Y-105483053D01*
X184750236Y-105472761D01*
X184796394Y-105300497D01*
X184796058Y-105286401D01*
X184788116Y-105283000D01*
X183787115Y-105283000D01*
X183771876Y-105287475D01*
X183770671Y-105288865D01*
X183769000Y-105296548D01*
X183769000Y-106296967D01*
X183261000Y-106296967D01*
X183261000Y-105301115D01*
X183256525Y-105285876D01*
X183255135Y-105284671D01*
X183247452Y-105283000D01*
X182247033Y-105283000D01*
X182233502Y-105286973D01*
X182232273Y-105295522D01*
X120146617Y-105295522D01*
X120146748Y-105283000D01*
X120145781Y-105268814D01*
X120129433Y-105029000D01*
X189821502Y-105029000D01*
X189841457Y-105257087D01*
X189842881Y-105262400D01*
X189842881Y-105262402D01*
X189897545Y-105466407D01*
X189900716Y-105478243D01*
X189903039Y-105483224D01*
X189903039Y-105483225D01*
X189995151Y-105680762D01*
X189995154Y-105680767D01*
X189997477Y-105685749D01*
X190000634Y-105690257D01*
X190125550Y-105868655D01*
X190128802Y-105873300D01*
X190290700Y-106035198D01*
X190295208Y-106038355D01*
X190295211Y-106038357D01*
X190337854Y-106068216D01*
X190478251Y-106166523D01*
X190483233Y-106168846D01*
X190483238Y-106168849D01*
X190679765Y-106260490D01*
X190685757Y-106263284D01*
X190691065Y-106264706D01*
X190691067Y-106264707D01*
X190901598Y-106321119D01*
X190901600Y-106321119D01*
X190906913Y-106322543D01*
X191135000Y-106342498D01*
X191363087Y-106322543D01*
X191368400Y-106321119D01*
X191368402Y-106321119D01*
X191578933Y-106264707D01*
X191578935Y-106264706D01*
X191584243Y-106263284D01*
X191590235Y-106260490D01*
X191786762Y-106168849D01*
X191786767Y-106168846D01*
X191791749Y-106166523D01*
X191932146Y-106068216D01*
X191974789Y-106038357D01*
X191974792Y-106038355D01*
X191979300Y-106035198D01*
X192141198Y-105873300D01*
X192144451Y-105868655D01*
X192269366Y-105690257D01*
X192272523Y-105685749D01*
X192274846Y-105680767D01*
X192274849Y-105680762D01*
X192366961Y-105483225D01*
X192366961Y-105483224D01*
X192369284Y-105478243D01*
X192372456Y-105466407D01*
X192427119Y-105262402D01*
X192427119Y-105262400D01*
X192428543Y-105257087D01*
X192448498Y-105029000D01*
X192428543Y-104800913D01*
X192418244Y-104762478D01*
X192370707Y-104585067D01*
X192370706Y-104585065D01*
X192369284Y-104579757D01*
X192321905Y-104478151D01*
X192274849Y-104377238D01*
X192274846Y-104377233D01*
X192272523Y-104372251D01*
X192183323Y-104244861D01*
X192144357Y-104189211D01*
X192144355Y-104189208D01*
X192141198Y-104184700D01*
X191979300Y-104022802D01*
X191974792Y-104019645D01*
X191974789Y-104019643D01*
X191822229Y-103912819D01*
X191777901Y-103857362D01*
X191768500Y-103809606D01*
X191768500Y-101105594D01*
X191788502Y-101037473D01*
X191805405Y-101016499D01*
X191849770Y-100972134D01*
X195493500Y-100972134D01*
X195500255Y-101034316D01*
X195551385Y-101170705D01*
X195638739Y-101287261D01*
X195755295Y-101374615D01*
X195891684Y-101425745D01*
X195953866Y-101432500D01*
X198000134Y-101432500D01*
X198062316Y-101425745D01*
X198198705Y-101374615D01*
X198315261Y-101287261D01*
X198402615Y-101170705D01*
X198453745Y-101034316D01*
X198460500Y-100972134D01*
X198460500Y-98925866D01*
X198453745Y-98863684D01*
X198402615Y-98727295D01*
X198315261Y-98610739D01*
X198198705Y-98523385D01*
X198062316Y-98472255D01*
X198000134Y-98465500D01*
X195953866Y-98465500D01*
X195891684Y-98472255D01*
X195755295Y-98523385D01*
X195638739Y-98610739D01*
X195551385Y-98727295D01*
X195500255Y-98863684D01*
X195493500Y-98925866D01*
X195493500Y-100972134D01*
X191849770Y-100972134D01*
X196418360Y-96403544D01*
X196480672Y-96369518D01*
X196552404Y-96374929D01*
X196561698Y-96378478D01*
X196566764Y-96379509D01*
X196566765Y-96379509D01*
X196795667Y-96426080D01*
X196795671Y-96426080D01*
X196800746Y-96427113D01*
X196805922Y-96427303D01*
X196805924Y-96427303D01*
X197039363Y-96435863D01*
X197039367Y-96435863D01*
X197044527Y-96436052D01*
X197049647Y-96435396D01*
X197049649Y-96435396D01*
X197126377Y-96425567D01*
X197286494Y-96405055D01*
X197291443Y-96403570D01*
X197291449Y-96403569D01*
X197515200Y-96336440D01*
X197515199Y-96336440D01*
X197520150Y-96334955D01*
X197739219Y-96227634D01*
X197743424Y-96224634D01*
X197743430Y-96224631D01*
X197933614Y-96088974D01*
X197933616Y-96088972D01*
X197937818Y-96085975D01*
X198110614Y-95913781D01*
X198252966Y-95715677D01*
X198269456Y-95682313D01*
X198358756Y-95501626D01*
X198358757Y-95501624D01*
X198361050Y-95496984D01*
X198390206Y-95401022D01*
X198430462Y-95268527D01*
X198430463Y-95268521D01*
X198431966Y-95263575D01*
X198448886Y-95135054D01*
X198463370Y-95025038D01*
X198463370Y-95025034D01*
X198463807Y-95021717D01*
X198464276Y-95002525D01*
X198465502Y-94952365D01*
X198465502Y-94952361D01*
X198465584Y-94949000D01*
X198445596Y-94705876D01*
X198386167Y-94469280D01*
X198313848Y-94302959D01*
X198290954Y-94250305D01*
X198290952Y-94250302D01*
X198288894Y-94245568D01*
X198193665Y-94098366D01*
X198159200Y-94045091D01*
X198159198Y-94045088D01*
X198156390Y-94040748D01*
X198092195Y-93970198D01*
X197995690Y-93864141D01*
X197995688Y-93864140D01*
X197992212Y-93860319D01*
X197988161Y-93857120D01*
X197988157Y-93857116D01*
X197804825Y-93712329D01*
X197804821Y-93712327D01*
X197800770Y-93709127D01*
X197587205Y-93591233D01*
X197582336Y-93589509D01*
X197582332Y-93589507D01*
X197362127Y-93511528D01*
X197362123Y-93511527D01*
X197357252Y-93509802D01*
X197352159Y-93508895D01*
X197352156Y-93508894D01*
X197122177Y-93467928D01*
X197122171Y-93467927D01*
X197117088Y-93467022D01*
X197037380Y-93466048D01*
X196878332Y-93464105D01*
X196878330Y-93464105D01*
X196873162Y-93464042D01*
X196632024Y-93500941D01*
X196400150Y-93576729D01*
X196395558Y-93579119D01*
X196395559Y-93579119D01*
X196224742Y-93668041D01*
X196183769Y-93689370D01*
X196179636Y-93692473D01*
X196179633Y-93692475D01*
X196020179Y-93812197D01*
X195988690Y-93835840D01*
X195820153Y-94012204D01*
X195817239Y-94016476D01*
X195817238Y-94016477D01*
X195751753Y-94112475D01*
X195682684Y-94213726D01*
X195665705Y-94250305D01*
X195610314Y-94369634D01*
X195579974Y-94434995D01*
X195514783Y-94670067D01*
X195488860Y-94912631D01*
X195489157Y-94917783D01*
X195489157Y-94917787D01*
X195496768Y-95049775D01*
X195502903Y-95156171D01*
X195504040Y-95161217D01*
X195504041Y-95161223D01*
X195525995Y-95258638D01*
X195544097Y-95338961D01*
X195555879Y-95391243D01*
X195551343Y-95462095D01*
X195522057Y-95508039D01*
X190742747Y-100287348D01*
X190734461Y-100294888D01*
X190727982Y-100299000D01*
X190722557Y-100304777D01*
X190681357Y-100348651D01*
X190678602Y-100351493D01*
X190658865Y-100371230D01*
X190656385Y-100374427D01*
X190648682Y-100383447D01*
X190618414Y-100415679D01*
X190614595Y-100422625D01*
X190614593Y-100422628D01*
X190608652Y-100433434D01*
X190597801Y-100449953D01*
X190585386Y-100465959D01*
X190582241Y-100473228D01*
X190582238Y-100473232D01*
X190567826Y-100506537D01*
X190562609Y-100517187D01*
X190541305Y-100555940D01*
X190539334Y-100563615D01*
X190539334Y-100563616D01*
X190536267Y-100575562D01*
X190529863Y-100594266D01*
X190521819Y-100612855D01*
X190520580Y-100620678D01*
X190520577Y-100620688D01*
X190514901Y-100656524D01*
X190512495Y-100668144D01*
X190504907Y-100697700D01*
X190501500Y-100710970D01*
X190501500Y-100731224D01*
X190499949Y-100750934D01*
X190496780Y-100770943D01*
X190497526Y-100778835D01*
X190500941Y-100814961D01*
X190501500Y-100826819D01*
X190501500Y-103809606D01*
X190481498Y-103877727D01*
X190447771Y-103912819D01*
X190295211Y-104019643D01*
X190295208Y-104019645D01*
X190290700Y-104022802D01*
X190128802Y-104184700D01*
X190125645Y-104189208D01*
X190125643Y-104189211D01*
X190086677Y-104244861D01*
X189997477Y-104372251D01*
X189995154Y-104377233D01*
X189995151Y-104377238D01*
X189948095Y-104478151D01*
X189900716Y-104579757D01*
X189899294Y-104585065D01*
X189899293Y-104585067D01*
X189851756Y-104762478D01*
X189841457Y-104800913D01*
X189821502Y-105029000D01*
X120129433Y-105029000D01*
X120128196Y-105010859D01*
X120128195Y-105010853D01*
X120127904Y-105006582D01*
X120076322Y-104757503D01*
X182233606Y-104757503D01*
X182233942Y-104771599D01*
X182241884Y-104775000D01*
X183242885Y-104775000D01*
X183258124Y-104770525D01*
X183259329Y-104769135D01*
X183261000Y-104761452D01*
X183261000Y-104756885D01*
X183769000Y-104756885D01*
X183773475Y-104772124D01*
X183774865Y-104773329D01*
X183782548Y-104775000D01*
X184782967Y-104775000D01*
X184796498Y-104771027D01*
X184797727Y-104762478D01*
X184750236Y-104585239D01*
X184746490Y-104574947D01*
X184654414Y-104377489D01*
X184648931Y-104367993D01*
X184523972Y-104189533D01*
X184516916Y-104181125D01*
X184362875Y-104027084D01*
X184354467Y-104020028D01*
X184176007Y-103895069D01*
X184166511Y-103889586D01*
X183969053Y-103797510D01*
X183958761Y-103793764D01*
X183786497Y-103747606D01*
X183772401Y-103747942D01*
X183769000Y-103755884D01*
X183769000Y-104756885D01*
X183261000Y-104756885D01*
X183261000Y-103761033D01*
X183257027Y-103747502D01*
X183248478Y-103746273D01*
X183071239Y-103793764D01*
X183060947Y-103797510D01*
X182863489Y-103889586D01*
X182853993Y-103895069D01*
X182675533Y-104020028D01*
X182667125Y-104027084D01*
X182513084Y-104181125D01*
X182506028Y-104189533D01*
X182381069Y-104367993D01*
X182375586Y-104377489D01*
X182283510Y-104574947D01*
X182279764Y-104585239D01*
X182233606Y-104757503D01*
X120076322Y-104757503D01*
X120071719Y-104735278D01*
X120065940Y-104718957D01*
X119980666Y-104478151D01*
X119979235Y-104474110D01*
X119852161Y-104227910D01*
X119847923Y-104221879D01*
X119723218Y-104044443D01*
X119692850Y-104001233D01*
X119610691Y-103912819D01*
X119507171Y-103801418D01*
X119507168Y-103801415D01*
X119504250Y-103798275D01*
X119500934Y-103795561D01*
X119500931Y-103795558D01*
X119293168Y-103625506D01*
X119289850Y-103622790D01*
X119053617Y-103478027D01*
X119049681Y-103476299D01*
X118803852Y-103368387D01*
X118803848Y-103368386D01*
X118799924Y-103366663D01*
X118533464Y-103290760D01*
X118529222Y-103290156D01*
X118529216Y-103290155D01*
X118263419Y-103252327D01*
X118259168Y-103251722D01*
X118113201Y-103250958D01*
X117986398Y-103250293D01*
X117986391Y-103250293D01*
X117982112Y-103250271D01*
X117977868Y-103250830D01*
X117977864Y-103250830D01*
X117856893Y-103266757D01*
X117707422Y-103286435D01*
X117703282Y-103287568D01*
X117703280Y-103287568D01*
X117691612Y-103290760D01*
X117440182Y-103359543D01*
X117419448Y-103368387D01*
X117189278Y-103466562D01*
X117189271Y-103466566D01*
X117185336Y-103468244D01*
X117181655Y-103470447D01*
X116951282Y-103608322D01*
X116951278Y-103608325D01*
X116947600Y-103610526D01*
X116944257Y-103613204D01*
X116944253Y-103613207D01*
X116838820Y-103697675D01*
X116731374Y-103783756D01*
X116540659Y-103984728D01*
X116378983Y-104209724D01*
X116376969Y-104213528D01*
X116315354Y-104329898D01*
X116265802Y-104380741D01*
X116196627Y-104396723D01*
X116129793Y-104372769D01*
X116086520Y-104316485D01*
X116078000Y-104270939D01*
X116078000Y-100845522D01*
X130279273Y-100845522D01*
X130326764Y-101022761D01*
X130330510Y-101033053D01*
X130422586Y-101230511D01*
X130428066Y-101240002D01*
X130553028Y-101418467D01*
X130560084Y-101426875D01*
X130714125Y-101580916D01*
X130722533Y-101587972D01*
X130900993Y-101712931D01*
X130910489Y-101718414D01*
X131107947Y-101810490D01*
X131118239Y-101814236D01*
X131290503Y-101860394D01*
X131304599Y-101860058D01*
X131308000Y-101852116D01*
X131308000Y-101846967D01*
X131816000Y-101846967D01*
X131819973Y-101860498D01*
X131828522Y-101861727D01*
X132005761Y-101814236D01*
X132016053Y-101810490D01*
X132213511Y-101718414D01*
X132223007Y-101712931D01*
X132401467Y-101587972D01*
X132409875Y-101580916D01*
X132563916Y-101426875D01*
X132570972Y-101418467D01*
X132695934Y-101240002D01*
X132701414Y-101230511D01*
X132793490Y-101033053D01*
X132797236Y-101022761D01*
X132843387Y-100850522D01*
X134861273Y-100850522D01*
X134908764Y-101027761D01*
X134912510Y-101038053D01*
X135004586Y-101235511D01*
X135010069Y-101245007D01*
X135135028Y-101423467D01*
X135142084Y-101431875D01*
X135296125Y-101585916D01*
X135304533Y-101592972D01*
X135482993Y-101717931D01*
X135492489Y-101723414D01*
X135689947Y-101815490D01*
X135700239Y-101819236D01*
X135872503Y-101865394D01*
X135886599Y-101865058D01*
X135890000Y-101857116D01*
X135890000Y-101851967D01*
X136398000Y-101851967D01*
X136401973Y-101865498D01*
X136410522Y-101866727D01*
X136587761Y-101819236D01*
X136598053Y-101815490D01*
X136795511Y-101723414D01*
X136805007Y-101717931D01*
X136983467Y-101592972D01*
X136991875Y-101585916D01*
X137145916Y-101431875D01*
X137152972Y-101423467D01*
X137277931Y-101245007D01*
X137283414Y-101235511D01*
X137375490Y-101038053D01*
X137379236Y-101027761D01*
X137425394Y-100855497D01*
X137425058Y-100841401D01*
X137417116Y-100838000D01*
X136416115Y-100838000D01*
X136400876Y-100842475D01*
X136399671Y-100843865D01*
X136398000Y-100851548D01*
X136398000Y-101851967D01*
X135890000Y-101851967D01*
X135890000Y-100856115D01*
X135885525Y-100840876D01*
X135884135Y-100839671D01*
X135876452Y-100838000D01*
X134876033Y-100838000D01*
X134862502Y-100841973D01*
X134861273Y-100850522D01*
X132843387Y-100850522D01*
X132843394Y-100850497D01*
X132843058Y-100836401D01*
X132835116Y-100833000D01*
X131834115Y-100833000D01*
X131818876Y-100837475D01*
X131817671Y-100838865D01*
X131816000Y-100846548D01*
X131816000Y-101846967D01*
X131308000Y-101846967D01*
X131308000Y-100851115D01*
X131303525Y-100835876D01*
X131302135Y-100834671D01*
X131294452Y-100833000D01*
X130294033Y-100833000D01*
X130280502Y-100836973D01*
X130279273Y-100845522D01*
X116078000Y-100845522D01*
X116078000Y-100584000D01*
X142450502Y-100584000D01*
X142470457Y-100812087D01*
X142471881Y-100817400D01*
X142471881Y-100817402D01*
X142523646Y-101010588D01*
X142529716Y-101033243D01*
X142532039Y-101038224D01*
X142532039Y-101038225D01*
X142624151Y-101235762D01*
X142624154Y-101235767D01*
X142626477Y-101240749D01*
X142659045Y-101287261D01*
X142754071Y-101422971D01*
X142757802Y-101428300D01*
X142919700Y-101590198D01*
X142924208Y-101593355D01*
X142924211Y-101593357D01*
X143002389Y-101648098D01*
X143107251Y-101721523D01*
X143112233Y-101723846D01*
X143112238Y-101723849D01*
X143306076Y-101814236D01*
X143314757Y-101818284D01*
X143320065Y-101819706D01*
X143320067Y-101819707D01*
X143530598Y-101876119D01*
X143530600Y-101876119D01*
X143535913Y-101877543D01*
X143764000Y-101897498D01*
X143992087Y-101877543D01*
X143997400Y-101876119D01*
X143997402Y-101876119D01*
X144207933Y-101819707D01*
X144207935Y-101819706D01*
X144213243Y-101818284D01*
X144221924Y-101814236D01*
X144409005Y-101727000D01*
X150070502Y-101727000D01*
X150090457Y-101955087D01*
X150091881Y-101960400D01*
X150091881Y-101960402D01*
X150147348Y-102167404D01*
X150149716Y-102176243D01*
X150152039Y-102181224D01*
X150152039Y-102181225D01*
X150244151Y-102378762D01*
X150244154Y-102378767D01*
X150246477Y-102383749D01*
X150377802Y-102571300D01*
X150539700Y-102733198D01*
X150544208Y-102736355D01*
X150544211Y-102736357D01*
X150584311Y-102764435D01*
X150727251Y-102864523D01*
X150732233Y-102866846D01*
X150732238Y-102866849D01*
X150929775Y-102958961D01*
X150934757Y-102961284D01*
X150940065Y-102962706D01*
X150940067Y-102962707D01*
X151150598Y-103019119D01*
X151150600Y-103019119D01*
X151155913Y-103020543D01*
X151384000Y-103040498D01*
X151612087Y-103020543D01*
X151617400Y-103019119D01*
X151617402Y-103019119D01*
X151827933Y-102962707D01*
X151827935Y-102962706D01*
X151833243Y-102961284D01*
X151838225Y-102958961D01*
X152035762Y-102866849D01*
X152035767Y-102866846D01*
X152040749Y-102864523D01*
X152183689Y-102764435D01*
X152223789Y-102736357D01*
X152223792Y-102736355D01*
X152228300Y-102733198D01*
X152390198Y-102571300D01*
X152521523Y-102383749D01*
X152523846Y-102378767D01*
X152523849Y-102378762D01*
X152615961Y-102181225D01*
X152615961Y-102181224D01*
X152618284Y-102176243D01*
X152620653Y-102167404D01*
X152676119Y-101960402D01*
X152676119Y-101960400D01*
X152677543Y-101955087D01*
X152697498Y-101727000D01*
X152677543Y-101498913D01*
X152676119Y-101493598D01*
X152619707Y-101283067D01*
X152619706Y-101283065D01*
X152618284Y-101277757D01*
X152598702Y-101235762D01*
X152523849Y-101075238D01*
X152523846Y-101075233D01*
X152521523Y-101070251D01*
X152390198Y-100882700D01*
X152228300Y-100720802D01*
X152223792Y-100717645D01*
X152223789Y-100717643D01*
X152119754Y-100644797D01*
X152040749Y-100589477D01*
X152035767Y-100587154D01*
X152035762Y-100587151D01*
X151838225Y-100495039D01*
X151838224Y-100495039D01*
X151833243Y-100492716D01*
X151827935Y-100491294D01*
X151827933Y-100491293D01*
X151617402Y-100434881D01*
X151617400Y-100434881D01*
X151612087Y-100433457D01*
X151384000Y-100413502D01*
X151155913Y-100433457D01*
X151150600Y-100434881D01*
X151150598Y-100434881D01*
X150940067Y-100491293D01*
X150940065Y-100491294D01*
X150934757Y-100492716D01*
X150929776Y-100495039D01*
X150929775Y-100495039D01*
X150732238Y-100587151D01*
X150732233Y-100587154D01*
X150727251Y-100589477D01*
X150648246Y-100644797D01*
X150544211Y-100717643D01*
X150544208Y-100717645D01*
X150539700Y-100720802D01*
X150377802Y-100882700D01*
X150246477Y-101070251D01*
X150244154Y-101075233D01*
X150244151Y-101075238D01*
X150169298Y-101235762D01*
X150149716Y-101277757D01*
X150148294Y-101283065D01*
X150148293Y-101283067D01*
X150091881Y-101493598D01*
X150090457Y-101498913D01*
X150070502Y-101727000D01*
X144409005Y-101727000D01*
X144415762Y-101723849D01*
X144415767Y-101723846D01*
X144420749Y-101721523D01*
X144525611Y-101648098D01*
X144603789Y-101593357D01*
X144603792Y-101593355D01*
X144608300Y-101590198D01*
X144770198Y-101428300D01*
X144773930Y-101422971D01*
X144868955Y-101287261D01*
X144901523Y-101240749D01*
X144903846Y-101235767D01*
X144903849Y-101235762D01*
X144995961Y-101038225D01*
X144995961Y-101038224D01*
X144998284Y-101033243D01*
X145004355Y-101010588D01*
X145056119Y-100817402D01*
X145056119Y-100817400D01*
X145057543Y-100812087D01*
X145077498Y-100584000D01*
X145057543Y-100355913D01*
X145045630Y-100311452D01*
X144999707Y-100140067D01*
X144999706Y-100140065D01*
X144998284Y-100134757D01*
X144993710Y-100124947D01*
X144903849Y-99932238D01*
X144903846Y-99932233D01*
X144901523Y-99927251D01*
X144770198Y-99739700D01*
X144608300Y-99577802D01*
X144603792Y-99574645D01*
X144603789Y-99574643D01*
X144472435Y-99482668D01*
X144420749Y-99446477D01*
X144415767Y-99444154D01*
X144415762Y-99444151D01*
X144381543Y-99428195D01*
X144328258Y-99381278D01*
X144308797Y-99313001D01*
X144329339Y-99245041D01*
X144381543Y-99199805D01*
X144415762Y-99183849D01*
X144415767Y-99183846D01*
X144420749Y-99181523D01*
X144525611Y-99108098D01*
X144603789Y-99053357D01*
X144603792Y-99053355D01*
X144608300Y-99050198D01*
X144770198Y-98888300D01*
X144787435Y-98863684D01*
X144898366Y-98705257D01*
X144901523Y-98700749D01*
X144903846Y-98695767D01*
X144903849Y-98695762D01*
X144995961Y-98498225D01*
X144995961Y-98498224D01*
X144998284Y-98493243D01*
X145003165Y-98475029D01*
X145056119Y-98277402D01*
X145056119Y-98277400D01*
X145057543Y-98272087D01*
X145077498Y-98044000D01*
X145057543Y-97815913D01*
X144998284Y-97594757D01*
X144931663Y-97451886D01*
X144903849Y-97392238D01*
X144903846Y-97392233D01*
X144901523Y-97387251D01*
X144787142Y-97223898D01*
X144773357Y-97204211D01*
X144773355Y-97204208D01*
X144770198Y-97199700D01*
X144608300Y-97037802D01*
X144603792Y-97034645D01*
X144603789Y-97034643D01*
X144525611Y-96979902D01*
X144420749Y-96906477D01*
X144415767Y-96904154D01*
X144415762Y-96904151D01*
X144381543Y-96888195D01*
X144328258Y-96841278D01*
X144308797Y-96773001D01*
X144329339Y-96705041D01*
X144381543Y-96659805D01*
X144415762Y-96643849D01*
X144415767Y-96643846D01*
X144420749Y-96641523D01*
X144534088Y-96562162D01*
X144603789Y-96513357D01*
X144603792Y-96513355D01*
X144608300Y-96510198D01*
X144770198Y-96348300D01*
X144778503Y-96336440D01*
X144898366Y-96165257D01*
X144901523Y-96160749D01*
X144903846Y-96155767D01*
X144903849Y-96155762D01*
X144995961Y-95958225D01*
X144995961Y-95958224D01*
X144998284Y-95953243D01*
X145007881Y-95917429D01*
X145009764Y-95910400D01*
X158325502Y-95910400D01*
X158345457Y-96138487D01*
X158346881Y-96143800D01*
X158346881Y-96143802D01*
X158401677Y-96348300D01*
X158404716Y-96359643D01*
X158407039Y-96364624D01*
X158407039Y-96364625D01*
X158499151Y-96562162D01*
X158499154Y-96562167D01*
X158501477Y-96567149D01*
X158555183Y-96643849D01*
X158604124Y-96713743D01*
X158632802Y-96754700D01*
X158794700Y-96916598D01*
X158799208Y-96919755D01*
X158799211Y-96919757D01*
X158951771Y-97026581D01*
X158996099Y-97082038D01*
X159005500Y-97129794D01*
X159005500Y-100458533D01*
X159004973Y-100469716D01*
X159003298Y-100477209D01*
X159003547Y-100485135D01*
X159003547Y-100485136D01*
X159005438Y-100545286D01*
X159005500Y-100549245D01*
X159005500Y-100577156D01*
X159005997Y-100581090D01*
X159005997Y-100581091D01*
X159006005Y-100581156D01*
X159006938Y-100592993D01*
X159008327Y-100637189D01*
X159013978Y-100656639D01*
X159017987Y-100676000D01*
X159020526Y-100696097D01*
X159023445Y-100703468D01*
X159023445Y-100703470D01*
X159036804Y-100737212D01*
X159040649Y-100748442D01*
X159052982Y-100790893D01*
X159057015Y-100797712D01*
X159057017Y-100797717D01*
X159063293Y-100808328D01*
X159071988Y-100826076D01*
X159079448Y-100844917D01*
X159084110Y-100851333D01*
X159084110Y-100851334D01*
X159105436Y-100880687D01*
X159111952Y-100890607D01*
X159134458Y-100928662D01*
X159148779Y-100942983D01*
X159161619Y-100958016D01*
X159173528Y-100974407D01*
X159179634Y-100979458D01*
X159207605Y-101002598D01*
X159216384Y-101010588D01*
X162230043Y-104024247D01*
X162237587Y-104032537D01*
X162241700Y-104039018D01*
X162247477Y-104044443D01*
X162291367Y-104085658D01*
X162294209Y-104088413D01*
X162313931Y-104108135D01*
X162317073Y-104110572D01*
X162317133Y-104110619D01*
X162326145Y-104118317D01*
X162351736Y-104142347D01*
X162358379Y-104148586D01*
X162365322Y-104152403D01*
X162376131Y-104158345D01*
X162392653Y-104169198D01*
X162408659Y-104181614D01*
X162415937Y-104184764D01*
X162415938Y-104184764D01*
X162449237Y-104199174D01*
X162459887Y-104204391D01*
X162498640Y-104225695D01*
X162499257Y-104225854D01*
X162552676Y-104267532D01*
X162568301Y-104296782D01*
X162598463Y-104377238D01*
X162608385Y-104403705D01*
X162695739Y-104520261D01*
X162812295Y-104607615D01*
X162948684Y-104658745D01*
X163010866Y-104665500D01*
X164607134Y-104665500D01*
X164669316Y-104658745D01*
X164805705Y-104607615D01*
X164922261Y-104520261D01*
X165009615Y-104403705D01*
X165060745Y-104267316D01*
X165067500Y-104205134D01*
X165067500Y-103058866D01*
X165060745Y-102996684D01*
X165045260Y-102955377D01*
X165012768Y-102868704D01*
X165012766Y-102868701D01*
X165009615Y-102860295D01*
X165004227Y-102853106D01*
X165004094Y-102852863D01*
X164988924Y-102783506D01*
X164994248Y-102755092D01*
X165000048Y-102736357D01*
X165051290Y-102570820D01*
X165071220Y-102381205D01*
X165071832Y-102375378D01*
X165071832Y-102375377D01*
X165072476Y-102369250D01*
X165060436Y-102236960D01*
X165054665Y-102173543D01*
X165054664Y-102173540D01*
X165054106Y-102167404D01*
X164996881Y-101972971D01*
X164994027Y-101967511D01*
X164905838Y-101798819D01*
X164905835Y-101798815D01*
X164902981Y-101793355D01*
X164902779Y-101793103D01*
X164882799Y-101727088D01*
X164897959Y-101666115D01*
X164987962Y-101499658D01*
X164992714Y-101488353D01*
X165031422Y-101363308D01*
X165031628Y-101349205D01*
X165024873Y-101346000D01*
X164255242Y-101346000D01*
X164241197Y-101345215D01*
X164226799Y-101343600D01*
X164092183Y-101328500D01*
X163532996Y-101328500D01*
X163382287Y-101343277D01*
X163379998Y-101343968D01*
X163359276Y-101346000D01*
X162600014Y-101346000D01*
X162586483Y-101349973D01*
X162585363Y-101357768D01*
X162619846Y-101474932D01*
X162624439Y-101486300D01*
X162712584Y-101654907D01*
X162714597Y-101657983D01*
X162715154Y-101659822D01*
X162715440Y-101660370D01*
X162715336Y-101660424D01*
X162735161Y-101725936D01*
X162720001Y-101786906D01*
X162626644Y-101959565D01*
X162566710Y-102153180D01*
X162557905Y-102236960D01*
X162554765Y-102266831D01*
X162527752Y-102332488D01*
X162469530Y-102373118D01*
X162398585Y-102375821D01*
X162340360Y-102342756D01*
X161416072Y-101418467D01*
X160832400Y-100834795D01*
X162586372Y-100834795D01*
X162593127Y-100838000D01*
X163536885Y-100838000D01*
X163552124Y-100833525D01*
X163553329Y-100832135D01*
X163555000Y-100824452D01*
X163555000Y-100819885D01*
X164063000Y-100819885D01*
X164067475Y-100835124D01*
X164068865Y-100836329D01*
X164076548Y-100838000D01*
X165017986Y-100838000D01*
X165031517Y-100834027D01*
X165032637Y-100826232D01*
X164998154Y-100709068D01*
X164993561Y-100697700D01*
X164905414Y-100529089D01*
X164898698Y-100518827D01*
X164779485Y-100370557D01*
X164770897Y-100361787D01*
X164625162Y-100239501D01*
X164615031Y-100232563D01*
X164448308Y-100140906D01*
X164437038Y-100136076D01*
X164255685Y-100078548D01*
X164243691Y-100075998D01*
X164095650Y-100059393D01*
X164088626Y-100059000D01*
X164081115Y-100059000D01*
X164065876Y-100063475D01*
X164064671Y-100064865D01*
X164063000Y-100072548D01*
X164063000Y-100819885D01*
X163555000Y-100819885D01*
X163555000Y-100077115D01*
X163550525Y-100061876D01*
X163549135Y-100060671D01*
X163541452Y-100059000D01*
X163536110Y-100059000D01*
X163529965Y-100059300D01*
X163388519Y-100073170D01*
X163376481Y-100075553D01*
X163194349Y-100130542D01*
X163183007Y-100135217D01*
X163015023Y-100224535D01*
X163004807Y-100231322D01*
X162857366Y-100351572D01*
X162848662Y-100360216D01*
X162727390Y-100506809D01*
X162720530Y-100516980D01*
X162630038Y-100684342D01*
X162625286Y-100695647D01*
X162586578Y-100820692D01*
X162586372Y-100834795D01*
X160832400Y-100834795D01*
X160309405Y-100311800D01*
X160275379Y-100249488D01*
X160272500Y-100222705D01*
X160272500Y-98552000D01*
X175355204Y-98552000D01*
X175374358Y-98795380D01*
X175375512Y-98800187D01*
X175375513Y-98800193D01*
X175411321Y-98949342D01*
X175431350Y-99032767D01*
X175433243Y-99037338D01*
X175433244Y-99037340D01*
X175520088Y-99246998D01*
X175524776Y-99258317D01*
X175580786Y-99349716D01*
X175638370Y-99443685D01*
X175656908Y-99512219D01*
X175635452Y-99579895D01*
X175606502Y-99610346D01*
X175512420Y-99680857D01*
X175505239Y-99686239D01*
X175417885Y-99802795D01*
X175366755Y-99939184D01*
X175360000Y-100001366D01*
X175360000Y-102182634D01*
X175366755Y-102244816D01*
X175417885Y-102381205D01*
X175505239Y-102497761D01*
X175621795Y-102585115D01*
X175758184Y-102636245D01*
X175820366Y-102643000D01*
X178001634Y-102643000D01*
X178063816Y-102636245D01*
X178200205Y-102585115D01*
X178316761Y-102497761D01*
X178404115Y-102381205D01*
X178455245Y-102244816D01*
X178462000Y-102182634D01*
X178462000Y-100001366D01*
X178455245Y-99939184D01*
X178404115Y-99802795D01*
X178316761Y-99686239D01*
X178309580Y-99680857D01*
X178215498Y-99610346D01*
X178172983Y-99553486D01*
X178167958Y-99482668D01*
X178183630Y-99443685D01*
X178241215Y-99349716D01*
X178297224Y-99258317D01*
X178301913Y-99246998D01*
X178388756Y-99037340D01*
X178388757Y-99037338D01*
X178390650Y-99032767D01*
X178410679Y-98949342D01*
X178446487Y-98800193D01*
X178446488Y-98800187D01*
X178447642Y-98795380D01*
X178466796Y-98552000D01*
X178447642Y-98308620D01*
X178446488Y-98303813D01*
X178446487Y-98303807D01*
X178391805Y-98076045D01*
X178390650Y-98071233D01*
X178297224Y-97845683D01*
X178169665Y-97637526D01*
X178011114Y-97451886D01*
X177924383Y-97377811D01*
X177885573Y-97318361D01*
X177885066Y-97247366D01*
X177924383Y-97186189D01*
X178007352Y-97115327D01*
X178011114Y-97112114D01*
X178169665Y-96926474D01*
X178297224Y-96718317D01*
X178321461Y-96659805D01*
X178388756Y-96497340D01*
X178388757Y-96497338D01*
X178390650Y-96492767D01*
X178420240Y-96369518D01*
X178446487Y-96260193D01*
X178446488Y-96260187D01*
X178447642Y-96255380D01*
X178466796Y-96012000D01*
X178447642Y-95768620D01*
X178446488Y-95763813D01*
X178446487Y-95763807D01*
X178391805Y-95536045D01*
X178390650Y-95531233D01*
X178379370Y-95504000D01*
X178299119Y-95310257D01*
X178299117Y-95310253D01*
X178297224Y-95305683D01*
X178169665Y-95097526D01*
X178011114Y-94911886D01*
X177825474Y-94753335D01*
X177617317Y-94625776D01*
X177612747Y-94623883D01*
X177612743Y-94623881D01*
X177396340Y-94534244D01*
X177396338Y-94534243D01*
X177391767Y-94532350D01*
X177302039Y-94510808D01*
X177159193Y-94476513D01*
X177159187Y-94476512D01*
X177154380Y-94475358D01*
X176911000Y-94456204D01*
X176667620Y-94475358D01*
X176662813Y-94476512D01*
X176662807Y-94476513D01*
X176519961Y-94510808D01*
X176430233Y-94532350D01*
X176425662Y-94534243D01*
X176425660Y-94534244D01*
X176209257Y-94623881D01*
X176209253Y-94623883D01*
X176204683Y-94625776D01*
X175996526Y-94753335D01*
X175810886Y-94911886D01*
X175652335Y-95097526D01*
X175524776Y-95305683D01*
X175522883Y-95310253D01*
X175522881Y-95310257D01*
X175442630Y-95504000D01*
X175431350Y-95531233D01*
X175430195Y-95536045D01*
X175375513Y-95763807D01*
X175375512Y-95763813D01*
X175374358Y-95768620D01*
X175355204Y-96012000D01*
X175374358Y-96255380D01*
X175375512Y-96260187D01*
X175375513Y-96260193D01*
X175401760Y-96369518D01*
X175431350Y-96492767D01*
X175433243Y-96497338D01*
X175433244Y-96497340D01*
X175500540Y-96659805D01*
X175524776Y-96718317D01*
X175652335Y-96926474D01*
X175810886Y-97112114D01*
X175814648Y-97115327D01*
X175897617Y-97186189D01*
X175936427Y-97245639D01*
X175936934Y-97316634D01*
X175897617Y-97377811D01*
X175810886Y-97451886D01*
X175652335Y-97637526D01*
X175524776Y-97845683D01*
X175431350Y-98071233D01*
X175430195Y-98076045D01*
X175375513Y-98303807D01*
X175375512Y-98303813D01*
X175374358Y-98308620D01*
X175355204Y-98552000D01*
X160272500Y-98552000D01*
X160272500Y-97129794D01*
X160292502Y-97061673D01*
X160326229Y-97026581D01*
X160478789Y-96919757D01*
X160478792Y-96919755D01*
X160483300Y-96916598D01*
X160645198Y-96754700D01*
X160673877Y-96713743D01*
X160722817Y-96643849D01*
X160776523Y-96567149D01*
X160778846Y-96562167D01*
X160778849Y-96562162D01*
X160870961Y-96364625D01*
X160870961Y-96364624D01*
X160873284Y-96359643D01*
X160876324Y-96348300D01*
X160931119Y-96143802D01*
X160931119Y-96143800D01*
X160932543Y-96138487D01*
X160952498Y-95910400D01*
X165945502Y-95910400D01*
X165965457Y-96138487D01*
X165966881Y-96143800D01*
X165966881Y-96143802D01*
X166021677Y-96348300D01*
X166024716Y-96359643D01*
X166027039Y-96364624D01*
X166027039Y-96364625D01*
X166119151Y-96562162D01*
X166119154Y-96562167D01*
X166121477Y-96567149D01*
X166175183Y-96643849D01*
X166224124Y-96713743D01*
X166252802Y-96754700D01*
X166414700Y-96916598D01*
X166419208Y-96919755D01*
X166419211Y-96919757D01*
X166428804Y-96926474D01*
X166602251Y-97047923D01*
X166607233Y-97050246D01*
X166607238Y-97050249D01*
X166746800Y-97115327D01*
X166809757Y-97144684D01*
X166815065Y-97146106D01*
X166815067Y-97146107D01*
X167025598Y-97202519D01*
X167025600Y-97202519D01*
X167030913Y-97203943D01*
X167259000Y-97223898D01*
X167487087Y-97203943D01*
X167492400Y-97202519D01*
X167492402Y-97202519D01*
X167702933Y-97146107D01*
X167702935Y-97146106D01*
X167708243Y-97144684D01*
X167771200Y-97115327D01*
X167910762Y-97050249D01*
X167910767Y-97050246D01*
X167915749Y-97047923D01*
X168089196Y-96926474D01*
X168098789Y-96919757D01*
X168098792Y-96919755D01*
X168103300Y-96916598D01*
X168265198Y-96754700D01*
X168293877Y-96713743D01*
X168342817Y-96643849D01*
X168396523Y-96567149D01*
X168398846Y-96562167D01*
X168398849Y-96562162D01*
X168490961Y-96364625D01*
X168490961Y-96364624D01*
X168493284Y-96359643D01*
X168496324Y-96348300D01*
X168551119Y-96143802D01*
X168551119Y-96143800D01*
X168552543Y-96138487D01*
X168572498Y-95910400D01*
X168552543Y-95682313D01*
X168502884Y-95496984D01*
X168494707Y-95466467D01*
X168494706Y-95466465D01*
X168493284Y-95461157D01*
X168465243Y-95401022D01*
X168398849Y-95258638D01*
X168398846Y-95258633D01*
X168396523Y-95253651D01*
X168323098Y-95148789D01*
X168268357Y-95070611D01*
X168268355Y-95070608D01*
X168265198Y-95066100D01*
X168103300Y-94904202D01*
X168098792Y-94901045D01*
X168098789Y-94901043D01*
X168015528Y-94842743D01*
X167971228Y-94811724D01*
X167926901Y-94756268D01*
X167917500Y-94708512D01*
X167917500Y-86360000D01*
X175355204Y-86360000D01*
X175374358Y-86603380D01*
X175375512Y-86608187D01*
X175375513Y-86608193D01*
X175382129Y-86635749D01*
X175431350Y-86840767D01*
X175433243Y-86845338D01*
X175433244Y-86845340D01*
X175513751Y-87039700D01*
X175524776Y-87066317D01*
X175623453Y-87227342D01*
X175638370Y-87251685D01*
X175656908Y-87320219D01*
X175635452Y-87387895D01*
X175606502Y-87418346D01*
X175512420Y-87488857D01*
X175505239Y-87494239D01*
X175417885Y-87610795D01*
X175366755Y-87747184D01*
X175360000Y-87809366D01*
X175360000Y-89990634D01*
X175366755Y-90052816D01*
X175417885Y-90189205D01*
X175505239Y-90305761D01*
X175621795Y-90393115D01*
X175758184Y-90444245D01*
X175820366Y-90451000D01*
X178001634Y-90451000D01*
X178063816Y-90444245D01*
X178200205Y-90393115D01*
X178316761Y-90305761D01*
X178404115Y-90189205D01*
X178455245Y-90052816D01*
X178462000Y-89990634D01*
X178462000Y-89923134D01*
X195493500Y-89923134D01*
X195500255Y-89985316D01*
X195551385Y-90121705D01*
X195638739Y-90238261D01*
X195755295Y-90325615D01*
X195891684Y-90376745D01*
X195953866Y-90383500D01*
X198000134Y-90383500D01*
X198062316Y-90376745D01*
X198198705Y-90325615D01*
X198315261Y-90238261D01*
X198402615Y-90121705D01*
X198453745Y-89985316D01*
X198460500Y-89923134D01*
X198460500Y-87876866D01*
X198453745Y-87814684D01*
X198402615Y-87678295D01*
X198315261Y-87561739D01*
X198198705Y-87474385D01*
X198062316Y-87423255D01*
X198000134Y-87416500D01*
X195953866Y-87416500D01*
X195891684Y-87423255D01*
X195755295Y-87474385D01*
X195638739Y-87561739D01*
X195551385Y-87678295D01*
X195500255Y-87814684D01*
X195493500Y-87876866D01*
X195493500Y-89923134D01*
X178462000Y-89923134D01*
X178462000Y-87809366D01*
X178455245Y-87747184D01*
X178404115Y-87610795D01*
X178316761Y-87494239D01*
X178309580Y-87488857D01*
X178215498Y-87418346D01*
X178172983Y-87361486D01*
X178167958Y-87290668D01*
X178183630Y-87251685D01*
X178198548Y-87227342D01*
X178297224Y-87066317D01*
X178308250Y-87039700D01*
X178388756Y-86845340D01*
X178388757Y-86845338D01*
X178390650Y-86840767D01*
X178439871Y-86635749D01*
X178446487Y-86608193D01*
X178446488Y-86608187D01*
X178447642Y-86603380D01*
X178466796Y-86360000D01*
X178457787Y-86245522D01*
X182232273Y-86245522D01*
X182279764Y-86422761D01*
X182283510Y-86433053D01*
X182375586Y-86630511D01*
X182381069Y-86640007D01*
X182506028Y-86818467D01*
X182513084Y-86826875D01*
X182667125Y-86980916D01*
X182675533Y-86987972D01*
X182853993Y-87112931D01*
X182863489Y-87118414D01*
X183060947Y-87210490D01*
X183071239Y-87214236D01*
X183243503Y-87260394D01*
X183257599Y-87260058D01*
X183261000Y-87252116D01*
X183261000Y-87246967D01*
X183769000Y-87246967D01*
X183772973Y-87260498D01*
X183781522Y-87261727D01*
X183958761Y-87214236D01*
X183969053Y-87210490D01*
X184166511Y-87118414D01*
X184176007Y-87112931D01*
X184354467Y-86987972D01*
X184362875Y-86980916D01*
X184516916Y-86826875D01*
X184523972Y-86818467D01*
X184648931Y-86640007D01*
X184654414Y-86630511D01*
X184746490Y-86433053D01*
X184750236Y-86422761D01*
X184796394Y-86250497D01*
X184796058Y-86236401D01*
X184788116Y-86233000D01*
X183787115Y-86233000D01*
X183771876Y-86237475D01*
X183770671Y-86238865D01*
X183769000Y-86246548D01*
X183769000Y-87246967D01*
X183261000Y-87246967D01*
X183261000Y-86251115D01*
X183256525Y-86235876D01*
X183255135Y-86234671D01*
X183247452Y-86233000D01*
X182247033Y-86233000D01*
X182233502Y-86236973D01*
X182232273Y-86245522D01*
X178457787Y-86245522D01*
X178447642Y-86116620D01*
X178446488Y-86111813D01*
X178446487Y-86111807D01*
X178414602Y-85979000D01*
X189821502Y-85979000D01*
X189841457Y-86207087D01*
X189842881Y-86212400D01*
X189842881Y-86212402D01*
X189878760Y-86346301D01*
X189900716Y-86428243D01*
X189903039Y-86433224D01*
X189903039Y-86433225D01*
X189995151Y-86630762D01*
X189995154Y-86630767D01*
X189997477Y-86635749D01*
X190128802Y-86823300D01*
X190290700Y-86985198D01*
X190295208Y-86988355D01*
X190295211Y-86988357D01*
X190362971Y-87035803D01*
X190478251Y-87116523D01*
X190483233Y-87118846D01*
X190483238Y-87118849D01*
X190636345Y-87190243D01*
X190685757Y-87213284D01*
X190691065Y-87214706D01*
X190691067Y-87214707D01*
X190901598Y-87271119D01*
X190901600Y-87271119D01*
X190906913Y-87272543D01*
X191135000Y-87292498D01*
X191363087Y-87272543D01*
X191368400Y-87271119D01*
X191368402Y-87271119D01*
X191578933Y-87214707D01*
X191578935Y-87214706D01*
X191584243Y-87213284D01*
X191633655Y-87190243D01*
X191786762Y-87118849D01*
X191786767Y-87118846D01*
X191791749Y-87116523D01*
X191907029Y-87035803D01*
X191974789Y-86988357D01*
X191974792Y-86988355D01*
X191979300Y-86985198D01*
X192141198Y-86823300D01*
X192272523Y-86635749D01*
X192274846Y-86630767D01*
X192274849Y-86630762D01*
X192366961Y-86433225D01*
X192366961Y-86433224D01*
X192369284Y-86428243D01*
X192391241Y-86346301D01*
X192427119Y-86212402D01*
X192427119Y-86212400D01*
X192428543Y-86207087D01*
X192448498Y-85979000D01*
X192428543Y-85750913D01*
X192418244Y-85712478D01*
X192370707Y-85535067D01*
X192370706Y-85535065D01*
X192369284Y-85529757D01*
X192328251Y-85441761D01*
X192274849Y-85327238D01*
X192274846Y-85327233D01*
X192272523Y-85322251D01*
X192199098Y-85217389D01*
X192144357Y-85139211D01*
X192144355Y-85139208D01*
X192141198Y-85134700D01*
X191979300Y-84972802D01*
X191974792Y-84969645D01*
X191974789Y-84969643D01*
X191875424Y-84900067D01*
X191791749Y-84841477D01*
X191786767Y-84839154D01*
X191786762Y-84839151D01*
X191589225Y-84747039D01*
X191589224Y-84747039D01*
X191584243Y-84744716D01*
X191578935Y-84743294D01*
X191578933Y-84743293D01*
X191368402Y-84686881D01*
X191368400Y-84686881D01*
X191363087Y-84685457D01*
X191135000Y-84665502D01*
X190906913Y-84685457D01*
X190901600Y-84686881D01*
X190901598Y-84686881D01*
X190691067Y-84743293D01*
X190691065Y-84743294D01*
X190685757Y-84744716D01*
X190680776Y-84747039D01*
X190680775Y-84747039D01*
X190483238Y-84839151D01*
X190483233Y-84839154D01*
X190478251Y-84841477D01*
X190394576Y-84900067D01*
X190295211Y-84969643D01*
X190295208Y-84969645D01*
X190290700Y-84972802D01*
X190128802Y-85134700D01*
X190125645Y-85139208D01*
X190125643Y-85139211D01*
X190070902Y-85217389D01*
X189997477Y-85322251D01*
X189995154Y-85327233D01*
X189995151Y-85327238D01*
X189941749Y-85441761D01*
X189900716Y-85529757D01*
X189899294Y-85535065D01*
X189899293Y-85535067D01*
X189851756Y-85712478D01*
X189841457Y-85750913D01*
X189821502Y-85979000D01*
X178414602Y-85979000D01*
X178391805Y-85884045D01*
X178390650Y-85879233D01*
X178388756Y-85874660D01*
X178319517Y-85707503D01*
X182233606Y-85707503D01*
X182233942Y-85721599D01*
X182241884Y-85725000D01*
X183242885Y-85725000D01*
X183258124Y-85720525D01*
X183259329Y-85719135D01*
X183261000Y-85711452D01*
X183261000Y-85706885D01*
X183769000Y-85706885D01*
X183773475Y-85722124D01*
X183774865Y-85723329D01*
X183782548Y-85725000D01*
X184782967Y-85725000D01*
X184796498Y-85721027D01*
X184797727Y-85712478D01*
X184750236Y-85535239D01*
X184746490Y-85524947D01*
X184654414Y-85327489D01*
X184648931Y-85317993D01*
X184523972Y-85139533D01*
X184516916Y-85131125D01*
X184362875Y-84977084D01*
X184354467Y-84970028D01*
X184176007Y-84845069D01*
X184166511Y-84839586D01*
X183969053Y-84747510D01*
X183958761Y-84743764D01*
X183786497Y-84697606D01*
X183772401Y-84697942D01*
X183769000Y-84705884D01*
X183769000Y-85706885D01*
X183261000Y-85706885D01*
X183261000Y-84711033D01*
X183257027Y-84697502D01*
X183248478Y-84696273D01*
X183071239Y-84743764D01*
X183060947Y-84747510D01*
X182863489Y-84839586D01*
X182853993Y-84845069D01*
X182675533Y-84970028D01*
X182667125Y-84977084D01*
X182513084Y-85131125D01*
X182506028Y-85139533D01*
X182381069Y-85317993D01*
X182375586Y-85327489D01*
X182283510Y-85524947D01*
X182279764Y-85535239D01*
X182233606Y-85707503D01*
X178319517Y-85707503D01*
X178299119Y-85658257D01*
X178299117Y-85658253D01*
X178297224Y-85653683D01*
X178169665Y-85445526D01*
X178011114Y-85259886D01*
X177924383Y-85185811D01*
X177885573Y-85126361D01*
X177885066Y-85055366D01*
X177924383Y-84994189D01*
X178007352Y-84923327D01*
X178011114Y-84920114D01*
X178169665Y-84734474D01*
X178297224Y-84526317D01*
X178300446Y-84518540D01*
X178388756Y-84305340D01*
X178388757Y-84305338D01*
X178390650Y-84300767D01*
X178424812Y-84158473D01*
X178446487Y-84068193D01*
X178446488Y-84068187D01*
X178447642Y-84063380D01*
X178463362Y-83863631D01*
X195488860Y-83863631D01*
X195489157Y-83868783D01*
X195489157Y-83868787D01*
X195498725Y-84034707D01*
X195502903Y-84107171D01*
X195504040Y-84112217D01*
X195504041Y-84112223D01*
X195525994Y-84209634D01*
X195556533Y-84345147D01*
X195558475Y-84349929D01*
X195558476Y-84349933D01*
X195628241Y-84521743D01*
X195648311Y-84571169D01*
X195706412Y-84665981D01*
X195756085Y-84747039D01*
X195775772Y-84779166D01*
X195935492Y-84963553D01*
X196074145Y-85078665D01*
X196119011Y-85115913D01*
X196123183Y-85119377D01*
X196333804Y-85242453D01*
X196561698Y-85329478D01*
X196566764Y-85330509D01*
X196566765Y-85330509D01*
X196795667Y-85377080D01*
X196795671Y-85377080D01*
X196800746Y-85378113D01*
X196805922Y-85378303D01*
X196805924Y-85378303D01*
X197039363Y-85386863D01*
X197039367Y-85386863D01*
X197044527Y-85387052D01*
X197049647Y-85386396D01*
X197049649Y-85386396D01*
X197126377Y-85376567D01*
X197286494Y-85356055D01*
X197291443Y-85354570D01*
X197291449Y-85354569D01*
X197515200Y-85287440D01*
X197515199Y-85287440D01*
X197520150Y-85285955D01*
X197739219Y-85178634D01*
X197743424Y-85175634D01*
X197743430Y-85175631D01*
X197933614Y-85039974D01*
X197933616Y-85039972D01*
X197937818Y-85036975D01*
X198110614Y-84864781D01*
X198124779Y-84845069D01*
X198169330Y-84783069D01*
X198252966Y-84666677D01*
X198324597Y-84521743D01*
X198358756Y-84452626D01*
X198358757Y-84452624D01*
X198361050Y-84447984D01*
X198407241Y-84295955D01*
X198430462Y-84219527D01*
X198430463Y-84219521D01*
X198431966Y-84214575D01*
X198453944Y-84047632D01*
X198463370Y-83976038D01*
X198463370Y-83976034D01*
X198463807Y-83972717D01*
X198464123Y-83959805D01*
X198465502Y-83903365D01*
X198465502Y-83903361D01*
X198465584Y-83900000D01*
X198445596Y-83656876D01*
X198395251Y-83456443D01*
X198387426Y-83425292D01*
X198387426Y-83425291D01*
X198386167Y-83420280D01*
X198288894Y-83196568D01*
X198182690Y-83032402D01*
X198159200Y-82996091D01*
X198159198Y-82996088D01*
X198156390Y-82991748D01*
X198070809Y-82897695D01*
X197995690Y-82815141D01*
X197995688Y-82815140D01*
X197992212Y-82811319D01*
X197988161Y-82808120D01*
X197988157Y-82808116D01*
X197804825Y-82663329D01*
X197804821Y-82663327D01*
X197800770Y-82660127D01*
X197587205Y-82542233D01*
X197582336Y-82540509D01*
X197582332Y-82540507D01*
X197362127Y-82462528D01*
X197362123Y-82462527D01*
X197357252Y-82460802D01*
X197352159Y-82459895D01*
X197352156Y-82459894D01*
X197122177Y-82418928D01*
X197122171Y-82418927D01*
X197117088Y-82418022D01*
X197037380Y-82417048D01*
X196878332Y-82415105D01*
X196878330Y-82415105D01*
X196873162Y-82415042D01*
X196632024Y-82451941D01*
X196400150Y-82527729D01*
X196183769Y-82640370D01*
X196179636Y-82643473D01*
X196179633Y-82643475D01*
X196006060Y-82773798D01*
X195988690Y-82786840D01*
X195985118Y-82790578D01*
X195877828Y-82902851D01*
X195820153Y-82963204D01*
X195817239Y-82967476D01*
X195817238Y-82967477D01*
X195723699Y-83104600D01*
X195682684Y-83164726D01*
X195665705Y-83201305D01*
X195599447Y-83344045D01*
X195579974Y-83385995D01*
X195514783Y-83621067D01*
X195488860Y-83863631D01*
X178463362Y-83863631D01*
X178466796Y-83820000D01*
X178447642Y-83576620D01*
X178446488Y-83571813D01*
X178446487Y-83571807D01*
X178391805Y-83344045D01*
X178390650Y-83339233D01*
X178388315Y-83333596D01*
X178299119Y-83118257D01*
X178299117Y-83118253D01*
X178297224Y-83113683D01*
X178169665Y-82905526D01*
X178011114Y-82719886D01*
X177825474Y-82561335D01*
X177617317Y-82433776D01*
X177612747Y-82431883D01*
X177612743Y-82431881D01*
X177396340Y-82342244D01*
X177396338Y-82342243D01*
X177391767Y-82340350D01*
X177292746Y-82316577D01*
X177159193Y-82284513D01*
X177159187Y-82284512D01*
X177154380Y-82283358D01*
X176911000Y-82264204D01*
X176667620Y-82283358D01*
X176662813Y-82284512D01*
X176662807Y-82284513D01*
X176529254Y-82316577D01*
X176430233Y-82340350D01*
X176425662Y-82342243D01*
X176425660Y-82342244D01*
X176209257Y-82431881D01*
X176209253Y-82431883D01*
X176204683Y-82433776D01*
X175996526Y-82561335D01*
X175810886Y-82719886D01*
X175652335Y-82905526D01*
X175524776Y-83113683D01*
X175522883Y-83118253D01*
X175522881Y-83118257D01*
X175433685Y-83333596D01*
X175431350Y-83339233D01*
X175430195Y-83344045D01*
X175375513Y-83571807D01*
X175375512Y-83571813D01*
X175374358Y-83576620D01*
X175355204Y-83820000D01*
X175374358Y-84063380D01*
X175375512Y-84068187D01*
X175375513Y-84068193D01*
X175397188Y-84158473D01*
X175431350Y-84300767D01*
X175433243Y-84305338D01*
X175433244Y-84305340D01*
X175521555Y-84518540D01*
X175524776Y-84526317D01*
X175652335Y-84734474D01*
X175810886Y-84920114D01*
X175814648Y-84923327D01*
X175897617Y-84994189D01*
X175936427Y-85053639D01*
X175936934Y-85124634D01*
X175897617Y-85185811D01*
X175810886Y-85259886D01*
X175652335Y-85445526D01*
X175524776Y-85653683D01*
X175522883Y-85658253D01*
X175522881Y-85658257D01*
X175433244Y-85874660D01*
X175431350Y-85879233D01*
X175430195Y-85884045D01*
X175375513Y-86111807D01*
X175375512Y-86111813D01*
X175374358Y-86116620D01*
X175355204Y-86360000D01*
X167917500Y-86360000D01*
X167917500Y-84209088D01*
X167937502Y-84140967D01*
X167971228Y-84105876D01*
X168078218Y-84030961D01*
X168098789Y-84016557D01*
X168098792Y-84016555D01*
X168103300Y-84013398D01*
X168265198Y-83851500D01*
X168272450Y-83841144D01*
X168343278Y-83739990D01*
X168396523Y-83663949D01*
X168398846Y-83658967D01*
X168398849Y-83658962D01*
X168490961Y-83461425D01*
X168490961Y-83461424D01*
X168493284Y-83456443D01*
X168547737Y-83253225D01*
X168551119Y-83240602D01*
X168551119Y-83240600D01*
X168552543Y-83235287D01*
X168572498Y-83007200D01*
X168552543Y-82779113D01*
X168520661Y-82660127D01*
X168494707Y-82563267D01*
X168494706Y-82563265D01*
X168493284Y-82557957D01*
X168454415Y-82474602D01*
X168398849Y-82355438D01*
X168398846Y-82355433D01*
X168396523Y-82350451D01*
X168265198Y-82162900D01*
X168103300Y-82001002D01*
X168098792Y-81997845D01*
X168098789Y-81997843D01*
X168003110Y-81930848D01*
X167971228Y-81908524D01*
X167926901Y-81853068D01*
X167917500Y-81805312D01*
X167917500Y-78874134D01*
X195493500Y-78874134D01*
X195500255Y-78936316D01*
X195551385Y-79072705D01*
X195638739Y-79189261D01*
X195755295Y-79276615D01*
X195891684Y-79327745D01*
X195953866Y-79334500D01*
X198000134Y-79334500D01*
X198062316Y-79327745D01*
X198198705Y-79276615D01*
X198315261Y-79189261D01*
X198402615Y-79072705D01*
X198453745Y-78936316D01*
X198460500Y-78874134D01*
X198460500Y-76827866D01*
X198453745Y-76765684D01*
X198402615Y-76629295D01*
X198315261Y-76512739D01*
X198198705Y-76425385D01*
X198062316Y-76374255D01*
X198000134Y-76367500D01*
X195953866Y-76367500D01*
X195891684Y-76374255D01*
X195755295Y-76425385D01*
X195638739Y-76512739D01*
X195551385Y-76629295D01*
X195500255Y-76765684D01*
X195493500Y-76827866D01*
X195493500Y-78874134D01*
X167917500Y-78874134D01*
X167917500Y-72412500D01*
X167937502Y-72344379D01*
X167991158Y-72297886D01*
X168043500Y-72286500D01*
X175424910Y-72286500D01*
X175493031Y-72306502D01*
X175532343Y-72346665D01*
X175652335Y-72542474D01*
X175810886Y-72728114D01*
X175814648Y-72731327D01*
X175897617Y-72802189D01*
X175936427Y-72861639D01*
X175936934Y-72932634D01*
X175897617Y-72993811D01*
X175810886Y-73067886D01*
X175652335Y-73253526D01*
X175524776Y-73461683D01*
X175522883Y-73466253D01*
X175522881Y-73466257D01*
X175460161Y-73617677D01*
X175431350Y-73687233D01*
X175430195Y-73692045D01*
X175375513Y-73919807D01*
X175375512Y-73919813D01*
X175374358Y-73924620D01*
X175355204Y-74168000D01*
X175374358Y-74411380D01*
X175375512Y-74416187D01*
X175375513Y-74416193D01*
X175396930Y-74505400D01*
X175431350Y-74648767D01*
X175433243Y-74653338D01*
X175433244Y-74653340D01*
X175518747Y-74859761D01*
X175524776Y-74874317D01*
X175629331Y-75044934D01*
X175638370Y-75059685D01*
X175656908Y-75128219D01*
X175635452Y-75195895D01*
X175606502Y-75226346D01*
X175544837Y-75272562D01*
X175505239Y-75302239D01*
X175417885Y-75418795D01*
X175366755Y-75555184D01*
X175360000Y-75617366D01*
X175360000Y-77798634D01*
X175366755Y-77860816D01*
X175417885Y-77997205D01*
X175505239Y-78113761D01*
X175621795Y-78201115D01*
X175758184Y-78252245D01*
X175820366Y-78259000D01*
X178001634Y-78259000D01*
X178063816Y-78252245D01*
X178200205Y-78201115D01*
X178316761Y-78113761D01*
X178404115Y-77997205D01*
X178455245Y-77860816D01*
X178462000Y-77798634D01*
X178462000Y-75617366D01*
X178455245Y-75555184D01*
X178404115Y-75418795D01*
X178316761Y-75302239D01*
X178277163Y-75272562D01*
X178215498Y-75226346D01*
X178172983Y-75169486D01*
X178167958Y-75098668D01*
X178183630Y-75059685D01*
X178192670Y-75044934D01*
X178297224Y-74874317D01*
X178303254Y-74859761D01*
X178388756Y-74653340D01*
X178388757Y-74653338D01*
X178390650Y-74648767D01*
X178425070Y-74505400D01*
X178446487Y-74416193D01*
X178446488Y-74416187D01*
X178447642Y-74411380D01*
X178466796Y-74168000D01*
X178447642Y-73924620D01*
X178446488Y-73919813D01*
X178446487Y-73919807D01*
X178391805Y-73692045D01*
X178390650Y-73687233D01*
X178361839Y-73617677D01*
X178299119Y-73466257D01*
X178299117Y-73466253D01*
X178297224Y-73461683D01*
X178169665Y-73253526D01*
X178011114Y-73067886D01*
X177924383Y-72993811D01*
X177885573Y-72934361D01*
X177885066Y-72863366D01*
X177924383Y-72802189D01*
X178007352Y-72731327D01*
X178011114Y-72728114D01*
X178169665Y-72542474D01*
X178297224Y-72334317D01*
X178308746Y-72306502D01*
X178388756Y-72113340D01*
X178388757Y-72113338D01*
X178390650Y-72108767D01*
X178410679Y-72025342D01*
X178446487Y-71876193D01*
X178446488Y-71876187D01*
X178447642Y-71871380D01*
X178466796Y-71628000D01*
X178447642Y-71384620D01*
X178446488Y-71379813D01*
X178446487Y-71379807D01*
X178408163Y-71220181D01*
X178390650Y-71147233D01*
X178374864Y-71109122D01*
X178299119Y-70926257D01*
X178299117Y-70926253D01*
X178297224Y-70921683D01*
X178169665Y-70713526D01*
X178011114Y-70527886D01*
X177825474Y-70369335D01*
X177617317Y-70241776D01*
X177612747Y-70239883D01*
X177612743Y-70239881D01*
X177396340Y-70150244D01*
X177396338Y-70150243D01*
X177391767Y-70148350D01*
X177308342Y-70128321D01*
X177159193Y-70092513D01*
X177159187Y-70092512D01*
X177154380Y-70091358D01*
X176911000Y-70072204D01*
X176667620Y-70091358D01*
X176662813Y-70092512D01*
X176662807Y-70092513D01*
X176513658Y-70128321D01*
X176430233Y-70148350D01*
X176425662Y-70150243D01*
X176425660Y-70150244D01*
X176209257Y-70239881D01*
X176209253Y-70239883D01*
X176204683Y-70241776D01*
X175996526Y-70369335D01*
X175810886Y-70527886D01*
X175652335Y-70713526D01*
X175532343Y-70909335D01*
X175479695Y-70956966D01*
X175424910Y-70969500D01*
X168492398Y-70969500D01*
X168424277Y-70949498D01*
X168377784Y-70895842D01*
X168367680Y-70825568D01*
X168389184Y-70771231D01*
X168393364Y-70765261D01*
X168393366Y-70765257D01*
X168396523Y-70760749D01*
X168398846Y-70755767D01*
X168398849Y-70755762D01*
X168490961Y-70558225D01*
X168490961Y-70558224D01*
X168493284Y-70553243D01*
X168499071Y-70531648D01*
X168551119Y-70337402D01*
X168551119Y-70337400D01*
X168552543Y-70332087D01*
X168572498Y-70104000D01*
X168552543Y-69875913D01*
X168493284Y-69654757D01*
X168466767Y-69597890D01*
X168398849Y-69452238D01*
X168398846Y-69452233D01*
X168396523Y-69447251D01*
X168265198Y-69259700D01*
X168103300Y-69097802D01*
X168098792Y-69094645D01*
X168098789Y-69094643D01*
X168007724Y-69030879D01*
X167915749Y-68966477D01*
X167910767Y-68964154D01*
X167910762Y-68964151D01*
X167713225Y-68872039D01*
X167713224Y-68872039D01*
X167708243Y-68869716D01*
X167702935Y-68868294D01*
X167702933Y-68868293D01*
X167492402Y-68811881D01*
X167492400Y-68811881D01*
X167487087Y-68810457D01*
X167259000Y-68790502D01*
X167030913Y-68810457D01*
X167025600Y-68811881D01*
X167025598Y-68811881D01*
X166815067Y-68868293D01*
X166815065Y-68868294D01*
X166809757Y-68869716D01*
X166804776Y-68872039D01*
X166804775Y-68872039D01*
X166607238Y-68964151D01*
X166607233Y-68964154D01*
X166602251Y-68966477D01*
X166510276Y-69030879D01*
X166419211Y-69094643D01*
X166419208Y-69094645D01*
X166414700Y-69097802D01*
X166252802Y-69259700D01*
X166121477Y-69447251D01*
X166119154Y-69452233D01*
X166119151Y-69452238D01*
X166051233Y-69597890D01*
X166024716Y-69654757D01*
X165965457Y-69875913D01*
X165945502Y-70104000D01*
X165965457Y-70332087D01*
X165966881Y-70337400D01*
X165966881Y-70337402D01*
X166018930Y-70531648D01*
X166024716Y-70553243D01*
X166027039Y-70558224D01*
X166027039Y-70558225D01*
X166119151Y-70755762D01*
X166119154Y-70755767D01*
X166121477Y-70760749D01*
X166194902Y-70865611D01*
X166237537Y-70926499D01*
X166252802Y-70948300D01*
X166414700Y-71110198D01*
X166419208Y-71113355D01*
X166419211Y-71113357D01*
X166477315Y-71154042D01*
X166546772Y-71202676D01*
X166591099Y-71258132D01*
X166600500Y-71305888D01*
X166600500Y-71553845D01*
X166598268Y-71577454D01*
X166596576Y-71586324D01*
X166598137Y-71611127D01*
X166600251Y-71644735D01*
X166600500Y-71652647D01*
X166600500Y-81805312D01*
X166580498Y-81873433D01*
X166546772Y-81908524D01*
X166514890Y-81930848D01*
X166419211Y-81997843D01*
X166419208Y-81997845D01*
X166414700Y-82001002D01*
X166252802Y-82162900D01*
X166121477Y-82350451D01*
X166119154Y-82355433D01*
X166119151Y-82355438D01*
X166063585Y-82474602D01*
X166024716Y-82557957D01*
X166023294Y-82563265D01*
X166023293Y-82563267D01*
X165997339Y-82660127D01*
X165965457Y-82779113D01*
X165945502Y-83007200D01*
X165965457Y-83235287D01*
X165966881Y-83240600D01*
X165966881Y-83240602D01*
X165970264Y-83253225D01*
X166024716Y-83456443D01*
X166027039Y-83461424D01*
X166027039Y-83461425D01*
X166119151Y-83658962D01*
X166119154Y-83658967D01*
X166121477Y-83663949D01*
X166174722Y-83739990D01*
X166245551Y-83841144D01*
X166252802Y-83851500D01*
X166414700Y-84013398D01*
X166419208Y-84016555D01*
X166419211Y-84016557D01*
X166439782Y-84030961D01*
X166546772Y-84105876D01*
X166591099Y-84161332D01*
X166600500Y-84209088D01*
X166600500Y-94708512D01*
X166580498Y-94776633D01*
X166546772Y-94811724D01*
X166502472Y-94842743D01*
X166419211Y-94901043D01*
X166419208Y-94901045D01*
X166414700Y-94904202D01*
X166252802Y-95066100D01*
X166249645Y-95070608D01*
X166249643Y-95070611D01*
X166194902Y-95148789D01*
X166121477Y-95253651D01*
X166119154Y-95258633D01*
X166119151Y-95258638D01*
X166052757Y-95401022D01*
X166024716Y-95461157D01*
X166023294Y-95466465D01*
X166023293Y-95466467D01*
X166015116Y-95496984D01*
X165965457Y-95682313D01*
X165945502Y-95910400D01*
X160952498Y-95910400D01*
X160932543Y-95682313D01*
X160882884Y-95496984D01*
X160874707Y-95466467D01*
X160874706Y-95466465D01*
X160873284Y-95461157D01*
X160845243Y-95401022D01*
X160778849Y-95258638D01*
X160778846Y-95258633D01*
X160776523Y-95253651D01*
X160703098Y-95148789D01*
X160648357Y-95070611D01*
X160648355Y-95070608D01*
X160645198Y-95066100D01*
X160483300Y-94904202D01*
X160478792Y-94901045D01*
X160478789Y-94901043D01*
X160356281Y-94815262D01*
X160295749Y-94772877D01*
X160290767Y-94770554D01*
X160290762Y-94770551D01*
X160093225Y-94678439D01*
X160093224Y-94678439D01*
X160088243Y-94676116D01*
X160082935Y-94674694D01*
X160082933Y-94674693D01*
X159872402Y-94618281D01*
X159872400Y-94618281D01*
X159867087Y-94616857D01*
X159639000Y-94596902D01*
X159410913Y-94616857D01*
X159405600Y-94618281D01*
X159405598Y-94618281D01*
X159195067Y-94674693D01*
X159195065Y-94674694D01*
X159189757Y-94676116D01*
X159184776Y-94678439D01*
X159184775Y-94678439D01*
X158987238Y-94770551D01*
X158987233Y-94770554D01*
X158982251Y-94772877D01*
X158921719Y-94815262D01*
X158799211Y-94901043D01*
X158799208Y-94901045D01*
X158794700Y-94904202D01*
X158632802Y-95066100D01*
X158629645Y-95070608D01*
X158629643Y-95070611D01*
X158574902Y-95148789D01*
X158501477Y-95253651D01*
X158499154Y-95258633D01*
X158499151Y-95258638D01*
X158432757Y-95401022D01*
X158404716Y-95461157D01*
X158403294Y-95466465D01*
X158403293Y-95466467D01*
X158395116Y-95496984D01*
X158345457Y-95682313D01*
X158325502Y-95910400D01*
X145009764Y-95910400D01*
X145056119Y-95737402D01*
X145056119Y-95737400D01*
X145057543Y-95732087D01*
X145077498Y-95504000D01*
X145057543Y-95275913D01*
X145014790Y-95116357D01*
X144999707Y-95060067D01*
X144999706Y-95060065D01*
X144998284Y-95054757D01*
X144977732Y-95010683D01*
X144903849Y-94852238D01*
X144903846Y-94852233D01*
X144901523Y-94847251D01*
X144785457Y-94681492D01*
X144773357Y-94664211D01*
X144773355Y-94664208D01*
X144770198Y-94659700D01*
X144608300Y-94497802D01*
X144603792Y-94494645D01*
X144603789Y-94494643D01*
X144511903Y-94430304D01*
X144420749Y-94366477D01*
X144415767Y-94364154D01*
X144415762Y-94364151D01*
X144381543Y-94348195D01*
X144328258Y-94301278D01*
X144308797Y-94233001D01*
X144329339Y-94165041D01*
X144381543Y-94119805D01*
X144409004Y-94107000D01*
X150070502Y-94107000D01*
X150090457Y-94335087D01*
X150091881Y-94340400D01*
X150091881Y-94340402D01*
X150137542Y-94510808D01*
X150149716Y-94556243D01*
X150152039Y-94561224D01*
X150152039Y-94561225D01*
X150244151Y-94758762D01*
X150244154Y-94758767D01*
X150246477Y-94763749D01*
X150280957Y-94812991D01*
X150372541Y-94943786D01*
X150377802Y-94951300D01*
X150539700Y-95113198D01*
X150544208Y-95116355D01*
X150544211Y-95116357D01*
X150608287Y-95161223D01*
X150727251Y-95244523D01*
X150732233Y-95246846D01*
X150732238Y-95246849D01*
X150929775Y-95338961D01*
X150934757Y-95341284D01*
X150940065Y-95342706D01*
X150940067Y-95342707D01*
X151150598Y-95399119D01*
X151150600Y-95399119D01*
X151155913Y-95400543D01*
X151384000Y-95420498D01*
X151612087Y-95400543D01*
X151617400Y-95399119D01*
X151617402Y-95399119D01*
X151827933Y-95342707D01*
X151827935Y-95342706D01*
X151833243Y-95341284D01*
X151838225Y-95338961D01*
X152035762Y-95246849D01*
X152035767Y-95246846D01*
X152040749Y-95244523D01*
X152159713Y-95161223D01*
X152223789Y-95116357D01*
X152223792Y-95116355D01*
X152228300Y-95113198D01*
X152390198Y-94951300D01*
X152395460Y-94943786D01*
X152487043Y-94812991D01*
X152521523Y-94763749D01*
X152523846Y-94758767D01*
X152523849Y-94758762D01*
X152615961Y-94561225D01*
X152615961Y-94561224D01*
X152618284Y-94556243D01*
X152630459Y-94510808D01*
X152676119Y-94340402D01*
X152676119Y-94340400D01*
X152677543Y-94335087D01*
X152697498Y-94107000D01*
X152696582Y-94096523D01*
X152684751Y-93961301D01*
X152677543Y-93878913D01*
X152671799Y-93857475D01*
X152619707Y-93663067D01*
X152619706Y-93663065D01*
X152618284Y-93657757D01*
X152598702Y-93615762D01*
X152523849Y-93455238D01*
X152523846Y-93455233D01*
X152521523Y-93450251D01*
X152390198Y-93262700D01*
X152228300Y-93100802D01*
X152223792Y-93097645D01*
X152223789Y-93097643D01*
X152145611Y-93042902D01*
X152040749Y-92969477D01*
X152035767Y-92967154D01*
X152035762Y-92967151D01*
X151838225Y-92875039D01*
X151838224Y-92875039D01*
X151833243Y-92872716D01*
X151827935Y-92871294D01*
X151827933Y-92871293D01*
X151617402Y-92814881D01*
X151617400Y-92814881D01*
X151612087Y-92813457D01*
X151384000Y-92793502D01*
X151155913Y-92813457D01*
X151150600Y-92814881D01*
X151150598Y-92814881D01*
X150940067Y-92871293D01*
X150940065Y-92871294D01*
X150934757Y-92872716D01*
X150929776Y-92875039D01*
X150929775Y-92875039D01*
X150732238Y-92967151D01*
X150732233Y-92967154D01*
X150727251Y-92969477D01*
X150622389Y-93042902D01*
X150544211Y-93097643D01*
X150544208Y-93097645D01*
X150539700Y-93100802D01*
X150377802Y-93262700D01*
X150246477Y-93450251D01*
X150244154Y-93455233D01*
X150244151Y-93455238D01*
X150169298Y-93615762D01*
X150149716Y-93657757D01*
X150148294Y-93663065D01*
X150148293Y-93663067D01*
X150096201Y-93857475D01*
X150090457Y-93878913D01*
X150083249Y-93961301D01*
X150071419Y-94096523D01*
X150070502Y-94107000D01*
X144409004Y-94107000D01*
X144415762Y-94103849D01*
X144415767Y-94103846D01*
X144420749Y-94101523D01*
X144542207Y-94016477D01*
X144603789Y-93973357D01*
X144603792Y-93973355D01*
X144608300Y-93970198D01*
X144770198Y-93808300D01*
X144901523Y-93620749D01*
X144903846Y-93615767D01*
X144903849Y-93615762D01*
X144995961Y-93418225D01*
X144995961Y-93418224D01*
X144998284Y-93413243D01*
X145017341Y-93342124D01*
X145056119Y-93197402D01*
X145056119Y-93197400D01*
X145057543Y-93192087D01*
X145077498Y-92964000D01*
X145057543Y-92735913D01*
X145035682Y-92654328D01*
X144999707Y-92520067D01*
X144999706Y-92520065D01*
X144998284Y-92514757D01*
X144995961Y-92509775D01*
X144903849Y-92312238D01*
X144903846Y-92312233D01*
X144901523Y-92307251D01*
X144770198Y-92119700D01*
X144608300Y-91957802D01*
X144603792Y-91954645D01*
X144603789Y-91954643D01*
X144525611Y-91899902D01*
X144420749Y-91826477D01*
X144415767Y-91824154D01*
X144415762Y-91824151D01*
X144381543Y-91808195D01*
X144328258Y-91761278D01*
X144308797Y-91693001D01*
X144329339Y-91625041D01*
X144381543Y-91579805D01*
X144415762Y-91563849D01*
X144415767Y-91563846D01*
X144420749Y-91561523D01*
X144525611Y-91488098D01*
X144603789Y-91433357D01*
X144603792Y-91433355D01*
X144608300Y-91430198D01*
X144770198Y-91268300D01*
X144774395Y-91262307D01*
X144849544Y-91154983D01*
X144901523Y-91080749D01*
X144903846Y-91075767D01*
X144903849Y-91075762D01*
X144995961Y-90878225D01*
X144995961Y-90878224D01*
X144998284Y-90873243D01*
X145004805Y-90848909D01*
X145056119Y-90657402D01*
X145056119Y-90657400D01*
X145057543Y-90652087D01*
X145077498Y-90424000D01*
X149620502Y-90424000D01*
X149640457Y-90652087D01*
X149641881Y-90657400D01*
X149641881Y-90657402D01*
X149693196Y-90848909D01*
X149699716Y-90873243D01*
X149702039Y-90878224D01*
X149702039Y-90878225D01*
X149794151Y-91075762D01*
X149794154Y-91075767D01*
X149796477Y-91080749D01*
X149848456Y-91154983D01*
X149923606Y-91262307D01*
X149927802Y-91268300D01*
X150089700Y-91430198D01*
X150094208Y-91433355D01*
X150094211Y-91433357D01*
X150172389Y-91488098D01*
X150277251Y-91561523D01*
X150282233Y-91563846D01*
X150282238Y-91563849D01*
X150442102Y-91638394D01*
X150484757Y-91658284D01*
X150490065Y-91659706D01*
X150490067Y-91659707D01*
X150700598Y-91716119D01*
X150700600Y-91716119D01*
X150705913Y-91717543D01*
X150934000Y-91737498D01*
X151162087Y-91717543D01*
X151167400Y-91716119D01*
X151167402Y-91716119D01*
X151377933Y-91659707D01*
X151377935Y-91659706D01*
X151383243Y-91658284D01*
X151425898Y-91638394D01*
X151585762Y-91563849D01*
X151585767Y-91563846D01*
X151590749Y-91561523D01*
X151695611Y-91488098D01*
X151773789Y-91433357D01*
X151773792Y-91433355D01*
X151778300Y-91430198D01*
X151940198Y-91268300D01*
X151944395Y-91262307D01*
X152019544Y-91154983D01*
X152071523Y-91080749D01*
X152073846Y-91075767D01*
X152073849Y-91075762D01*
X152165961Y-90878225D01*
X152165961Y-90878224D01*
X152168284Y-90873243D01*
X152174805Y-90848909D01*
X152226119Y-90657402D01*
X152226119Y-90657400D01*
X152227543Y-90652087D01*
X152247498Y-90424000D01*
X157240502Y-90424000D01*
X157260457Y-90652087D01*
X157261881Y-90657400D01*
X157261881Y-90657402D01*
X157313196Y-90848909D01*
X157319716Y-90873243D01*
X157322039Y-90878224D01*
X157322039Y-90878225D01*
X157414151Y-91075762D01*
X157414154Y-91075767D01*
X157416477Y-91080749D01*
X157468456Y-91154983D01*
X157543606Y-91262307D01*
X157547802Y-91268300D01*
X157709700Y-91430198D01*
X157714208Y-91433355D01*
X157714211Y-91433357D01*
X157792389Y-91488098D01*
X157897251Y-91561523D01*
X157902233Y-91563846D01*
X157902238Y-91563849D01*
X158062102Y-91638394D01*
X158104757Y-91658284D01*
X158110065Y-91659706D01*
X158110067Y-91659707D01*
X158320598Y-91716119D01*
X158320600Y-91716119D01*
X158325913Y-91717543D01*
X158554000Y-91737498D01*
X158782087Y-91717543D01*
X158787400Y-91716119D01*
X158787402Y-91716119D01*
X158997933Y-91659707D01*
X158997935Y-91659706D01*
X159003243Y-91658284D01*
X159045898Y-91638394D01*
X159205762Y-91563849D01*
X159205767Y-91563846D01*
X159210749Y-91561523D01*
X159315611Y-91488098D01*
X159393789Y-91433357D01*
X159393792Y-91433355D01*
X159398300Y-91430198D01*
X159560198Y-91268300D01*
X159564395Y-91262307D01*
X159639544Y-91154983D01*
X159691523Y-91080749D01*
X159693846Y-91075767D01*
X159693849Y-91075762D01*
X159785961Y-90878225D01*
X159785961Y-90878224D01*
X159788284Y-90873243D01*
X159794805Y-90848909D01*
X159846119Y-90657402D01*
X159846119Y-90657400D01*
X159847543Y-90652087D01*
X159867498Y-90424000D01*
X159847543Y-90195913D01*
X159843493Y-90180797D01*
X159789707Y-89980067D01*
X159789706Y-89980065D01*
X159788284Y-89974757D01*
X159785961Y-89969775D01*
X159693849Y-89772238D01*
X159693846Y-89772233D01*
X159691523Y-89767251D01*
X159560198Y-89579700D01*
X159398300Y-89417802D01*
X159393792Y-89414645D01*
X159393789Y-89414643D01*
X159315611Y-89359902D01*
X159210749Y-89286477D01*
X159205767Y-89284154D01*
X159205762Y-89284151D01*
X159008225Y-89192039D01*
X159008224Y-89192039D01*
X159003243Y-89189716D01*
X158997935Y-89188294D01*
X158997933Y-89188293D01*
X158787402Y-89131881D01*
X158787400Y-89131881D01*
X158782087Y-89130457D01*
X158554000Y-89110502D01*
X158325913Y-89130457D01*
X158320600Y-89131881D01*
X158320598Y-89131881D01*
X158110067Y-89188293D01*
X158110065Y-89188294D01*
X158104757Y-89189716D01*
X158099776Y-89192039D01*
X158099775Y-89192039D01*
X157902238Y-89284151D01*
X157902233Y-89284154D01*
X157897251Y-89286477D01*
X157792389Y-89359902D01*
X157714211Y-89414643D01*
X157714208Y-89414645D01*
X157709700Y-89417802D01*
X157547802Y-89579700D01*
X157416477Y-89767251D01*
X157414154Y-89772233D01*
X157414151Y-89772238D01*
X157322039Y-89969775D01*
X157319716Y-89974757D01*
X157318294Y-89980065D01*
X157318293Y-89980067D01*
X157264507Y-90180797D01*
X157260457Y-90195913D01*
X157240502Y-90424000D01*
X152247498Y-90424000D01*
X152227543Y-90195913D01*
X152223493Y-90180797D01*
X152169707Y-89980067D01*
X152169706Y-89980065D01*
X152168284Y-89974757D01*
X152165961Y-89969775D01*
X152073849Y-89772238D01*
X152073846Y-89772233D01*
X152071523Y-89767251D01*
X151940198Y-89579700D01*
X151778300Y-89417802D01*
X151773792Y-89414645D01*
X151773789Y-89414643D01*
X151695611Y-89359902D01*
X151590749Y-89286477D01*
X151585767Y-89284154D01*
X151585762Y-89284151D01*
X151388225Y-89192039D01*
X151388224Y-89192039D01*
X151383243Y-89189716D01*
X151377935Y-89188294D01*
X151377933Y-89188293D01*
X151167402Y-89131881D01*
X151167400Y-89131881D01*
X151162087Y-89130457D01*
X150934000Y-89110502D01*
X150705913Y-89130457D01*
X150700600Y-89131881D01*
X150700598Y-89131881D01*
X150490067Y-89188293D01*
X150490065Y-89188294D01*
X150484757Y-89189716D01*
X150479776Y-89192039D01*
X150479775Y-89192039D01*
X150282238Y-89284151D01*
X150282233Y-89284154D01*
X150277251Y-89286477D01*
X150172389Y-89359902D01*
X150094211Y-89414643D01*
X150094208Y-89414645D01*
X150089700Y-89417802D01*
X149927802Y-89579700D01*
X149796477Y-89767251D01*
X149794154Y-89772233D01*
X149794151Y-89772238D01*
X149702039Y-89969775D01*
X149699716Y-89974757D01*
X149698294Y-89980065D01*
X149698293Y-89980067D01*
X149644507Y-90180797D01*
X149640457Y-90195913D01*
X149620502Y-90424000D01*
X145077498Y-90424000D01*
X145057543Y-90195913D01*
X145053493Y-90180797D01*
X144999707Y-89980067D01*
X144999706Y-89980065D01*
X144998284Y-89974757D01*
X144995961Y-89969775D01*
X144903849Y-89772238D01*
X144903846Y-89772233D01*
X144901523Y-89767251D01*
X144770198Y-89579700D01*
X144608300Y-89417802D01*
X144603792Y-89414645D01*
X144603789Y-89414643D01*
X144525611Y-89359902D01*
X144420749Y-89286477D01*
X144415767Y-89284154D01*
X144415762Y-89284151D01*
X144381543Y-89268195D01*
X144328258Y-89221278D01*
X144308797Y-89153001D01*
X144329339Y-89085041D01*
X144381543Y-89039805D01*
X144415762Y-89023849D01*
X144415767Y-89023846D01*
X144420749Y-89021523D01*
X144525611Y-88948098D01*
X144603789Y-88893357D01*
X144603792Y-88893355D01*
X144608300Y-88890198D01*
X144770198Y-88728300D01*
X144774673Y-88721910D01*
X144898366Y-88545257D01*
X144901523Y-88540749D01*
X144903846Y-88535767D01*
X144903849Y-88535762D01*
X144995961Y-88338225D01*
X144995961Y-88338224D01*
X144998284Y-88333243D01*
X145057543Y-88112087D01*
X145077498Y-87884000D01*
X145073608Y-87839531D01*
X145069668Y-87794500D01*
X145057543Y-87655913D01*
X145054899Y-87646045D01*
X144999707Y-87440067D01*
X144999706Y-87440065D01*
X144998284Y-87434757D01*
X144992523Y-87422402D01*
X144903849Y-87232238D01*
X144903846Y-87232233D01*
X144901523Y-87227251D01*
X144821475Y-87112931D01*
X144773357Y-87044211D01*
X144773355Y-87044208D01*
X144770198Y-87039700D01*
X144608300Y-86877802D01*
X144603792Y-86874645D01*
X144603789Y-86874643D01*
X144461151Y-86774767D01*
X144420749Y-86746477D01*
X144415767Y-86744154D01*
X144415762Y-86744151D01*
X144409004Y-86741000D01*
X150070502Y-86741000D01*
X150090457Y-86969087D01*
X150091881Y-86974400D01*
X150091881Y-86974402D01*
X150145042Y-87172798D01*
X150149716Y-87190243D01*
X150152039Y-87195224D01*
X150152039Y-87195225D01*
X150244151Y-87392762D01*
X150244154Y-87392767D01*
X150246477Y-87397749D01*
X150295217Y-87467357D01*
X150357537Y-87556358D01*
X150377802Y-87585300D01*
X150539700Y-87747198D01*
X150544208Y-87750355D01*
X150544211Y-87750357D01*
X150604322Y-87792447D01*
X150727251Y-87878523D01*
X150732233Y-87880846D01*
X150732238Y-87880849D01*
X150876533Y-87948134D01*
X150934757Y-87975284D01*
X150940065Y-87976706D01*
X150940067Y-87976707D01*
X151150598Y-88033119D01*
X151150600Y-88033119D01*
X151155913Y-88034543D01*
X151384000Y-88054498D01*
X151612087Y-88034543D01*
X151617400Y-88033119D01*
X151617402Y-88033119D01*
X151827933Y-87976707D01*
X151827935Y-87976706D01*
X151833243Y-87975284D01*
X151891467Y-87948134D01*
X152035762Y-87880849D01*
X152035767Y-87880846D01*
X152040749Y-87878523D01*
X152163678Y-87792447D01*
X152223789Y-87750357D01*
X152223792Y-87750355D01*
X152228300Y-87747198D01*
X152390198Y-87585300D01*
X152410464Y-87556358D01*
X152472783Y-87467357D01*
X152521523Y-87397749D01*
X152523846Y-87392767D01*
X152523849Y-87392762D01*
X152615961Y-87195225D01*
X152615961Y-87195224D01*
X152618284Y-87190243D01*
X152622959Y-87172798D01*
X152676119Y-86974402D01*
X152676119Y-86974400D01*
X152677543Y-86969087D01*
X152697498Y-86741000D01*
X152677543Y-86512913D01*
X152656191Y-86433225D01*
X152619707Y-86297067D01*
X152619706Y-86297065D01*
X152618284Y-86291757D01*
X152615961Y-86286775D01*
X152523849Y-86089238D01*
X152523846Y-86089233D01*
X152521523Y-86084251D01*
X152390198Y-85896700D01*
X152228300Y-85734802D01*
X152223792Y-85731645D01*
X152223789Y-85731643D01*
X152112450Y-85653683D01*
X152040749Y-85603477D01*
X152035767Y-85601154D01*
X152035762Y-85601151D01*
X151838225Y-85509039D01*
X151838224Y-85509039D01*
X151833243Y-85506716D01*
X151827935Y-85505294D01*
X151827933Y-85505293D01*
X151617402Y-85448881D01*
X151617400Y-85448881D01*
X151612087Y-85447457D01*
X151384000Y-85427502D01*
X151155913Y-85447457D01*
X151150600Y-85448881D01*
X151150598Y-85448881D01*
X150940067Y-85505293D01*
X150940065Y-85505294D01*
X150934757Y-85506716D01*
X150929776Y-85509039D01*
X150929775Y-85509039D01*
X150732238Y-85601151D01*
X150732233Y-85601154D01*
X150727251Y-85603477D01*
X150655550Y-85653683D01*
X150544211Y-85731643D01*
X150544208Y-85731645D01*
X150539700Y-85734802D01*
X150377802Y-85896700D01*
X150246477Y-86084251D01*
X150244154Y-86089233D01*
X150244151Y-86089238D01*
X150152039Y-86286775D01*
X150149716Y-86291757D01*
X150148294Y-86297065D01*
X150148293Y-86297067D01*
X150111809Y-86433225D01*
X150090457Y-86512913D01*
X150070502Y-86741000D01*
X144409004Y-86741000D01*
X144381543Y-86728195D01*
X144328258Y-86681278D01*
X144308797Y-86613001D01*
X144329339Y-86545041D01*
X144381543Y-86499805D01*
X144415762Y-86483849D01*
X144415767Y-86483846D01*
X144420749Y-86481523D01*
X144525611Y-86408098D01*
X144603789Y-86353357D01*
X144603792Y-86353355D01*
X144608300Y-86350198D01*
X144770198Y-86188300D01*
X144901523Y-86000749D01*
X144903846Y-85995767D01*
X144903849Y-85995762D01*
X144995961Y-85798225D01*
X144995961Y-85798224D01*
X144998284Y-85793243D01*
X145009627Y-85750913D01*
X145056119Y-85577402D01*
X145056119Y-85577400D01*
X145057543Y-85572087D01*
X145077498Y-85344000D01*
X145057543Y-85115913D01*
X145050600Y-85090000D01*
X144999707Y-84900067D01*
X144999706Y-84900065D01*
X144998284Y-84894757D01*
X144975114Y-84845069D01*
X144903849Y-84692238D01*
X144903846Y-84692233D01*
X144901523Y-84687251D01*
X144816889Y-84566382D01*
X144773357Y-84504211D01*
X144773355Y-84504208D01*
X144770198Y-84499700D01*
X144608300Y-84337802D01*
X144603792Y-84334645D01*
X144603789Y-84334643D01*
X144525611Y-84279902D01*
X144420749Y-84206477D01*
X144415767Y-84204154D01*
X144415762Y-84204151D01*
X144381543Y-84188195D01*
X144328258Y-84141278D01*
X144308797Y-84073001D01*
X144329339Y-84005041D01*
X144381543Y-83959805D01*
X144415762Y-83943849D01*
X144415767Y-83943846D01*
X144420749Y-83941523D01*
X144564105Y-83841144D01*
X144603789Y-83813357D01*
X144603792Y-83813355D01*
X144608300Y-83810198D01*
X144770198Y-83648300D01*
X144901523Y-83460749D01*
X144903846Y-83455767D01*
X144903849Y-83455762D01*
X144995961Y-83258225D01*
X144995961Y-83258224D01*
X144998284Y-83253243D01*
X145003096Y-83235287D01*
X145056119Y-83037402D01*
X145056119Y-83037400D01*
X145057543Y-83032087D01*
X145059720Y-83007200D01*
X158325502Y-83007200D01*
X158345457Y-83235287D01*
X158346881Y-83240600D01*
X158346881Y-83240602D01*
X158350264Y-83253225D01*
X158404716Y-83456443D01*
X158407039Y-83461424D01*
X158407039Y-83461425D01*
X158499151Y-83658962D01*
X158499154Y-83658967D01*
X158501477Y-83663949D01*
X158554722Y-83739990D01*
X158625551Y-83841144D01*
X158632802Y-83851500D01*
X158794700Y-84013398D01*
X158799208Y-84016555D01*
X158799211Y-84016557D01*
X158951771Y-84123381D01*
X158996099Y-84178838D01*
X159005500Y-84226594D01*
X159005500Y-87555333D01*
X159004973Y-87566516D01*
X159003298Y-87574009D01*
X159003547Y-87581935D01*
X159003547Y-87581936D01*
X159005438Y-87642086D01*
X159005500Y-87646045D01*
X159005500Y-87673956D01*
X159005997Y-87677890D01*
X159005997Y-87677891D01*
X159006005Y-87677956D01*
X159006938Y-87689793D01*
X159008327Y-87733989D01*
X159013978Y-87753439D01*
X159017987Y-87772800D01*
X159020526Y-87792897D01*
X159023445Y-87800268D01*
X159023445Y-87800270D01*
X159036804Y-87834012D01*
X159040649Y-87845242D01*
X159050318Y-87878523D01*
X159052982Y-87887693D01*
X159057015Y-87894512D01*
X159057017Y-87894517D01*
X159063293Y-87905128D01*
X159071988Y-87922876D01*
X159079448Y-87941717D01*
X159084110Y-87948133D01*
X159084110Y-87948134D01*
X159105436Y-87977487D01*
X159111952Y-87987407D01*
X159134458Y-88025462D01*
X159148779Y-88039783D01*
X159161619Y-88054816D01*
X159173528Y-88071207D01*
X159179634Y-88076258D01*
X159207605Y-88099398D01*
X159216384Y-88107388D01*
X162230043Y-91121047D01*
X162237587Y-91129337D01*
X162241700Y-91135818D01*
X162247477Y-91141243D01*
X162291367Y-91182458D01*
X162294209Y-91185213D01*
X162313931Y-91204935D01*
X162317073Y-91207372D01*
X162317133Y-91207419D01*
X162326145Y-91215117D01*
X162351736Y-91239147D01*
X162358379Y-91245386D01*
X162365322Y-91249203D01*
X162376131Y-91255145D01*
X162392653Y-91265998D01*
X162408659Y-91278414D01*
X162415937Y-91281564D01*
X162415938Y-91281564D01*
X162449237Y-91295974D01*
X162459887Y-91301191D01*
X162498640Y-91322495D01*
X162499257Y-91322654D01*
X162552676Y-91364332D01*
X162568301Y-91393582D01*
X162580567Y-91426301D01*
X162608385Y-91500505D01*
X162695739Y-91617061D01*
X162812295Y-91704415D01*
X162948684Y-91755545D01*
X163010866Y-91762300D01*
X164607134Y-91762300D01*
X164669316Y-91755545D01*
X164805705Y-91704415D01*
X164922261Y-91617061D01*
X165009615Y-91500505D01*
X165060745Y-91364116D01*
X165067500Y-91301934D01*
X165067500Y-90155666D01*
X165060745Y-90093484D01*
X165023462Y-89994031D01*
X165012768Y-89965504D01*
X165012766Y-89965501D01*
X165009615Y-89957095D01*
X165004227Y-89949906D01*
X165004094Y-89949663D01*
X164988924Y-89880306D01*
X164994248Y-89851892D01*
X165049468Y-89673506D01*
X165051290Y-89667620D01*
X165060941Y-89575803D01*
X165071832Y-89472178D01*
X165071832Y-89472177D01*
X165072476Y-89466050D01*
X165063155Y-89363631D01*
X165054665Y-89270343D01*
X165054664Y-89270340D01*
X165054106Y-89264204D01*
X165030712Y-89184716D01*
X164998620Y-89075680D01*
X164996881Y-89069771D01*
X164994027Y-89064311D01*
X164905838Y-88895619D01*
X164905835Y-88895615D01*
X164902981Y-88890155D01*
X164902779Y-88889903D01*
X164882799Y-88823888D01*
X164897959Y-88762915D01*
X164987962Y-88596458D01*
X164992714Y-88585153D01*
X165031422Y-88460108D01*
X165031628Y-88446005D01*
X165024873Y-88442800D01*
X164255242Y-88442800D01*
X164241197Y-88442015D01*
X164226799Y-88440400D01*
X164092183Y-88425300D01*
X163532996Y-88425300D01*
X163382287Y-88440077D01*
X163379998Y-88440768D01*
X163359276Y-88442800D01*
X162600014Y-88442800D01*
X162586483Y-88446773D01*
X162585363Y-88454568D01*
X162619846Y-88571732D01*
X162624439Y-88583100D01*
X162712584Y-88751707D01*
X162714597Y-88754783D01*
X162715154Y-88756622D01*
X162715440Y-88757170D01*
X162715336Y-88757224D01*
X162735161Y-88822736D01*
X162720001Y-88883706D01*
X162626644Y-89056365D01*
X162604816Y-89126881D01*
X162586194Y-89187039D01*
X162566710Y-89249980D01*
X162563119Y-89284151D01*
X162554765Y-89363631D01*
X162527752Y-89429288D01*
X162469530Y-89469918D01*
X162398585Y-89472621D01*
X162340360Y-89439556D01*
X161405082Y-88504277D01*
X160832400Y-87931595D01*
X162586372Y-87931595D01*
X162593127Y-87934800D01*
X163536885Y-87934800D01*
X163552124Y-87930325D01*
X163553329Y-87928935D01*
X163555000Y-87921252D01*
X163555000Y-87916685D01*
X164063000Y-87916685D01*
X164067475Y-87931924D01*
X164068865Y-87933129D01*
X164076548Y-87934800D01*
X165017986Y-87934800D01*
X165031517Y-87930827D01*
X165032637Y-87923032D01*
X164998154Y-87805868D01*
X164993561Y-87794500D01*
X164905414Y-87625889D01*
X164898698Y-87615627D01*
X164779485Y-87467357D01*
X164770897Y-87458587D01*
X164625162Y-87336301D01*
X164615031Y-87329363D01*
X164448308Y-87237706D01*
X164437038Y-87232876D01*
X164255685Y-87175348D01*
X164243691Y-87172798D01*
X164095650Y-87156193D01*
X164088626Y-87155800D01*
X164081115Y-87155800D01*
X164065876Y-87160275D01*
X164064671Y-87161665D01*
X164063000Y-87169348D01*
X164063000Y-87916685D01*
X163555000Y-87916685D01*
X163555000Y-87173915D01*
X163550525Y-87158676D01*
X163549135Y-87157471D01*
X163541452Y-87155800D01*
X163536110Y-87155800D01*
X163529965Y-87156100D01*
X163388519Y-87169970D01*
X163376481Y-87172353D01*
X163194349Y-87227342D01*
X163183007Y-87232017D01*
X163015023Y-87321335D01*
X163004807Y-87328122D01*
X162857366Y-87448372D01*
X162848662Y-87457016D01*
X162727390Y-87603609D01*
X162720530Y-87613780D01*
X162630038Y-87781142D01*
X162625286Y-87792447D01*
X162586578Y-87917492D01*
X162586372Y-87931595D01*
X160832400Y-87931595D01*
X160309405Y-87408600D01*
X160275379Y-87346288D01*
X160272500Y-87319505D01*
X160272500Y-84226594D01*
X160292502Y-84158473D01*
X160326229Y-84123381D01*
X160478789Y-84016557D01*
X160478792Y-84016555D01*
X160483300Y-84013398D01*
X160645198Y-83851500D01*
X160652450Y-83841144D01*
X160723278Y-83739990D01*
X160776523Y-83663949D01*
X160778846Y-83658967D01*
X160778849Y-83658962D01*
X160870961Y-83461425D01*
X160870961Y-83461424D01*
X160873284Y-83456443D01*
X160927737Y-83253225D01*
X160931119Y-83240602D01*
X160931119Y-83240600D01*
X160932543Y-83235287D01*
X160952498Y-83007200D01*
X160932543Y-82779113D01*
X160900661Y-82660127D01*
X160874707Y-82563267D01*
X160874706Y-82563265D01*
X160873284Y-82557957D01*
X160834415Y-82474602D01*
X160778849Y-82355438D01*
X160778846Y-82355433D01*
X160776523Y-82350451D01*
X160645198Y-82162900D01*
X160483300Y-82001002D01*
X160478792Y-81997845D01*
X160478789Y-81997843D01*
X160355671Y-81911635D01*
X160295749Y-81869677D01*
X160290767Y-81867354D01*
X160290762Y-81867351D01*
X160093225Y-81775239D01*
X160093224Y-81775239D01*
X160088243Y-81772916D01*
X160082935Y-81771494D01*
X160082933Y-81771493D01*
X159872402Y-81715081D01*
X159872400Y-81715081D01*
X159867087Y-81713657D01*
X159639000Y-81693702D01*
X159410913Y-81713657D01*
X159405600Y-81715081D01*
X159405598Y-81715081D01*
X159195067Y-81771493D01*
X159195065Y-81771494D01*
X159189757Y-81772916D01*
X159184776Y-81775239D01*
X159184775Y-81775239D01*
X158987238Y-81867351D01*
X158987233Y-81867354D01*
X158982251Y-81869677D01*
X158922329Y-81911635D01*
X158799211Y-81997843D01*
X158799208Y-81997845D01*
X158794700Y-82001002D01*
X158632802Y-82162900D01*
X158501477Y-82350451D01*
X158499154Y-82355433D01*
X158499151Y-82355438D01*
X158443585Y-82474602D01*
X158404716Y-82557957D01*
X158403294Y-82563265D01*
X158403293Y-82563267D01*
X158377339Y-82660127D01*
X158345457Y-82779113D01*
X158325502Y-83007200D01*
X145059720Y-83007200D01*
X145077498Y-82804000D01*
X145057543Y-82575913D01*
X145054499Y-82564551D01*
X144999707Y-82360067D01*
X144999706Y-82360065D01*
X144998284Y-82354757D01*
X144995961Y-82349775D01*
X144903849Y-82152238D01*
X144903846Y-82152233D01*
X144901523Y-82147251D01*
X144770198Y-81959700D01*
X144608300Y-81797802D01*
X144603792Y-81794645D01*
X144603789Y-81794643D01*
X144500564Y-81722364D01*
X144420749Y-81666477D01*
X144415767Y-81664154D01*
X144415762Y-81664151D01*
X144381543Y-81648195D01*
X144328258Y-81601278D01*
X144308797Y-81533001D01*
X144329339Y-81465041D01*
X144381543Y-81419805D01*
X144415762Y-81403849D01*
X144415767Y-81403846D01*
X144420749Y-81401523D01*
X144602172Y-81274489D01*
X144603789Y-81273357D01*
X144603792Y-81273355D01*
X144608300Y-81270198D01*
X144770198Y-81108300D01*
X144777917Y-81097277D01*
X144898366Y-80925257D01*
X144901523Y-80920749D01*
X144903846Y-80915767D01*
X144903849Y-80915762D01*
X144995961Y-80718225D01*
X144995961Y-80718224D01*
X144998284Y-80713243D01*
X145032442Y-80585767D01*
X145056119Y-80497402D01*
X145056119Y-80497400D01*
X145057543Y-80492087D01*
X145077498Y-80264000D01*
X145057543Y-80035913D01*
X145056119Y-80030598D01*
X144999707Y-79820067D01*
X144999706Y-79820065D01*
X144998284Y-79814757D01*
X144966614Y-79746840D01*
X144903849Y-79612238D01*
X144903846Y-79612233D01*
X144901523Y-79607251D01*
X144770198Y-79419700D01*
X144608300Y-79257802D01*
X144603792Y-79254645D01*
X144603789Y-79254643D01*
X144518098Y-79194642D01*
X144420749Y-79126477D01*
X144415767Y-79124154D01*
X144415762Y-79124151D01*
X144409004Y-79121000D01*
X150070502Y-79121000D01*
X150090457Y-79349087D01*
X150091881Y-79354400D01*
X150091881Y-79354402D01*
X150147941Y-79563617D01*
X150149716Y-79570243D01*
X150152039Y-79575224D01*
X150152039Y-79575225D01*
X150244151Y-79772762D01*
X150244154Y-79772767D01*
X150246477Y-79777749D01*
X150319902Y-79882611D01*
X150368281Y-79951702D01*
X150377802Y-79965300D01*
X150539700Y-80127198D01*
X150544208Y-80130355D01*
X150544211Y-80130357D01*
X150591319Y-80163342D01*
X150727251Y-80258523D01*
X150732233Y-80260846D01*
X150732238Y-80260849D01*
X150929775Y-80352961D01*
X150934757Y-80355284D01*
X150940065Y-80356706D01*
X150940067Y-80356707D01*
X151150598Y-80413119D01*
X151150600Y-80413119D01*
X151155913Y-80414543D01*
X151384000Y-80434498D01*
X151612087Y-80414543D01*
X151617400Y-80413119D01*
X151617402Y-80413119D01*
X151827933Y-80356707D01*
X151827935Y-80356706D01*
X151833243Y-80355284D01*
X151838225Y-80352961D01*
X152035762Y-80260849D01*
X152035767Y-80260846D01*
X152040749Y-80258523D01*
X152176681Y-80163342D01*
X152223789Y-80130357D01*
X152223792Y-80130355D01*
X152228300Y-80127198D01*
X152390198Y-79965300D01*
X152399720Y-79951702D01*
X152448098Y-79882611D01*
X152521523Y-79777749D01*
X152523846Y-79772767D01*
X152523849Y-79772762D01*
X152615961Y-79575225D01*
X152615961Y-79575224D01*
X152618284Y-79570243D01*
X152620060Y-79563617D01*
X152676119Y-79354402D01*
X152676119Y-79354400D01*
X152677543Y-79349087D01*
X152697498Y-79121000D01*
X152677543Y-78892913D01*
X152674031Y-78879805D01*
X152619707Y-78677067D01*
X152619706Y-78677065D01*
X152618284Y-78671757D01*
X152579645Y-78588895D01*
X152523849Y-78469238D01*
X152523846Y-78469233D01*
X152521523Y-78464251D01*
X152407728Y-78301735D01*
X152393357Y-78281211D01*
X152393355Y-78281208D01*
X152390198Y-78276700D01*
X152228300Y-78114802D01*
X152223792Y-78111645D01*
X152223789Y-78111643D01*
X152070507Y-78004314D01*
X152040749Y-77983477D01*
X152035767Y-77981154D01*
X152035762Y-77981151D01*
X151838225Y-77889039D01*
X151838224Y-77889039D01*
X151833243Y-77886716D01*
X151827935Y-77885294D01*
X151827933Y-77885293D01*
X151617402Y-77828881D01*
X151617400Y-77828881D01*
X151612087Y-77827457D01*
X151384000Y-77807502D01*
X151155913Y-77827457D01*
X151150600Y-77828881D01*
X151150598Y-77828881D01*
X150940067Y-77885293D01*
X150940065Y-77885294D01*
X150934757Y-77886716D01*
X150929776Y-77889039D01*
X150929775Y-77889039D01*
X150732238Y-77981151D01*
X150732233Y-77981154D01*
X150727251Y-77983477D01*
X150697493Y-78004314D01*
X150544211Y-78111643D01*
X150544208Y-78111645D01*
X150539700Y-78114802D01*
X150377802Y-78276700D01*
X150374645Y-78281208D01*
X150374643Y-78281211D01*
X150360272Y-78301735D01*
X150246477Y-78464251D01*
X150244154Y-78469233D01*
X150244151Y-78469238D01*
X150188355Y-78588895D01*
X150149716Y-78671757D01*
X150148294Y-78677065D01*
X150148293Y-78677067D01*
X150093969Y-78879805D01*
X150090457Y-78892913D01*
X150070502Y-79121000D01*
X144409004Y-79121000D01*
X144381543Y-79108195D01*
X144328258Y-79061278D01*
X144308797Y-78993001D01*
X144329339Y-78925041D01*
X144381543Y-78879805D01*
X144415762Y-78863849D01*
X144415767Y-78863846D01*
X144420749Y-78861523D01*
X144562458Y-78762297D01*
X144603789Y-78733357D01*
X144603792Y-78733355D01*
X144608300Y-78730198D01*
X144770198Y-78568300D01*
X144778097Y-78557020D01*
X144859562Y-78440675D01*
X144901523Y-78380749D01*
X144903846Y-78375767D01*
X144903849Y-78375762D01*
X144995961Y-78178225D01*
X144995961Y-78178224D01*
X144998284Y-78173243D01*
X145012781Y-78119142D01*
X145056119Y-77957402D01*
X145056119Y-77957400D01*
X145057543Y-77952087D01*
X145077498Y-77724000D01*
X145057543Y-77495913D01*
X145048591Y-77462504D01*
X144999707Y-77280067D01*
X144999706Y-77280065D01*
X144998284Y-77274757D01*
X144980566Y-77236760D01*
X144903849Y-77072238D01*
X144903846Y-77072233D01*
X144901523Y-77067251D01*
X144770198Y-76879700D01*
X144608300Y-76717802D01*
X144603792Y-76714645D01*
X144603789Y-76714643D01*
X144481899Y-76629295D01*
X144420749Y-76586477D01*
X144415767Y-76584154D01*
X144415762Y-76584151D01*
X144218225Y-76492039D01*
X144218224Y-76492039D01*
X144213243Y-76489716D01*
X144207935Y-76488294D01*
X144207933Y-76488293D01*
X143997402Y-76431881D01*
X143997400Y-76431881D01*
X143992087Y-76430457D01*
X143764000Y-76410502D01*
X143535913Y-76430457D01*
X143530600Y-76431881D01*
X143530598Y-76431881D01*
X143320067Y-76488293D01*
X143320065Y-76488294D01*
X143314757Y-76489716D01*
X143309776Y-76492039D01*
X143309775Y-76492039D01*
X143112238Y-76584151D01*
X143112233Y-76584154D01*
X143107251Y-76586477D01*
X143046101Y-76629295D01*
X142924211Y-76714643D01*
X142924208Y-76714645D01*
X142919700Y-76717802D01*
X142757802Y-76879700D01*
X142626477Y-77067251D01*
X142624154Y-77072233D01*
X142624151Y-77072238D01*
X142547434Y-77236760D01*
X142529716Y-77274757D01*
X142528294Y-77280065D01*
X142528293Y-77280067D01*
X142479409Y-77462504D01*
X142470457Y-77495913D01*
X142450502Y-77724000D01*
X142470457Y-77952087D01*
X142471881Y-77957400D01*
X142471881Y-77957402D01*
X142515220Y-78119142D01*
X142529716Y-78173243D01*
X142532039Y-78178224D01*
X142532039Y-78178225D01*
X142624151Y-78375762D01*
X142624154Y-78375767D01*
X142626477Y-78380749D01*
X142668438Y-78440675D01*
X142749904Y-78557020D01*
X142757802Y-78568300D01*
X142919700Y-78730198D01*
X142924208Y-78733355D01*
X142924211Y-78733357D01*
X142965542Y-78762297D01*
X143107251Y-78861523D01*
X143112233Y-78863846D01*
X143112238Y-78863849D01*
X143146457Y-78879805D01*
X143199742Y-78926722D01*
X143219203Y-78994999D01*
X143198661Y-79062959D01*
X143146457Y-79108195D01*
X143112238Y-79124151D01*
X143112233Y-79124154D01*
X143107251Y-79126477D01*
X143009902Y-79194642D01*
X142924211Y-79254643D01*
X142924208Y-79254645D01*
X142919700Y-79257802D01*
X142757802Y-79419700D01*
X142626477Y-79607251D01*
X142624154Y-79612233D01*
X142624151Y-79612238D01*
X142561386Y-79746840D01*
X142529716Y-79814757D01*
X142528294Y-79820065D01*
X142528293Y-79820067D01*
X142471881Y-80030598D01*
X142470457Y-80035913D01*
X142450502Y-80264000D01*
X142470457Y-80492087D01*
X142471881Y-80497400D01*
X142471881Y-80497402D01*
X142495559Y-80585767D01*
X142529716Y-80713243D01*
X142532039Y-80718224D01*
X142532039Y-80718225D01*
X142624151Y-80915762D01*
X142624154Y-80915767D01*
X142626477Y-80920749D01*
X142629634Y-80925257D01*
X142750084Y-81097277D01*
X142757802Y-81108300D01*
X142919700Y-81270198D01*
X142924208Y-81273355D01*
X142924211Y-81273357D01*
X142925828Y-81274489D01*
X143107251Y-81401523D01*
X143112233Y-81403846D01*
X143112238Y-81403849D01*
X143146457Y-81419805D01*
X143199742Y-81466722D01*
X143219203Y-81534999D01*
X143198661Y-81602959D01*
X143146457Y-81648195D01*
X143112238Y-81664151D01*
X143112233Y-81664154D01*
X143107251Y-81666477D01*
X143027436Y-81722364D01*
X142924211Y-81794643D01*
X142924208Y-81794645D01*
X142919700Y-81797802D01*
X142757802Y-81959700D01*
X142626477Y-82147251D01*
X142624154Y-82152233D01*
X142624151Y-82152238D01*
X142532039Y-82349775D01*
X142529716Y-82354757D01*
X142528294Y-82360065D01*
X142528293Y-82360067D01*
X142473501Y-82564551D01*
X142470457Y-82575913D01*
X142450502Y-82804000D01*
X142470457Y-83032087D01*
X142471881Y-83037400D01*
X142471881Y-83037402D01*
X142524905Y-83235287D01*
X142529716Y-83253243D01*
X142532039Y-83258224D01*
X142532039Y-83258225D01*
X142624151Y-83455762D01*
X142624154Y-83455767D01*
X142626477Y-83460749D01*
X142757802Y-83648300D01*
X142919700Y-83810198D01*
X142924208Y-83813355D01*
X142924211Y-83813357D01*
X142963895Y-83841144D01*
X143107251Y-83941523D01*
X143112233Y-83943846D01*
X143112238Y-83943849D01*
X143146457Y-83959805D01*
X143199742Y-84006722D01*
X143219203Y-84074999D01*
X143198661Y-84142959D01*
X143146457Y-84188195D01*
X143112238Y-84204151D01*
X143112233Y-84204154D01*
X143107251Y-84206477D01*
X143002389Y-84279902D01*
X142924211Y-84334643D01*
X142924208Y-84334645D01*
X142919700Y-84337802D01*
X142757802Y-84499700D01*
X142754645Y-84504208D01*
X142754643Y-84504211D01*
X142711111Y-84566382D01*
X142626477Y-84687251D01*
X142624154Y-84692233D01*
X142624151Y-84692238D01*
X142552886Y-84845069D01*
X142529716Y-84894757D01*
X142528294Y-84900065D01*
X142528293Y-84900067D01*
X142477400Y-85090000D01*
X142470457Y-85115913D01*
X142450502Y-85344000D01*
X142470457Y-85572087D01*
X142471881Y-85577400D01*
X142471881Y-85577402D01*
X142518374Y-85750913D01*
X142529716Y-85793243D01*
X142532039Y-85798224D01*
X142532039Y-85798225D01*
X142624151Y-85995762D01*
X142624154Y-85995767D01*
X142626477Y-86000749D01*
X142757802Y-86188300D01*
X142919700Y-86350198D01*
X142924208Y-86353355D01*
X142924211Y-86353357D01*
X143002389Y-86408098D01*
X143107251Y-86481523D01*
X143112233Y-86483846D01*
X143112238Y-86483849D01*
X143146457Y-86499805D01*
X143199742Y-86546722D01*
X143219203Y-86614999D01*
X143198661Y-86682959D01*
X143146457Y-86728195D01*
X143112238Y-86744151D01*
X143112233Y-86744154D01*
X143107251Y-86746477D01*
X143066849Y-86774767D01*
X142924211Y-86874643D01*
X142924208Y-86874645D01*
X142919700Y-86877802D01*
X142757802Y-87039700D01*
X142754645Y-87044208D01*
X142754643Y-87044211D01*
X142706525Y-87112931D01*
X142626477Y-87227251D01*
X142624154Y-87232233D01*
X142624151Y-87232238D01*
X142535477Y-87422402D01*
X142529716Y-87434757D01*
X142528294Y-87440065D01*
X142528293Y-87440067D01*
X142473101Y-87646045D01*
X142470457Y-87655913D01*
X142458332Y-87794500D01*
X142454393Y-87839531D01*
X142450502Y-87884000D01*
X142470457Y-88112087D01*
X142529716Y-88333243D01*
X142532039Y-88338224D01*
X142532039Y-88338225D01*
X142624151Y-88535762D01*
X142624154Y-88535767D01*
X142626477Y-88540749D01*
X142629634Y-88545257D01*
X142753328Y-88721910D01*
X142757802Y-88728300D01*
X142919700Y-88890198D01*
X142924208Y-88893355D01*
X142924211Y-88893357D01*
X143002389Y-88948098D01*
X143107251Y-89021523D01*
X143112233Y-89023846D01*
X143112238Y-89023849D01*
X143146457Y-89039805D01*
X143199742Y-89086722D01*
X143219203Y-89154999D01*
X143198661Y-89222959D01*
X143146457Y-89268195D01*
X143112238Y-89284151D01*
X143112233Y-89284154D01*
X143107251Y-89286477D01*
X143002389Y-89359902D01*
X142924211Y-89414643D01*
X142924208Y-89414645D01*
X142919700Y-89417802D01*
X142757802Y-89579700D01*
X142626477Y-89767251D01*
X142624154Y-89772233D01*
X142624151Y-89772238D01*
X142532039Y-89969775D01*
X142529716Y-89974757D01*
X142528294Y-89980065D01*
X142528293Y-89980067D01*
X142474507Y-90180797D01*
X142470457Y-90195913D01*
X142450502Y-90424000D01*
X142470457Y-90652087D01*
X142471881Y-90657400D01*
X142471881Y-90657402D01*
X142523196Y-90848909D01*
X142529716Y-90873243D01*
X142532039Y-90878224D01*
X142532039Y-90878225D01*
X142624151Y-91075762D01*
X142624154Y-91075767D01*
X142626477Y-91080749D01*
X142678456Y-91154983D01*
X142753606Y-91262307D01*
X142757802Y-91268300D01*
X142919700Y-91430198D01*
X142924208Y-91433355D01*
X142924211Y-91433357D01*
X143002389Y-91488098D01*
X143107251Y-91561523D01*
X143112233Y-91563846D01*
X143112238Y-91563849D01*
X143146457Y-91579805D01*
X143199742Y-91626722D01*
X143219203Y-91694999D01*
X143198661Y-91762959D01*
X143146457Y-91808195D01*
X143112238Y-91824151D01*
X143112233Y-91824154D01*
X143107251Y-91826477D01*
X143002389Y-91899902D01*
X142924211Y-91954643D01*
X142924208Y-91954645D01*
X142919700Y-91957802D01*
X142757802Y-92119700D01*
X142626477Y-92307251D01*
X142624154Y-92312233D01*
X142624151Y-92312238D01*
X142532039Y-92509775D01*
X142529716Y-92514757D01*
X142528294Y-92520065D01*
X142528293Y-92520067D01*
X142492318Y-92654328D01*
X142470457Y-92735913D01*
X142450502Y-92964000D01*
X142470457Y-93192087D01*
X142471881Y-93197400D01*
X142471881Y-93197402D01*
X142510660Y-93342124D01*
X142529716Y-93413243D01*
X142532039Y-93418224D01*
X142532039Y-93418225D01*
X142624151Y-93615762D01*
X142624154Y-93615767D01*
X142626477Y-93620749D01*
X142757802Y-93808300D01*
X142919700Y-93970198D01*
X142924208Y-93973355D01*
X142924211Y-93973357D01*
X142985793Y-94016477D01*
X143107251Y-94101523D01*
X143112233Y-94103846D01*
X143112238Y-94103849D01*
X143146457Y-94119805D01*
X143199742Y-94166722D01*
X143219203Y-94234999D01*
X143198661Y-94302959D01*
X143146457Y-94348195D01*
X143112238Y-94364151D01*
X143112233Y-94364154D01*
X143107251Y-94366477D01*
X143016097Y-94430304D01*
X142924211Y-94494643D01*
X142924208Y-94494645D01*
X142919700Y-94497802D01*
X142757802Y-94659700D01*
X142754645Y-94664208D01*
X142754643Y-94664211D01*
X142742543Y-94681492D01*
X142626477Y-94847251D01*
X142624154Y-94852233D01*
X142624151Y-94852238D01*
X142550268Y-95010683D01*
X142529716Y-95054757D01*
X142528294Y-95060065D01*
X142528293Y-95060067D01*
X142513210Y-95116357D01*
X142470457Y-95275913D01*
X142450502Y-95504000D01*
X142470457Y-95732087D01*
X142471881Y-95737400D01*
X142471881Y-95737402D01*
X142520120Y-95917429D01*
X142529716Y-95953243D01*
X142532039Y-95958224D01*
X142532039Y-95958225D01*
X142624151Y-96155762D01*
X142624154Y-96155767D01*
X142626477Y-96160749D01*
X142629634Y-96165257D01*
X142749498Y-96336440D01*
X142757802Y-96348300D01*
X142919700Y-96510198D01*
X142924208Y-96513355D01*
X142924211Y-96513357D01*
X142993912Y-96562162D01*
X143107251Y-96641523D01*
X143112233Y-96643846D01*
X143112238Y-96643849D01*
X143146457Y-96659805D01*
X143199742Y-96706722D01*
X143219203Y-96774999D01*
X143198661Y-96842959D01*
X143146457Y-96888195D01*
X143112238Y-96904151D01*
X143112233Y-96904154D01*
X143107251Y-96906477D01*
X143002389Y-96979902D01*
X142924211Y-97034643D01*
X142924208Y-97034645D01*
X142919700Y-97037802D01*
X142757802Y-97199700D01*
X142754645Y-97204208D01*
X142754643Y-97204211D01*
X142740858Y-97223898D01*
X142626477Y-97387251D01*
X142624154Y-97392233D01*
X142624151Y-97392238D01*
X142596337Y-97451886D01*
X142529716Y-97594757D01*
X142470457Y-97815913D01*
X142450502Y-98044000D01*
X142470457Y-98272087D01*
X142471881Y-98277400D01*
X142471881Y-98277402D01*
X142524836Y-98475029D01*
X142529716Y-98493243D01*
X142532039Y-98498224D01*
X142532039Y-98498225D01*
X142624151Y-98695762D01*
X142624154Y-98695767D01*
X142626477Y-98700749D01*
X142629634Y-98705257D01*
X142740566Y-98863684D01*
X142757802Y-98888300D01*
X142919700Y-99050198D01*
X142924208Y-99053355D01*
X142924211Y-99053357D01*
X143002389Y-99108098D01*
X143107251Y-99181523D01*
X143112233Y-99183846D01*
X143112238Y-99183849D01*
X143146457Y-99199805D01*
X143199742Y-99246722D01*
X143219203Y-99314999D01*
X143198661Y-99382959D01*
X143146457Y-99428195D01*
X143112238Y-99444151D01*
X143112233Y-99444154D01*
X143107251Y-99446477D01*
X143055565Y-99482668D01*
X142924211Y-99574643D01*
X142924208Y-99574645D01*
X142919700Y-99577802D01*
X142757802Y-99739700D01*
X142626477Y-99927251D01*
X142624154Y-99932233D01*
X142624151Y-99932238D01*
X142534290Y-100124947D01*
X142529716Y-100134757D01*
X142528294Y-100140065D01*
X142528293Y-100140067D01*
X142482370Y-100311452D01*
X142470457Y-100355913D01*
X142450502Y-100584000D01*
X116078000Y-100584000D01*
X116078000Y-100307503D01*
X130280606Y-100307503D01*
X130280942Y-100321599D01*
X130288884Y-100325000D01*
X131289885Y-100325000D01*
X131305124Y-100320525D01*
X131306329Y-100319135D01*
X131308000Y-100311452D01*
X131308000Y-100306885D01*
X131816000Y-100306885D01*
X131820475Y-100322124D01*
X131821865Y-100323329D01*
X131829548Y-100325000D01*
X132829967Y-100325000D01*
X132843498Y-100321027D01*
X132844727Y-100312478D01*
X132797236Y-100135239D01*
X132793490Y-100124947D01*
X132701414Y-99927489D01*
X132695931Y-99917993D01*
X132570972Y-99739533D01*
X132563916Y-99731125D01*
X132409875Y-99577084D01*
X132401467Y-99570028D01*
X132223007Y-99445069D01*
X132213511Y-99439586D01*
X132016053Y-99347510D01*
X132005761Y-99343764D01*
X131833497Y-99297606D01*
X131819401Y-99297942D01*
X131816000Y-99305884D01*
X131816000Y-100306885D01*
X131308000Y-100306885D01*
X131308000Y-99311033D01*
X131304027Y-99297502D01*
X131295478Y-99296273D01*
X131118239Y-99343764D01*
X131107947Y-99347510D01*
X130910489Y-99439586D01*
X130900993Y-99445069D01*
X130722533Y-99570028D01*
X130714125Y-99577084D01*
X130560084Y-99731125D01*
X130553028Y-99739533D01*
X130428069Y-99917993D01*
X130422586Y-99927489D01*
X130330510Y-100124947D01*
X130326764Y-100135239D01*
X130280606Y-100307503D01*
X116078000Y-100307503D01*
X116078000Y-94543669D01*
X117464001Y-94543669D01*
X117464371Y-94550490D01*
X117469895Y-94601352D01*
X117473521Y-94616604D01*
X117518676Y-94737054D01*
X117527214Y-94752649D01*
X117603715Y-94854724D01*
X117616276Y-94867285D01*
X117718351Y-94943786D01*
X117733946Y-94952324D01*
X117854394Y-94997478D01*
X117869649Y-95001105D01*
X117920514Y-95006631D01*
X117927328Y-95007000D01*
X118599885Y-95007000D01*
X118615124Y-95002525D01*
X118616329Y-95001135D01*
X118618000Y-94993452D01*
X118618000Y-93871115D01*
X118613525Y-93855876D01*
X118612135Y-93854671D01*
X118604452Y-93853000D01*
X117482116Y-93853000D01*
X117466877Y-93857475D01*
X117465672Y-93858865D01*
X117464001Y-93866548D01*
X117464001Y-94543669D01*
X116078000Y-94543669D01*
X116078000Y-93326885D01*
X117464000Y-93326885D01*
X117468475Y-93342124D01*
X117469865Y-93343329D01*
X117477548Y-93345000D01*
X118599885Y-93345000D01*
X118615124Y-93340525D01*
X118616329Y-93339135D01*
X118618000Y-93331452D01*
X118618000Y-92209116D01*
X118613525Y-92193877D01*
X118612135Y-92192672D01*
X118604452Y-92191001D01*
X117927331Y-92191001D01*
X117920510Y-92191371D01*
X117869648Y-92196895D01*
X117854396Y-92200521D01*
X117733946Y-92245676D01*
X117718351Y-92254214D01*
X117616276Y-92330715D01*
X117603715Y-92343276D01*
X117527214Y-92445351D01*
X117518676Y-92460946D01*
X117473522Y-92581394D01*
X117469895Y-92596649D01*
X117464369Y-92647514D01*
X117464000Y-92654328D01*
X117464000Y-93326885D01*
X116078000Y-93326885D01*
X116078000Y-82897695D01*
X117359251Y-82897695D01*
X117359548Y-82902848D01*
X117359548Y-82902851D01*
X117367000Y-83032087D01*
X117372110Y-83120715D01*
X117373247Y-83125761D01*
X117373248Y-83125767D01*
X117381064Y-83160447D01*
X117421222Y-83338639D01*
X117505266Y-83545616D01*
X117621987Y-83736088D01*
X117768250Y-83904938D01*
X117772230Y-83908242D01*
X117776981Y-83912187D01*
X117816616Y-83971090D01*
X117818113Y-84042071D01*
X117780997Y-84102593D01*
X117740725Y-84127112D01*
X117693748Y-84144723D01*
X117625295Y-84170385D01*
X117508739Y-84257739D01*
X117421385Y-84374295D01*
X117370255Y-84510684D01*
X117363500Y-84572866D01*
X117363500Y-86369134D01*
X117370255Y-86431316D01*
X117421385Y-86567705D01*
X117508739Y-86684261D01*
X117625295Y-86771615D01*
X117761684Y-86822745D01*
X117823866Y-86829500D01*
X117962500Y-86829500D01*
X118030621Y-86849502D01*
X118077114Y-86903158D01*
X118088500Y-86955500D01*
X118088500Y-90830233D01*
X118087973Y-90841416D01*
X118086298Y-90848909D01*
X118086547Y-90856835D01*
X118086547Y-90856836D01*
X118088438Y-90916986D01*
X118088500Y-90920945D01*
X118088500Y-90948856D01*
X118088997Y-90952790D01*
X118088997Y-90952791D01*
X118089005Y-90952856D01*
X118089938Y-90964693D01*
X118091327Y-91008889D01*
X118096978Y-91028339D01*
X118100987Y-91047700D01*
X118103526Y-91067797D01*
X118106445Y-91075168D01*
X118106445Y-91075170D01*
X118119804Y-91108912D01*
X118123649Y-91120142D01*
X118128203Y-91135818D01*
X118135982Y-91162593D01*
X118140015Y-91169412D01*
X118140017Y-91169417D01*
X118146293Y-91180028D01*
X118154988Y-91197776D01*
X118162448Y-91216617D01*
X118167110Y-91223033D01*
X118167110Y-91223034D01*
X118188436Y-91252387D01*
X118194952Y-91262307D01*
X118206341Y-91281564D01*
X118217458Y-91300362D01*
X118231779Y-91314683D01*
X118244619Y-91329716D01*
X118256528Y-91346107D01*
X118262634Y-91351158D01*
X118290605Y-91374298D01*
X118299384Y-91382288D01*
X119089095Y-92171999D01*
X119123121Y-92234311D01*
X119126000Y-92261094D01*
X119126000Y-94988884D01*
X119130475Y-95004123D01*
X119131865Y-95005328D01*
X119139548Y-95006999D01*
X119816669Y-95006999D01*
X119823490Y-95006629D01*
X119874352Y-95001105D01*
X119889604Y-94997479D01*
X120010054Y-94952324D01*
X120025649Y-94943786D01*
X120127724Y-94867285D01*
X120140285Y-94854724D01*
X120216786Y-94752649D01*
X120225324Y-94737054D01*
X120246773Y-94679840D01*
X120289415Y-94623075D01*
X120355977Y-94598376D01*
X120425325Y-94613584D01*
X120445240Y-94627126D01*
X120534050Y-94700857D01*
X120601349Y-94756730D01*
X120801322Y-94873584D01*
X120806147Y-94875426D01*
X120806148Y-94875427D01*
X120880665Y-94903883D01*
X121017694Y-94956209D01*
X121022760Y-94957240D01*
X121022761Y-94957240D01*
X121075846Y-94968040D01*
X121244656Y-95002385D01*
X121375324Y-95007176D01*
X121470949Y-95010683D01*
X121470953Y-95010683D01*
X121476113Y-95010872D01*
X121481233Y-95010216D01*
X121481235Y-95010216D01*
X121580668Y-94997478D01*
X121705847Y-94981442D01*
X121710795Y-94979957D01*
X121710802Y-94979956D01*
X121922747Y-94916369D01*
X121927690Y-94914886D01*
X121933814Y-94911886D01*
X122131049Y-94815262D01*
X122131052Y-94815260D01*
X122135684Y-94812991D01*
X122324243Y-94678494D01*
X122488303Y-94515005D01*
X122623458Y-94326917D01*
X122650354Y-94272498D01*
X122723784Y-94123922D01*
X122723785Y-94123920D01*
X122726078Y-94119280D01*
X122793408Y-93897671D01*
X122823640Y-93668041D01*
X122824013Y-93652775D01*
X122825245Y-93602365D01*
X122825245Y-93602361D01*
X122825327Y-93599000D01*
X122819032Y-93522434D01*
X122806773Y-93373318D01*
X122806772Y-93373312D01*
X122806349Y-93368167D01*
X122760865Y-93187087D01*
X122751184Y-93148544D01*
X122751183Y-93148540D01*
X122749925Y-93143533D01*
X122747866Y-93138797D01*
X122659630Y-92935868D01*
X122659628Y-92935865D01*
X122657570Y-92931131D01*
X122531764Y-92736665D01*
X122526244Y-92730598D01*
X122450643Y-92647514D01*
X122375887Y-92565358D01*
X122371836Y-92562159D01*
X122371832Y-92562155D01*
X122198177Y-92425011D01*
X122198172Y-92425008D01*
X122194123Y-92421810D01*
X122189607Y-92419317D01*
X122189604Y-92419315D01*
X121995879Y-92312373D01*
X121995875Y-92312371D01*
X121991355Y-92309876D01*
X121986486Y-92308152D01*
X121986482Y-92308150D01*
X121777903Y-92234288D01*
X121777899Y-92234287D01*
X121773028Y-92232562D01*
X121767935Y-92231655D01*
X121767932Y-92231654D01*
X121550095Y-92192851D01*
X121550089Y-92192850D01*
X121545006Y-92191945D01*
X121467726Y-92191001D01*
X121318581Y-92189179D01*
X121318579Y-92189179D01*
X121313411Y-92189116D01*
X121084464Y-92224150D01*
X121043885Y-92237413D01*
X120972922Y-92239563D01*
X120915647Y-92206742D01*
X119392405Y-90683500D01*
X119358379Y-90621188D01*
X119355500Y-90594405D01*
X119355500Y-86955500D01*
X119375502Y-86887379D01*
X119429158Y-86840886D01*
X119481500Y-86829500D01*
X119620134Y-86829500D01*
X119682316Y-86822745D01*
X119818705Y-86771615D01*
X119935261Y-86684261D01*
X120022615Y-86567705D01*
X120073745Y-86431316D01*
X120080500Y-86369134D01*
X120080500Y-84572866D01*
X120073745Y-84510684D01*
X120022615Y-84374295D01*
X119935261Y-84257739D01*
X119818705Y-84170385D01*
X119779170Y-84155564D01*
X119700203Y-84125960D01*
X119643439Y-84083318D01*
X119618739Y-84016756D01*
X119633947Y-83947408D01*
X119655494Y-83918727D01*
X119733506Y-83840988D01*
X119795878Y-83807072D01*
X119866684Y-83812261D01*
X119911540Y-83841144D01*
X126881643Y-90811247D01*
X126889187Y-90819537D01*
X126893300Y-90826018D01*
X126899077Y-90831443D01*
X126942967Y-90872658D01*
X126945809Y-90875413D01*
X126965530Y-90895134D01*
X126968725Y-90897612D01*
X126977747Y-90905318D01*
X127009979Y-90935586D01*
X127016928Y-90939406D01*
X127027732Y-90945346D01*
X127044256Y-90956199D01*
X127060259Y-90968613D01*
X127100843Y-90986176D01*
X127111473Y-90991383D01*
X127150240Y-91012695D01*
X127157917Y-91014666D01*
X127157922Y-91014668D01*
X127169858Y-91017732D01*
X127188566Y-91024137D01*
X127207155Y-91032181D01*
X127214983Y-91033421D01*
X127214990Y-91033423D01*
X127250824Y-91039099D01*
X127262444Y-91041505D01*
X127297589Y-91050528D01*
X127305270Y-91052500D01*
X127325524Y-91052500D01*
X127345234Y-91054051D01*
X127365243Y-91057220D01*
X127373135Y-91056474D01*
X127409261Y-91053059D01*
X127421119Y-91052500D01*
X130342606Y-91052500D01*
X130410727Y-91072502D01*
X130445819Y-91106229D01*
X130551525Y-91257192D01*
X130555802Y-91263300D01*
X130717700Y-91425198D01*
X130722208Y-91428355D01*
X130722211Y-91428357D01*
X130874771Y-91535181D01*
X130919099Y-91590638D01*
X130928500Y-91638394D01*
X130928500Y-91739606D01*
X130908498Y-91807727D01*
X130874771Y-91842819D01*
X130722211Y-91949643D01*
X130722208Y-91949645D01*
X130717700Y-91952802D01*
X130555802Y-92114700D01*
X130552645Y-92119208D01*
X130552643Y-92119211D01*
X130498248Y-92196895D01*
X130424477Y-92302251D01*
X130422154Y-92307233D01*
X130422151Y-92307238D01*
X130368726Y-92421810D01*
X130327716Y-92509757D01*
X130326294Y-92515065D01*
X130326293Y-92515067D01*
X130311793Y-92569181D01*
X130268457Y-92730913D01*
X130248502Y-92959000D01*
X130268457Y-93187087D01*
X130269881Y-93192400D01*
X130269881Y-93192402D01*
X130316978Y-93368167D01*
X130327716Y-93408243D01*
X130330039Y-93413224D01*
X130330039Y-93413225D01*
X130422151Y-93610762D01*
X130422154Y-93610767D01*
X130424477Y-93615749D01*
X130555802Y-93803300D01*
X130717700Y-93965198D01*
X130722208Y-93968355D01*
X130722211Y-93968357D01*
X130729352Y-93973357D01*
X130905251Y-94096523D01*
X130910233Y-94098846D01*
X130910238Y-94098849D01*
X131052189Y-94165041D01*
X131112757Y-94193284D01*
X131118065Y-94194706D01*
X131118067Y-94194707D01*
X131328598Y-94251119D01*
X131328600Y-94251119D01*
X131333913Y-94252543D01*
X131562000Y-94272498D01*
X131790087Y-94252543D01*
X131795400Y-94251119D01*
X131795402Y-94251119D01*
X132005933Y-94194707D01*
X132005935Y-94194706D01*
X132011243Y-94193284D01*
X132071811Y-94165041D01*
X132213762Y-94098849D01*
X132213767Y-94098846D01*
X132218749Y-94096523D01*
X132394648Y-93973357D01*
X132401789Y-93968357D01*
X132401792Y-93968355D01*
X132406300Y-93965198D01*
X132568198Y-93803300D01*
X132699523Y-93615749D01*
X132701846Y-93610767D01*
X132701849Y-93610762D01*
X132793961Y-93413225D01*
X132793961Y-93413224D01*
X132796284Y-93408243D01*
X132807023Y-93368167D01*
X132854119Y-93192402D01*
X132854119Y-93192400D01*
X132855543Y-93187087D01*
X132875498Y-92959000D01*
X132855543Y-92730913D01*
X132812207Y-92569181D01*
X132797707Y-92515067D01*
X132797706Y-92515065D01*
X132796284Y-92509757D01*
X132755274Y-92421810D01*
X132701849Y-92307238D01*
X132701846Y-92307233D01*
X132699523Y-92302251D01*
X132625752Y-92196895D01*
X132571357Y-92119211D01*
X132571355Y-92119208D01*
X132568198Y-92114700D01*
X132406300Y-91952802D01*
X132401792Y-91949645D01*
X132401789Y-91949643D01*
X132249229Y-91842819D01*
X132204901Y-91787362D01*
X132195500Y-91739606D01*
X132195500Y-91638394D01*
X132215502Y-91570273D01*
X132249229Y-91535181D01*
X132401789Y-91428357D01*
X132401792Y-91428355D01*
X132406300Y-91425198D01*
X132568198Y-91263300D01*
X132573909Y-91255145D01*
X132638714Y-91162593D01*
X132699523Y-91075749D01*
X132701846Y-91070767D01*
X132701849Y-91070762D01*
X132793961Y-90873225D01*
X132793961Y-90873224D01*
X132796284Y-90868243D01*
X132855543Y-90647087D01*
X132875498Y-90419000D01*
X132855543Y-90190913D01*
X132854119Y-90185598D01*
X132797707Y-89975067D01*
X132797706Y-89975065D01*
X132796284Y-89969757D01*
X132776128Y-89926531D01*
X132701849Y-89767238D01*
X132701846Y-89767233D01*
X132699523Y-89762251D01*
X132568198Y-89574700D01*
X132406300Y-89412802D01*
X132401792Y-89409645D01*
X132401789Y-89409643D01*
X132230398Y-89289634D01*
X132218749Y-89281477D01*
X132213767Y-89279154D01*
X132213762Y-89279151D01*
X132016225Y-89187039D01*
X132016224Y-89187039D01*
X132011243Y-89184716D01*
X132005935Y-89183294D01*
X132005933Y-89183293D01*
X131795402Y-89126881D01*
X131795400Y-89126881D01*
X131790087Y-89125457D01*
X131562000Y-89105502D01*
X131333913Y-89125457D01*
X131328600Y-89126881D01*
X131328598Y-89126881D01*
X131118067Y-89183293D01*
X131118065Y-89183294D01*
X131112757Y-89184716D01*
X131107776Y-89187039D01*
X131107775Y-89187039D01*
X130910238Y-89279151D01*
X130910233Y-89279154D01*
X130905251Y-89281477D01*
X130893602Y-89289634D01*
X130722211Y-89409643D01*
X130722208Y-89409645D01*
X130717700Y-89412802D01*
X130555802Y-89574700D01*
X130552645Y-89579208D01*
X130552643Y-89579211D01*
X130445819Y-89731771D01*
X130390362Y-89776099D01*
X130342606Y-89785500D01*
X127699894Y-89785500D01*
X127631773Y-89765498D01*
X127610799Y-89748595D01*
X120661205Y-82799000D01*
X130248502Y-82799000D01*
X130268457Y-83027087D01*
X130269881Y-83032400D01*
X130269881Y-83032402D01*
X130325669Y-83240602D01*
X130327716Y-83248243D01*
X130330039Y-83253224D01*
X130330039Y-83253225D01*
X130422151Y-83450762D01*
X130422154Y-83450767D01*
X130424477Y-83455749D01*
X130555802Y-83643300D01*
X130717700Y-83805198D01*
X130722208Y-83808355D01*
X130722211Y-83808357D01*
X130783826Y-83851500D01*
X130905251Y-83936523D01*
X130910233Y-83938846D01*
X130910238Y-83938849D01*
X131077312Y-84016756D01*
X131112757Y-84033284D01*
X131118065Y-84034706D01*
X131118067Y-84034707D01*
X131328598Y-84091119D01*
X131328600Y-84091119D01*
X131333913Y-84092543D01*
X131562000Y-84112498D01*
X131790087Y-84092543D01*
X131795400Y-84091119D01*
X131795402Y-84091119D01*
X132005933Y-84034707D01*
X132005935Y-84034706D01*
X132011243Y-84033284D01*
X132046688Y-84016756D01*
X132213762Y-83938849D01*
X132213767Y-83938846D01*
X132218749Y-83936523D01*
X132340174Y-83851500D01*
X132401789Y-83808357D01*
X132401792Y-83808355D01*
X132406300Y-83805198D01*
X132568198Y-83643300D01*
X132587255Y-83616084D01*
X132674680Y-83491229D01*
X132730137Y-83446901D01*
X132777893Y-83437500D01*
X134924606Y-83437500D01*
X134992727Y-83457502D01*
X135027819Y-83491229D01*
X135115244Y-83616084D01*
X135137802Y-83648300D01*
X135299700Y-83810198D01*
X135304208Y-83813355D01*
X135304211Y-83813357D01*
X135343895Y-83841144D01*
X135487251Y-83941523D01*
X135492233Y-83943846D01*
X135492238Y-83943849D01*
X135526457Y-83959805D01*
X135579742Y-84006722D01*
X135599203Y-84074999D01*
X135578661Y-84142959D01*
X135526457Y-84188195D01*
X135492238Y-84204151D01*
X135492233Y-84204154D01*
X135487251Y-84206477D01*
X135382389Y-84279902D01*
X135304211Y-84334643D01*
X135304208Y-84334645D01*
X135299700Y-84337802D01*
X135137802Y-84499700D01*
X135134645Y-84504208D01*
X135134643Y-84504211D01*
X135091111Y-84566382D01*
X135006477Y-84687251D01*
X135004154Y-84692233D01*
X135004151Y-84692238D01*
X134932886Y-84845069D01*
X134909716Y-84894757D01*
X134908294Y-84900065D01*
X134908293Y-84900067D01*
X134857400Y-85090000D01*
X134850457Y-85115913D01*
X134830502Y-85344000D01*
X134850457Y-85572087D01*
X134851881Y-85577400D01*
X134851881Y-85577402D01*
X134898374Y-85750913D01*
X134909716Y-85793243D01*
X134912039Y-85798224D01*
X134912039Y-85798225D01*
X135004151Y-85995762D01*
X135004154Y-85995767D01*
X135006477Y-86000749D01*
X135137802Y-86188300D01*
X135299700Y-86350198D01*
X135304208Y-86353355D01*
X135304211Y-86353357D01*
X135382389Y-86408098D01*
X135487251Y-86481523D01*
X135492233Y-86483846D01*
X135492238Y-86483849D01*
X135526457Y-86499805D01*
X135579742Y-86546722D01*
X135599203Y-86614999D01*
X135578661Y-86682959D01*
X135526457Y-86728195D01*
X135492238Y-86744151D01*
X135492233Y-86744154D01*
X135487251Y-86746477D01*
X135446849Y-86774767D01*
X135304211Y-86874643D01*
X135304208Y-86874645D01*
X135299700Y-86877802D01*
X135137802Y-87039700D01*
X135134645Y-87044208D01*
X135134643Y-87044211D01*
X135086525Y-87112931D01*
X135006477Y-87227251D01*
X135004154Y-87232233D01*
X135004151Y-87232238D01*
X134915477Y-87422402D01*
X134909716Y-87434757D01*
X134908294Y-87440065D01*
X134908293Y-87440067D01*
X134853101Y-87646045D01*
X134850457Y-87655913D01*
X134838332Y-87794500D01*
X134834393Y-87839531D01*
X134830502Y-87884000D01*
X134850457Y-88112087D01*
X134909716Y-88333243D01*
X134912039Y-88338224D01*
X134912039Y-88338225D01*
X135004151Y-88535762D01*
X135004154Y-88535767D01*
X135006477Y-88540749D01*
X135009634Y-88545257D01*
X135133328Y-88721910D01*
X135137802Y-88728300D01*
X135299700Y-88890198D01*
X135304208Y-88893355D01*
X135304211Y-88893357D01*
X135382389Y-88948098D01*
X135487251Y-89021523D01*
X135492233Y-89023846D01*
X135492238Y-89023849D01*
X135526457Y-89039805D01*
X135579742Y-89086722D01*
X135599203Y-89154999D01*
X135578661Y-89222959D01*
X135526457Y-89268195D01*
X135492238Y-89284151D01*
X135492233Y-89284154D01*
X135487251Y-89286477D01*
X135382389Y-89359902D01*
X135304211Y-89414643D01*
X135304208Y-89414645D01*
X135299700Y-89417802D01*
X135137802Y-89579700D01*
X135006477Y-89767251D01*
X135004154Y-89772233D01*
X135004151Y-89772238D01*
X134912039Y-89969775D01*
X134909716Y-89974757D01*
X134908294Y-89980065D01*
X134908293Y-89980067D01*
X134854507Y-90180797D01*
X134850457Y-90195913D01*
X134830502Y-90424000D01*
X134850457Y-90652087D01*
X134851881Y-90657400D01*
X134851881Y-90657402D01*
X134903196Y-90848909D01*
X134909716Y-90873243D01*
X134912039Y-90878224D01*
X134912039Y-90878225D01*
X135004151Y-91075762D01*
X135004154Y-91075767D01*
X135006477Y-91080749D01*
X135058456Y-91154983D01*
X135133606Y-91262307D01*
X135137802Y-91268300D01*
X135299700Y-91430198D01*
X135304208Y-91433355D01*
X135304211Y-91433357D01*
X135382389Y-91488098D01*
X135487251Y-91561523D01*
X135492233Y-91563846D01*
X135492238Y-91563849D01*
X135526457Y-91579805D01*
X135579742Y-91626722D01*
X135599203Y-91694999D01*
X135578661Y-91762959D01*
X135526457Y-91808195D01*
X135492238Y-91824151D01*
X135492233Y-91824154D01*
X135487251Y-91826477D01*
X135382389Y-91899902D01*
X135304211Y-91954643D01*
X135304208Y-91954645D01*
X135299700Y-91957802D01*
X135137802Y-92119700D01*
X135006477Y-92307251D01*
X135004154Y-92312233D01*
X135004151Y-92312238D01*
X134912039Y-92509775D01*
X134909716Y-92514757D01*
X134908294Y-92520065D01*
X134908293Y-92520067D01*
X134872318Y-92654328D01*
X134850457Y-92735913D01*
X134830502Y-92964000D01*
X134850457Y-93192087D01*
X134851881Y-93197400D01*
X134851881Y-93197402D01*
X134890660Y-93342124D01*
X134909716Y-93413243D01*
X134912039Y-93418224D01*
X134912039Y-93418225D01*
X135004151Y-93615762D01*
X135004154Y-93615767D01*
X135006477Y-93620749D01*
X135137802Y-93808300D01*
X135299700Y-93970198D01*
X135304208Y-93973355D01*
X135304211Y-93973357D01*
X135365793Y-94016477D01*
X135487251Y-94101523D01*
X135492233Y-94103846D01*
X135492238Y-94103849D01*
X135526457Y-94119805D01*
X135579742Y-94166722D01*
X135599203Y-94234999D01*
X135578661Y-94302959D01*
X135526457Y-94348195D01*
X135492238Y-94364151D01*
X135492233Y-94364154D01*
X135487251Y-94366477D01*
X135396097Y-94430304D01*
X135304211Y-94494643D01*
X135304208Y-94494645D01*
X135299700Y-94497802D01*
X135137802Y-94659700D01*
X135134645Y-94664208D01*
X135134643Y-94664211D01*
X135122543Y-94681492D01*
X135006477Y-94847251D01*
X135004154Y-94852233D01*
X135004151Y-94852238D01*
X134930268Y-95010683D01*
X134909716Y-95054757D01*
X134908294Y-95060065D01*
X134908293Y-95060067D01*
X134893210Y-95116357D01*
X134850457Y-95275913D01*
X134830502Y-95504000D01*
X134850457Y-95732087D01*
X134851881Y-95737400D01*
X134851881Y-95737402D01*
X134900120Y-95917429D01*
X134909716Y-95953243D01*
X134912039Y-95958224D01*
X134912039Y-95958225D01*
X135004151Y-96155762D01*
X135004154Y-96155767D01*
X135006477Y-96160749D01*
X135009634Y-96165257D01*
X135129498Y-96336440D01*
X135137802Y-96348300D01*
X135299700Y-96510198D01*
X135304208Y-96513355D01*
X135304211Y-96513357D01*
X135373912Y-96562162D01*
X135487251Y-96641523D01*
X135492233Y-96643846D01*
X135492238Y-96643849D01*
X135526457Y-96659805D01*
X135579742Y-96706722D01*
X135599203Y-96774999D01*
X135578661Y-96842959D01*
X135526457Y-96888195D01*
X135492238Y-96904151D01*
X135492233Y-96904154D01*
X135487251Y-96906477D01*
X135382389Y-96979902D01*
X135304211Y-97034643D01*
X135304208Y-97034645D01*
X135299700Y-97037802D01*
X135137802Y-97199700D01*
X135134645Y-97204208D01*
X135134643Y-97204211D01*
X135120858Y-97223898D01*
X135006477Y-97387251D01*
X135004154Y-97392233D01*
X135004151Y-97392238D01*
X134976337Y-97451886D01*
X134909716Y-97594757D01*
X134850457Y-97815913D01*
X134830502Y-98044000D01*
X134850457Y-98272087D01*
X134851881Y-98277400D01*
X134851881Y-98277402D01*
X134904836Y-98475029D01*
X134909716Y-98493243D01*
X134912039Y-98498224D01*
X134912039Y-98498225D01*
X135004151Y-98695762D01*
X135004154Y-98695767D01*
X135006477Y-98700749D01*
X135009634Y-98705257D01*
X135120566Y-98863684D01*
X135137802Y-98888300D01*
X135299700Y-99050198D01*
X135304208Y-99053355D01*
X135304211Y-99053357D01*
X135382389Y-99108098D01*
X135487251Y-99181523D01*
X135492233Y-99183846D01*
X135492238Y-99183849D01*
X135527049Y-99200081D01*
X135580334Y-99246998D01*
X135599795Y-99315275D01*
X135579253Y-99383235D01*
X135527049Y-99428471D01*
X135492489Y-99444586D01*
X135482993Y-99450069D01*
X135304533Y-99575028D01*
X135296125Y-99582084D01*
X135142084Y-99736125D01*
X135135028Y-99744533D01*
X135010069Y-99922993D01*
X135004586Y-99932489D01*
X134912510Y-100129947D01*
X134908764Y-100140239D01*
X134862606Y-100312503D01*
X134862942Y-100326599D01*
X134870884Y-100330000D01*
X137411967Y-100330000D01*
X137425498Y-100326027D01*
X137426727Y-100317478D01*
X137379236Y-100140239D01*
X137375490Y-100129947D01*
X137283414Y-99932489D01*
X137277931Y-99922993D01*
X137152972Y-99744533D01*
X137145916Y-99736125D01*
X136991875Y-99582084D01*
X136983467Y-99575028D01*
X136805007Y-99450069D01*
X136795511Y-99444586D01*
X136760951Y-99428471D01*
X136707666Y-99381554D01*
X136688205Y-99313277D01*
X136708747Y-99245317D01*
X136760951Y-99200081D01*
X136795762Y-99183849D01*
X136795767Y-99183846D01*
X136800749Y-99181523D01*
X136905611Y-99108098D01*
X136983789Y-99053357D01*
X136983792Y-99053355D01*
X136988300Y-99050198D01*
X137150198Y-98888300D01*
X137167435Y-98863684D01*
X137278366Y-98705257D01*
X137281523Y-98700749D01*
X137283846Y-98695767D01*
X137283849Y-98695762D01*
X137375961Y-98498225D01*
X137375961Y-98498224D01*
X137378284Y-98493243D01*
X137383165Y-98475029D01*
X137436119Y-98277402D01*
X137436119Y-98277400D01*
X137437543Y-98272087D01*
X137457498Y-98044000D01*
X137437543Y-97815913D01*
X137378284Y-97594757D01*
X137311663Y-97451886D01*
X137283849Y-97392238D01*
X137283846Y-97392233D01*
X137281523Y-97387251D01*
X137167142Y-97223898D01*
X137153357Y-97204211D01*
X137153355Y-97204208D01*
X137150198Y-97199700D01*
X136988300Y-97037802D01*
X136983792Y-97034645D01*
X136983789Y-97034643D01*
X136905611Y-96979902D01*
X136800749Y-96906477D01*
X136795767Y-96904154D01*
X136795762Y-96904151D01*
X136761543Y-96888195D01*
X136708258Y-96841278D01*
X136688797Y-96773001D01*
X136709339Y-96705041D01*
X136761543Y-96659805D01*
X136795762Y-96643849D01*
X136795767Y-96643846D01*
X136800749Y-96641523D01*
X136914088Y-96562162D01*
X136983789Y-96513357D01*
X136983792Y-96513355D01*
X136988300Y-96510198D01*
X137150198Y-96348300D01*
X137158503Y-96336440D01*
X137278366Y-96165257D01*
X137281523Y-96160749D01*
X137283846Y-96155767D01*
X137283849Y-96155762D01*
X137375961Y-95958225D01*
X137375961Y-95958224D01*
X137378284Y-95953243D01*
X137387881Y-95917429D01*
X137436119Y-95737402D01*
X137436119Y-95737400D01*
X137437543Y-95732087D01*
X137457498Y-95504000D01*
X137437543Y-95275913D01*
X137394790Y-95116357D01*
X137379707Y-95060067D01*
X137379706Y-95060065D01*
X137378284Y-95054757D01*
X137357732Y-95010683D01*
X137283849Y-94852238D01*
X137283846Y-94852233D01*
X137281523Y-94847251D01*
X137165457Y-94681492D01*
X137153357Y-94664211D01*
X137153355Y-94664208D01*
X137150198Y-94659700D01*
X136988300Y-94497802D01*
X136983792Y-94494645D01*
X136983789Y-94494643D01*
X136891903Y-94430304D01*
X136800749Y-94366477D01*
X136795767Y-94364154D01*
X136795762Y-94364151D01*
X136761543Y-94348195D01*
X136708258Y-94301278D01*
X136688797Y-94233001D01*
X136709339Y-94165041D01*
X136761543Y-94119805D01*
X136795762Y-94103849D01*
X136795767Y-94103846D01*
X136800749Y-94101523D01*
X136922207Y-94016477D01*
X136983789Y-93973357D01*
X136983792Y-93973355D01*
X136988300Y-93970198D01*
X137150198Y-93808300D01*
X137281523Y-93620749D01*
X137283846Y-93615767D01*
X137283849Y-93615762D01*
X137375961Y-93418225D01*
X137375961Y-93418224D01*
X137378284Y-93413243D01*
X137397341Y-93342124D01*
X137436119Y-93197402D01*
X137436119Y-93197400D01*
X137437543Y-93192087D01*
X137457498Y-92964000D01*
X137437543Y-92735913D01*
X137415682Y-92654328D01*
X137379707Y-92520067D01*
X137379706Y-92520065D01*
X137378284Y-92514757D01*
X137375961Y-92509775D01*
X137283849Y-92312238D01*
X137283846Y-92312233D01*
X137281523Y-92307251D01*
X137150198Y-92119700D01*
X136988300Y-91957802D01*
X136983792Y-91954645D01*
X136983789Y-91954643D01*
X136905611Y-91899902D01*
X136800749Y-91826477D01*
X136795767Y-91824154D01*
X136795762Y-91824151D01*
X136761543Y-91808195D01*
X136708258Y-91761278D01*
X136688797Y-91693001D01*
X136709339Y-91625041D01*
X136761543Y-91579805D01*
X136795762Y-91563849D01*
X136795767Y-91563846D01*
X136800749Y-91561523D01*
X136905611Y-91488098D01*
X136983789Y-91433357D01*
X136983792Y-91433355D01*
X136988300Y-91430198D01*
X137150198Y-91268300D01*
X137154395Y-91262307D01*
X137229544Y-91154983D01*
X137281523Y-91080749D01*
X137283846Y-91075767D01*
X137283849Y-91075762D01*
X137375961Y-90878225D01*
X137375961Y-90878224D01*
X137378284Y-90873243D01*
X137384805Y-90848909D01*
X137436119Y-90657402D01*
X137436119Y-90657400D01*
X137437543Y-90652087D01*
X137457498Y-90424000D01*
X137437543Y-90195913D01*
X137433493Y-90180797D01*
X137379707Y-89980067D01*
X137379706Y-89980065D01*
X137378284Y-89974757D01*
X137375961Y-89969775D01*
X137283849Y-89772238D01*
X137283846Y-89772233D01*
X137281523Y-89767251D01*
X137150198Y-89579700D01*
X136988300Y-89417802D01*
X136983792Y-89414645D01*
X136983789Y-89414643D01*
X136905611Y-89359902D01*
X136800749Y-89286477D01*
X136795767Y-89284154D01*
X136795762Y-89284151D01*
X136761543Y-89268195D01*
X136708258Y-89221278D01*
X136688797Y-89153001D01*
X136709339Y-89085041D01*
X136761543Y-89039805D01*
X136795762Y-89023849D01*
X136795767Y-89023846D01*
X136800749Y-89021523D01*
X136905611Y-88948098D01*
X136983789Y-88893357D01*
X136983792Y-88893355D01*
X136988300Y-88890198D01*
X137150198Y-88728300D01*
X137154673Y-88721910D01*
X137278366Y-88545257D01*
X137281523Y-88540749D01*
X137283846Y-88535767D01*
X137283849Y-88535762D01*
X137375961Y-88338225D01*
X137375961Y-88338224D01*
X137378284Y-88333243D01*
X137437543Y-88112087D01*
X137457498Y-87884000D01*
X137453608Y-87839531D01*
X137449668Y-87794500D01*
X137437543Y-87655913D01*
X137434899Y-87646045D01*
X137379707Y-87440067D01*
X137379706Y-87440065D01*
X137378284Y-87434757D01*
X137372523Y-87422402D01*
X137283849Y-87232238D01*
X137283846Y-87232233D01*
X137281523Y-87227251D01*
X137201475Y-87112931D01*
X137153357Y-87044211D01*
X137153355Y-87044208D01*
X137150198Y-87039700D01*
X136988300Y-86877802D01*
X136983792Y-86874645D01*
X136983789Y-86874643D01*
X136841151Y-86774767D01*
X136800749Y-86746477D01*
X136795767Y-86744154D01*
X136795762Y-86744151D01*
X136761543Y-86728195D01*
X136708258Y-86681278D01*
X136688797Y-86613001D01*
X136709339Y-86545041D01*
X136761543Y-86499805D01*
X136795762Y-86483849D01*
X136795767Y-86483846D01*
X136800749Y-86481523D01*
X136905611Y-86408098D01*
X136983789Y-86353357D01*
X136983792Y-86353355D01*
X136988300Y-86350198D01*
X137150198Y-86188300D01*
X137281523Y-86000749D01*
X137283846Y-85995767D01*
X137283849Y-85995762D01*
X137375961Y-85798225D01*
X137375961Y-85798224D01*
X137378284Y-85793243D01*
X137389627Y-85750913D01*
X137436119Y-85577402D01*
X137436119Y-85577400D01*
X137437543Y-85572087D01*
X137457498Y-85344000D01*
X137437543Y-85115913D01*
X137430600Y-85090000D01*
X137379707Y-84900067D01*
X137379706Y-84900065D01*
X137378284Y-84894757D01*
X137355114Y-84845069D01*
X137283849Y-84692238D01*
X137283846Y-84692233D01*
X137281523Y-84687251D01*
X137196889Y-84566382D01*
X137153357Y-84504211D01*
X137153355Y-84504208D01*
X137150198Y-84499700D01*
X136988300Y-84337802D01*
X136983792Y-84334645D01*
X136983789Y-84334643D01*
X136905611Y-84279902D01*
X136800749Y-84206477D01*
X136795767Y-84204154D01*
X136795762Y-84204151D01*
X136761543Y-84188195D01*
X136708258Y-84141278D01*
X136688797Y-84073001D01*
X136709339Y-84005041D01*
X136761543Y-83959805D01*
X136795762Y-83943849D01*
X136795767Y-83943846D01*
X136800749Y-83941523D01*
X136944105Y-83841144D01*
X136983789Y-83813357D01*
X136983792Y-83813355D01*
X136988300Y-83810198D01*
X137150198Y-83648300D01*
X137281523Y-83460749D01*
X137283846Y-83455767D01*
X137283849Y-83455762D01*
X137375961Y-83258225D01*
X137375961Y-83258224D01*
X137378284Y-83253243D01*
X137383096Y-83235287D01*
X137436119Y-83037402D01*
X137436119Y-83037400D01*
X137437543Y-83032087D01*
X137457498Y-82804000D01*
X137437543Y-82575913D01*
X137434499Y-82564551D01*
X137379707Y-82360067D01*
X137379706Y-82360065D01*
X137378284Y-82354757D01*
X137375961Y-82349775D01*
X137283849Y-82152238D01*
X137283846Y-82152233D01*
X137281523Y-82147251D01*
X137150198Y-81959700D01*
X136988300Y-81797802D01*
X136983792Y-81794645D01*
X136983789Y-81794643D01*
X136880564Y-81722364D01*
X136800749Y-81666477D01*
X136795767Y-81664154D01*
X136795762Y-81664151D01*
X136761543Y-81648195D01*
X136708258Y-81601278D01*
X136688797Y-81533001D01*
X136709339Y-81465041D01*
X136761543Y-81419805D01*
X136795762Y-81403849D01*
X136795767Y-81403846D01*
X136800749Y-81401523D01*
X136982172Y-81274489D01*
X136983789Y-81273357D01*
X136983792Y-81273355D01*
X136988300Y-81270198D01*
X137150198Y-81108300D01*
X137157917Y-81097277D01*
X137278366Y-80925257D01*
X137281523Y-80920749D01*
X137283846Y-80915767D01*
X137283849Y-80915762D01*
X137375961Y-80718225D01*
X137375961Y-80718224D01*
X137378284Y-80713243D01*
X137412442Y-80585767D01*
X137436119Y-80497402D01*
X137436119Y-80497400D01*
X137437543Y-80492087D01*
X137457498Y-80264000D01*
X137437543Y-80035913D01*
X137436119Y-80030598D01*
X137379707Y-79820067D01*
X137379706Y-79820065D01*
X137378284Y-79814757D01*
X137346614Y-79746840D01*
X137283849Y-79612238D01*
X137283846Y-79612233D01*
X137281523Y-79607251D01*
X137150198Y-79419700D01*
X136988300Y-79257802D01*
X136983789Y-79254643D01*
X136979576Y-79251108D01*
X136980527Y-79249974D01*
X136940529Y-79199929D01*
X136933224Y-79129310D01*
X136965258Y-79065951D01*
X137026462Y-79029970D01*
X137043517Y-79026918D01*
X137054316Y-79025745D01*
X137190705Y-78974615D01*
X137307261Y-78887261D01*
X137394615Y-78770705D01*
X137445745Y-78634316D01*
X137452500Y-78572134D01*
X137452500Y-76875866D01*
X137445745Y-76813684D01*
X137394615Y-76677295D01*
X137307261Y-76560739D01*
X137190705Y-76473385D01*
X137054316Y-76422255D01*
X137019758Y-76418501D01*
X137006892Y-76417103D01*
X136941330Y-76389861D01*
X136900904Y-76331498D01*
X136894500Y-76291840D01*
X136894500Y-73148194D01*
X136914502Y-73080073D01*
X136948229Y-73044981D01*
X137100789Y-72938157D01*
X137100792Y-72938155D01*
X137105300Y-72934998D01*
X137267198Y-72773100D01*
X137279065Y-72756153D01*
X137325098Y-72690411D01*
X137398523Y-72585549D01*
X137400846Y-72580567D01*
X137400849Y-72580562D01*
X137492961Y-72383025D01*
X137492961Y-72383024D01*
X137495284Y-72378043D01*
X137507001Y-72334317D01*
X137553119Y-72162202D01*
X137553119Y-72162200D01*
X137554543Y-72156887D01*
X137574498Y-71928800D01*
X142567502Y-71928800D01*
X142587457Y-72156887D01*
X142588881Y-72162200D01*
X142588881Y-72162202D01*
X142635000Y-72334317D01*
X142646716Y-72378043D01*
X142649039Y-72383024D01*
X142649039Y-72383025D01*
X142741151Y-72580562D01*
X142741154Y-72580567D01*
X142743477Y-72585549D01*
X142816902Y-72690411D01*
X142862936Y-72756153D01*
X142874802Y-72773100D01*
X143036700Y-72934998D01*
X143041208Y-72938155D01*
X143041211Y-72938157D01*
X143119389Y-72992898D01*
X143224251Y-73066323D01*
X143229233Y-73068646D01*
X143229238Y-73068649D01*
X143426775Y-73160761D01*
X143431757Y-73163084D01*
X143437065Y-73164506D01*
X143437067Y-73164507D01*
X143647598Y-73220919D01*
X143647600Y-73220919D01*
X143652913Y-73222343D01*
X143881000Y-73242298D01*
X144109087Y-73222343D01*
X144114400Y-73220919D01*
X144114402Y-73220919D01*
X144324933Y-73164507D01*
X144324935Y-73164506D01*
X144330243Y-73163084D01*
X144335225Y-73160761D01*
X144532762Y-73068649D01*
X144532767Y-73068646D01*
X144537749Y-73066323D01*
X144642611Y-72992898D01*
X144720789Y-72938157D01*
X144720792Y-72938155D01*
X144725300Y-72934998D01*
X144887198Y-72773100D01*
X144899065Y-72756153D01*
X144945098Y-72690411D01*
X145018523Y-72585549D01*
X145020846Y-72580567D01*
X145020849Y-72580562D01*
X145112961Y-72383025D01*
X145112961Y-72383024D01*
X145115284Y-72378043D01*
X145127001Y-72334317D01*
X145173119Y-72162202D01*
X145173119Y-72162200D01*
X145174543Y-72156887D01*
X145194498Y-71928800D01*
X145174543Y-71700713D01*
X145171261Y-71688464D01*
X145116707Y-71484867D01*
X145116706Y-71484865D01*
X145115284Y-71479557D01*
X145112961Y-71474575D01*
X145020849Y-71277038D01*
X145020846Y-71277033D01*
X145018523Y-71272051D01*
X144907404Y-71113357D01*
X144890357Y-71089011D01*
X144890355Y-71089008D01*
X144887198Y-71084500D01*
X144725300Y-70922602D01*
X144720792Y-70919445D01*
X144720789Y-70919443D01*
X144587944Y-70826424D01*
X144537749Y-70791277D01*
X144532767Y-70788954D01*
X144532762Y-70788951D01*
X144335225Y-70696839D01*
X144335224Y-70696839D01*
X144330243Y-70694516D01*
X144324935Y-70693094D01*
X144324933Y-70693093D01*
X144114402Y-70636681D01*
X144114400Y-70636681D01*
X144109087Y-70635257D01*
X143881000Y-70615302D01*
X143652913Y-70635257D01*
X143647600Y-70636681D01*
X143647598Y-70636681D01*
X143437067Y-70693093D01*
X143437065Y-70693094D01*
X143431757Y-70694516D01*
X143426776Y-70696839D01*
X143426775Y-70696839D01*
X143229238Y-70788951D01*
X143229233Y-70788954D01*
X143224251Y-70791277D01*
X143174056Y-70826424D01*
X143041211Y-70919443D01*
X143041208Y-70919445D01*
X143036700Y-70922602D01*
X142874802Y-71084500D01*
X142871645Y-71089008D01*
X142871643Y-71089011D01*
X142854596Y-71113357D01*
X142743477Y-71272051D01*
X142741154Y-71277033D01*
X142741151Y-71277038D01*
X142649039Y-71474575D01*
X142646716Y-71479557D01*
X142645294Y-71484865D01*
X142645293Y-71484867D01*
X142590739Y-71688464D01*
X142587457Y-71700713D01*
X142567502Y-71928800D01*
X137574498Y-71928800D01*
X137554543Y-71700713D01*
X137551261Y-71688464D01*
X137496707Y-71484867D01*
X137496706Y-71484865D01*
X137495284Y-71479557D01*
X137492961Y-71474575D01*
X137400849Y-71277038D01*
X137400846Y-71277033D01*
X137398523Y-71272051D01*
X137287404Y-71113357D01*
X137270357Y-71089011D01*
X137270355Y-71089008D01*
X137267198Y-71084500D01*
X137105300Y-70922602D01*
X137100792Y-70919445D01*
X137100789Y-70919443D01*
X136967944Y-70826424D01*
X136917749Y-70791277D01*
X136912767Y-70788954D01*
X136912762Y-70788951D01*
X136715225Y-70696839D01*
X136715224Y-70696839D01*
X136710243Y-70694516D01*
X136704935Y-70693094D01*
X136704933Y-70693093D01*
X136494402Y-70636681D01*
X136494400Y-70636681D01*
X136489087Y-70635257D01*
X136261000Y-70615302D01*
X136032913Y-70635257D01*
X136027600Y-70636681D01*
X136027598Y-70636681D01*
X135817067Y-70693093D01*
X135817065Y-70693094D01*
X135811757Y-70694516D01*
X135806776Y-70696839D01*
X135806775Y-70696839D01*
X135609238Y-70788951D01*
X135609233Y-70788954D01*
X135604251Y-70791277D01*
X135554056Y-70826424D01*
X135421211Y-70919443D01*
X135421208Y-70919445D01*
X135416700Y-70922602D01*
X135254802Y-71084500D01*
X135251645Y-71089008D01*
X135251643Y-71089011D01*
X135234596Y-71113357D01*
X135123477Y-71272051D01*
X135121154Y-71277033D01*
X135121151Y-71277038D01*
X135029039Y-71474575D01*
X135026716Y-71479557D01*
X135025294Y-71484865D01*
X135025293Y-71484867D01*
X134970739Y-71688464D01*
X134967457Y-71700713D01*
X134947502Y-71928800D01*
X134967457Y-72156887D01*
X134968881Y-72162200D01*
X134968881Y-72162202D01*
X135015000Y-72334317D01*
X135026716Y-72378043D01*
X135029039Y-72383024D01*
X135029039Y-72383025D01*
X135121151Y-72580562D01*
X135121154Y-72580567D01*
X135123477Y-72585549D01*
X135196902Y-72690411D01*
X135242936Y-72756153D01*
X135254802Y-72773100D01*
X135416700Y-72934998D01*
X135421208Y-72938155D01*
X135421211Y-72938157D01*
X135573771Y-73044981D01*
X135618099Y-73100438D01*
X135627500Y-73148194D01*
X135627500Y-76187829D01*
X135607498Y-76255950D01*
X135601062Y-76265052D01*
X135594386Y-76273659D01*
X135591241Y-76280928D01*
X135591238Y-76280932D01*
X135576826Y-76314237D01*
X135571604Y-76324896D01*
X135557694Y-76350199D01*
X135507350Y-76400259D01*
X135447279Y-76415500D01*
X135295866Y-76415500D01*
X135233684Y-76422255D01*
X135097295Y-76473385D01*
X134980739Y-76560739D01*
X134893385Y-76677295D01*
X134842255Y-76813684D01*
X134835500Y-76875866D01*
X134835500Y-78572134D01*
X134842255Y-78634316D01*
X134893385Y-78770705D01*
X134980739Y-78887261D01*
X135097295Y-78974615D01*
X135233684Y-79025745D01*
X135244474Y-79026917D01*
X135246606Y-79027803D01*
X135249222Y-79028425D01*
X135249121Y-79028848D01*
X135310035Y-79054155D01*
X135350463Y-79112517D01*
X135352922Y-79183471D01*
X135316629Y-79244490D01*
X135307969Y-79251489D01*
X135304207Y-79254646D01*
X135299700Y-79257802D01*
X135137802Y-79419700D01*
X135006477Y-79607251D01*
X135004154Y-79612233D01*
X135004151Y-79612238D01*
X134941386Y-79746840D01*
X134909716Y-79814757D01*
X134908294Y-79820065D01*
X134908293Y-79820067D01*
X134851881Y-80030598D01*
X134850457Y-80035913D01*
X134830502Y-80264000D01*
X134850457Y-80492087D01*
X134851881Y-80497400D01*
X134851881Y-80497402D01*
X134875559Y-80585767D01*
X134909716Y-80713243D01*
X134912039Y-80718224D01*
X134912039Y-80718225D01*
X135004151Y-80915762D01*
X135004154Y-80915767D01*
X135006477Y-80920749D01*
X135009634Y-80925257D01*
X135130084Y-81097277D01*
X135137802Y-81108300D01*
X135299700Y-81270198D01*
X135304208Y-81273355D01*
X135304211Y-81273357D01*
X135305828Y-81274489D01*
X135487251Y-81401523D01*
X135492233Y-81403846D01*
X135492238Y-81403849D01*
X135526457Y-81419805D01*
X135579742Y-81466722D01*
X135599203Y-81534999D01*
X135578661Y-81602959D01*
X135526457Y-81648195D01*
X135492238Y-81664151D01*
X135492233Y-81664154D01*
X135487251Y-81666477D01*
X135407436Y-81722364D01*
X135304211Y-81794643D01*
X135304208Y-81794645D01*
X135299700Y-81797802D01*
X135137802Y-81959700D01*
X135134645Y-81964208D01*
X135134643Y-81964211D01*
X135027819Y-82116771D01*
X134972362Y-82161099D01*
X134924606Y-82170500D01*
X132784895Y-82170500D01*
X132716774Y-82150498D01*
X132681682Y-82116771D01*
X132571357Y-81959211D01*
X132571355Y-81959208D01*
X132568198Y-81954700D01*
X132406300Y-81792802D01*
X132401792Y-81789645D01*
X132401789Y-81789643D01*
X132295303Y-81715081D01*
X132218749Y-81661477D01*
X132213767Y-81659154D01*
X132213762Y-81659151D01*
X132016225Y-81567039D01*
X132016224Y-81567039D01*
X132011243Y-81564716D01*
X132005935Y-81563294D01*
X132005933Y-81563293D01*
X131795402Y-81506881D01*
X131795400Y-81506881D01*
X131790087Y-81505457D01*
X131562000Y-81485502D01*
X131333913Y-81505457D01*
X131328600Y-81506881D01*
X131328598Y-81506881D01*
X131118067Y-81563293D01*
X131118065Y-81563294D01*
X131112757Y-81564716D01*
X131107776Y-81567039D01*
X131107775Y-81567039D01*
X130910238Y-81659151D01*
X130910233Y-81659154D01*
X130905251Y-81661477D01*
X130828697Y-81715081D01*
X130722211Y-81789643D01*
X130722208Y-81789645D01*
X130717700Y-81792802D01*
X130555802Y-81954700D01*
X130424477Y-82142251D01*
X130422154Y-82147233D01*
X130422151Y-82147238D01*
X130331743Y-82341121D01*
X130327716Y-82349757D01*
X130326294Y-82355065D01*
X130326293Y-82355067D01*
X130271716Y-82558751D01*
X130268457Y-82570913D01*
X130248502Y-82799000D01*
X120661205Y-82799000D01*
X120400952Y-82538747D01*
X120393412Y-82530461D01*
X120389300Y-82523982D01*
X120339648Y-82477356D01*
X120336807Y-82474602D01*
X120317070Y-82454865D01*
X120313873Y-82452385D01*
X120304851Y-82444680D01*
X120295993Y-82436362D01*
X120272621Y-82414414D01*
X120265675Y-82410595D01*
X120265672Y-82410593D01*
X120254866Y-82404652D01*
X120238347Y-82393801D01*
X120237883Y-82393441D01*
X120222341Y-82381386D01*
X120215072Y-82378241D01*
X120215068Y-82378238D01*
X120181763Y-82363826D01*
X120171113Y-82358609D01*
X120132360Y-82337305D01*
X120112737Y-82332267D01*
X120094034Y-82325863D01*
X120082720Y-82320967D01*
X120082719Y-82320967D01*
X120075445Y-82317819D01*
X120067622Y-82316580D01*
X120067612Y-82316577D01*
X120031776Y-82310901D01*
X120020156Y-82308495D01*
X119985012Y-82299472D01*
X119985009Y-82299472D01*
X119981702Y-82298622D01*
X119977331Y-82297500D01*
X119977643Y-82296285D01*
X119919848Y-82271079D01*
X119894924Y-82242894D01*
X119804822Y-82103617D01*
X119804820Y-82103614D01*
X119802014Y-82099277D01*
X119651670Y-81934051D01*
X119647619Y-81930852D01*
X119647615Y-81930848D01*
X119480414Y-81798800D01*
X119480410Y-81798798D01*
X119476359Y-81795598D01*
X119435053Y-81772796D01*
X119385084Y-81722364D01*
X119370312Y-81652921D01*
X119395428Y-81586516D01*
X119422780Y-81559909D01*
X119466603Y-81528650D01*
X119601860Y-81432173D01*
X119614272Y-81419805D01*
X119756435Y-81278137D01*
X119760096Y-81274489D01*
X119763180Y-81270198D01*
X119887435Y-81097277D01*
X119890453Y-81093077D01*
X119973395Y-80925257D01*
X119987136Y-80897453D01*
X119987137Y-80897451D01*
X119989430Y-80892811D01*
X120021900Y-80785940D01*
X120052865Y-80684023D01*
X120052865Y-80684021D01*
X120054370Y-80679069D01*
X120083529Y-80457590D01*
X120085156Y-80391000D01*
X120066852Y-80168361D01*
X120012431Y-79951702D01*
X119923354Y-79746840D01*
X119883906Y-79685862D01*
X119804822Y-79563617D01*
X119804820Y-79563614D01*
X119802014Y-79559277D01*
X119651670Y-79394051D01*
X119647619Y-79390852D01*
X119647615Y-79390848D01*
X119480414Y-79258800D01*
X119480410Y-79258798D01*
X119476359Y-79255598D01*
X119468226Y-79251108D01*
X119434569Y-79232529D01*
X119384598Y-79182097D01*
X119369826Y-79112654D01*
X119394942Y-79046248D01*
X119422294Y-79019641D01*
X119597328Y-78894792D01*
X119605200Y-78888139D01*
X119756052Y-78737812D01*
X119762730Y-78729965D01*
X119783025Y-78701722D01*
X126433414Y-78701722D01*
X126477409Y-78865915D01*
X126481155Y-78876207D01*
X126570424Y-79067644D01*
X126575902Y-79077130D01*
X126697048Y-79250146D01*
X126704102Y-79258553D01*
X126853445Y-79407896D01*
X126861853Y-79414952D01*
X127034865Y-79536096D01*
X127044361Y-79541579D01*
X127235793Y-79630845D01*
X127246085Y-79634591D01*
X127405303Y-79677253D01*
X127419399Y-79676917D01*
X127422800Y-79668975D01*
X127422800Y-79663826D01*
X127930800Y-79663826D01*
X127934773Y-79677357D01*
X127943322Y-79678586D01*
X128107515Y-79634591D01*
X128117807Y-79630845D01*
X128309239Y-79541579D01*
X128318735Y-79536096D01*
X128491747Y-79414952D01*
X128500155Y-79407896D01*
X128649498Y-79258553D01*
X128656552Y-79250146D01*
X128777698Y-79077130D01*
X128783176Y-79067644D01*
X128872445Y-78876207D01*
X128876191Y-78865915D01*
X128918853Y-78706697D01*
X128918517Y-78692601D01*
X128910575Y-78689200D01*
X127948915Y-78689200D01*
X127933676Y-78693675D01*
X127932471Y-78695065D01*
X127930800Y-78702748D01*
X127930800Y-79663826D01*
X127422800Y-79663826D01*
X127422800Y-78707315D01*
X127418325Y-78692076D01*
X127416935Y-78690871D01*
X127409252Y-78689200D01*
X126448174Y-78689200D01*
X126434643Y-78693173D01*
X126433414Y-78701722D01*
X119783025Y-78701722D01*
X119887003Y-78557020D01*
X119892313Y-78548183D01*
X119948153Y-78435200D01*
X130922647Y-78435200D01*
X130942022Y-78656663D01*
X130961726Y-78730198D01*
X130996915Y-78861523D01*
X130999560Y-78871396D01*
X131001882Y-78876377D01*
X131001883Y-78876378D01*
X131091186Y-79067889D01*
X131091189Y-79067894D01*
X131093512Y-79072876D01*
X131096668Y-79077383D01*
X131096669Y-79077385D01*
X131217638Y-79250146D01*
X131221023Y-79254981D01*
X131378219Y-79412177D01*
X131382727Y-79415334D01*
X131382730Y-79415336D01*
X131395405Y-79424211D01*
X131560323Y-79539688D01*
X131565305Y-79542011D01*
X131565310Y-79542014D01*
X131715907Y-79612238D01*
X131761804Y-79633640D01*
X131767112Y-79635062D01*
X131767114Y-79635063D01*
X131832949Y-79652703D01*
X131976537Y-79691178D01*
X132198000Y-79710553D01*
X132419463Y-79691178D01*
X132563051Y-79652703D01*
X132628886Y-79635063D01*
X132628888Y-79635062D01*
X132634196Y-79633640D01*
X132680093Y-79612238D01*
X132830690Y-79542014D01*
X132830695Y-79542011D01*
X132835677Y-79539688D01*
X133000595Y-79424211D01*
X133013270Y-79415336D01*
X133013273Y-79415334D01*
X133017781Y-79412177D01*
X133174977Y-79254981D01*
X133178363Y-79250146D01*
X133299331Y-79077385D01*
X133299332Y-79077383D01*
X133302488Y-79072876D01*
X133304811Y-79067894D01*
X133304814Y-79067889D01*
X133394117Y-78876378D01*
X133394118Y-78876377D01*
X133396440Y-78871396D01*
X133399086Y-78861523D01*
X133434274Y-78730198D01*
X133453978Y-78656663D01*
X133473353Y-78435200D01*
X133453978Y-78213737D01*
X133397909Y-78004485D01*
X133397863Y-78004314D01*
X133397862Y-78004312D01*
X133396440Y-77999004D01*
X133394117Y-77994022D01*
X133304814Y-77802511D01*
X133304811Y-77802506D01*
X133302488Y-77797524D01*
X133251006Y-77724000D01*
X133178136Y-77619930D01*
X133178134Y-77619927D01*
X133174977Y-77615419D01*
X133017781Y-77458223D01*
X133013273Y-77455066D01*
X133013270Y-77455064D01*
X132900045Y-77375783D01*
X132835677Y-77330712D01*
X132830695Y-77328389D01*
X132830690Y-77328386D01*
X132639178Y-77239083D01*
X132639177Y-77239082D01*
X132634196Y-77236760D01*
X132628888Y-77235338D01*
X132628886Y-77235337D01*
X132521541Y-77206574D01*
X132419463Y-77179222D01*
X132198000Y-77159847D01*
X131976537Y-77179222D01*
X131874459Y-77206574D01*
X131767114Y-77235337D01*
X131767112Y-77235338D01*
X131761804Y-77236760D01*
X131756823Y-77239082D01*
X131756822Y-77239083D01*
X131565311Y-77328386D01*
X131565306Y-77328389D01*
X131560324Y-77330712D01*
X131555817Y-77333868D01*
X131555815Y-77333869D01*
X131382730Y-77455064D01*
X131382727Y-77455066D01*
X131378219Y-77458223D01*
X131221023Y-77615419D01*
X131217866Y-77619927D01*
X131217864Y-77619930D01*
X131144994Y-77724000D01*
X131093512Y-77797524D01*
X131091189Y-77802506D01*
X131091186Y-77802511D01*
X131001883Y-77994022D01*
X130999560Y-77999004D01*
X130998138Y-78004312D01*
X130998137Y-78004314D01*
X130998091Y-78004485D01*
X130942022Y-78213737D01*
X130922647Y-78435200D01*
X119948153Y-78435200D01*
X119986670Y-78357267D01*
X119990469Y-78347672D01*
X120046363Y-78163703D01*
X126434747Y-78163703D01*
X126435083Y-78177799D01*
X126443025Y-78181200D01*
X127404685Y-78181200D01*
X127419924Y-78176725D01*
X127421129Y-78175335D01*
X127422800Y-78167652D01*
X127422800Y-78163085D01*
X127930800Y-78163085D01*
X127935275Y-78178324D01*
X127936665Y-78179529D01*
X127944348Y-78181200D01*
X128905426Y-78181200D01*
X128918957Y-78177227D01*
X128920186Y-78168678D01*
X128876191Y-78004485D01*
X128872445Y-77994193D01*
X128783176Y-77802756D01*
X128777698Y-77793270D01*
X128656552Y-77620254D01*
X128649498Y-77611847D01*
X128500155Y-77462504D01*
X128491747Y-77455448D01*
X128318735Y-77334304D01*
X128309239Y-77328821D01*
X128117807Y-77239555D01*
X128107515Y-77235809D01*
X127948297Y-77193147D01*
X127934201Y-77193483D01*
X127930800Y-77201425D01*
X127930800Y-78163085D01*
X127422800Y-78163085D01*
X127422800Y-77206574D01*
X127418827Y-77193043D01*
X127410278Y-77191814D01*
X127246085Y-77235809D01*
X127235793Y-77239555D01*
X127044356Y-77328824D01*
X127034870Y-77334302D01*
X126861854Y-77455448D01*
X126853447Y-77462502D01*
X126704102Y-77611847D01*
X126697048Y-77620254D01*
X126575902Y-77793270D01*
X126570424Y-77802756D01*
X126481155Y-77994193D01*
X126477409Y-78004485D01*
X126434747Y-78163703D01*
X120046363Y-78163703D01*
X120052377Y-78143910D01*
X120054555Y-78133837D01*
X120055986Y-78122962D01*
X120053775Y-78108778D01*
X120040617Y-78105000D01*
X117405225Y-78105000D01*
X117391694Y-78108973D01*
X117390257Y-78118966D01*
X117420565Y-78253446D01*
X117423645Y-78263275D01*
X117503770Y-78460603D01*
X117508413Y-78469794D01*
X117619694Y-78651388D01*
X117625777Y-78659699D01*
X117765213Y-78820667D01*
X117772580Y-78827883D01*
X117936434Y-78963916D01*
X117944881Y-78969831D01*
X118013969Y-79010203D01*
X118062693Y-79061842D01*
X118075764Y-79131625D01*
X118049033Y-79197396D01*
X118008584Y-79230752D01*
X117995607Y-79237507D01*
X117991474Y-79240610D01*
X117991471Y-79240612D01*
X117846996Y-79349087D01*
X117816965Y-79371635D01*
X117662629Y-79533138D01*
X117659715Y-79537410D01*
X117659714Y-79537411D01*
X117608671Y-79612238D01*
X117536743Y-79717680D01*
X117442688Y-79920305D01*
X117382989Y-80135570D01*
X117359251Y-80357695D01*
X117359548Y-80362848D01*
X117359548Y-80362851D01*
X117365011Y-80457590D01*
X117372110Y-80580715D01*
X117373247Y-80585761D01*
X117373248Y-80585767D01*
X117393119Y-80673939D01*
X117421222Y-80798639D01*
X117505266Y-81005616D01*
X117621987Y-81196088D01*
X117768250Y-81364938D01*
X117940126Y-81507632D01*
X117983540Y-81533001D01*
X118013445Y-81550476D01*
X118062169Y-81602114D01*
X118075240Y-81671897D01*
X118048509Y-81737669D01*
X118008055Y-81771027D01*
X117995607Y-81777507D01*
X117991474Y-81780610D01*
X117991471Y-81780612D01*
X117871215Y-81870903D01*
X117816965Y-81911635D01*
X117662629Y-82073138D01*
X117659715Y-82077410D01*
X117659714Y-82077411D01*
X117598320Y-82167411D01*
X117536743Y-82257680D01*
X117498905Y-82339195D01*
X117461471Y-82419841D01*
X117442688Y-82460305D01*
X117382989Y-82675570D01*
X117359251Y-82897695D01*
X116078000Y-82897695D01*
X116078000Y-75277695D01*
X117359251Y-75277695D01*
X117359548Y-75282848D01*
X117359548Y-75282851D01*
X117367871Y-75427203D01*
X117372110Y-75500715D01*
X117373247Y-75505761D01*
X117373248Y-75505767D01*
X117394275Y-75599069D01*
X117421222Y-75718639D01*
X117505266Y-75925616D01*
X117621987Y-76116088D01*
X117768250Y-76284938D01*
X117940126Y-76427632D01*
X117996255Y-76460431D01*
X118013955Y-76470774D01*
X118062679Y-76522412D01*
X118075750Y-76592195D01*
X118049019Y-76657967D01*
X118008562Y-76691327D01*
X118000457Y-76695546D01*
X117991738Y-76701036D01*
X117821433Y-76828905D01*
X117813726Y-76835748D01*
X117666590Y-76989717D01*
X117660104Y-76997727D01*
X117540098Y-77173649D01*
X117535000Y-77182623D01*
X117445338Y-77375783D01*
X117441775Y-77385470D01*
X117386389Y-77585183D01*
X117387912Y-77593607D01*
X117400292Y-77597000D01*
X120040344Y-77597000D01*
X120053875Y-77593027D01*
X120055180Y-77583947D01*
X120013214Y-77416875D01*
X120009894Y-77407124D01*
X119924972Y-77211814D01*
X119920105Y-77202739D01*
X119804426Y-77023926D01*
X119798136Y-77015757D01*
X119654806Y-76858240D01*
X119647273Y-76851215D01*
X119480139Y-76719222D01*
X119471556Y-76713520D01*
X119434602Y-76693120D01*
X119384631Y-76642687D01*
X119369859Y-76573245D01*
X119394975Y-76506839D01*
X119422327Y-76480232D01*
X119492109Y-76430457D01*
X119601860Y-76352173D01*
X119613180Y-76340893D01*
X119756435Y-76198137D01*
X119760096Y-76194489D01*
X119784081Y-76161111D01*
X119887435Y-76017277D01*
X119890453Y-76013077D01*
X119906551Y-75980506D01*
X119987136Y-75817453D01*
X119987137Y-75817451D01*
X119989430Y-75812811D01*
X120029812Y-75679900D01*
X120052865Y-75604023D01*
X120052865Y-75604021D01*
X120054370Y-75599069D01*
X120083529Y-75377590D01*
X120085156Y-75311000D01*
X120066852Y-75088361D01*
X120012431Y-74871702D01*
X119923354Y-74666840D01*
X119851252Y-74555387D01*
X119804822Y-74483617D01*
X119804820Y-74483614D01*
X119802014Y-74479277D01*
X119651670Y-74314051D01*
X119647619Y-74310852D01*
X119647615Y-74310848D01*
X119480414Y-74178800D01*
X119480410Y-74178798D01*
X119476359Y-74175598D01*
X119435053Y-74152796D01*
X119385084Y-74102364D01*
X119370312Y-74032921D01*
X119395428Y-73966516D01*
X119422780Y-73939909D01*
X119466603Y-73908650D01*
X119601860Y-73812173D01*
X119760096Y-73654489D01*
X119789882Y-73613038D01*
X119887435Y-73477277D01*
X119890453Y-73473077D01*
X119896085Y-73461683D01*
X119987136Y-73277453D01*
X119987137Y-73277451D01*
X119989430Y-73272811D01*
X120032443Y-73131240D01*
X120052865Y-73064023D01*
X120052865Y-73064021D01*
X120054370Y-73059069D01*
X120083529Y-72837590D01*
X120084394Y-72802189D01*
X120085074Y-72774365D01*
X120085074Y-72774361D01*
X120085156Y-72771000D01*
X120066852Y-72548361D01*
X120012431Y-72331702D01*
X119954870Y-72199322D01*
X126433414Y-72199322D01*
X126477409Y-72363515D01*
X126481155Y-72373807D01*
X126570424Y-72565244D01*
X126575902Y-72574730D01*
X126697048Y-72747746D01*
X126704102Y-72756153D01*
X126853445Y-72905496D01*
X126861853Y-72912552D01*
X127034865Y-73033696D01*
X127044361Y-73039179D01*
X127235793Y-73128445D01*
X127246085Y-73132191D01*
X127405303Y-73174853D01*
X127419399Y-73174517D01*
X127422800Y-73166575D01*
X127422800Y-73161426D01*
X127930800Y-73161426D01*
X127934773Y-73174957D01*
X127943322Y-73176186D01*
X128107515Y-73132191D01*
X128117807Y-73128445D01*
X128309239Y-73039179D01*
X128318735Y-73033696D01*
X128491747Y-72912552D01*
X128500155Y-72905496D01*
X128649498Y-72756153D01*
X128656552Y-72747746D01*
X128777698Y-72574730D01*
X128783176Y-72565244D01*
X128872445Y-72373807D01*
X128876191Y-72363515D01*
X128918853Y-72204297D01*
X128918517Y-72190201D01*
X128910575Y-72186800D01*
X127948915Y-72186800D01*
X127933676Y-72191275D01*
X127932471Y-72192665D01*
X127930800Y-72200348D01*
X127930800Y-73161426D01*
X127422800Y-73161426D01*
X127422800Y-72204915D01*
X127418325Y-72189676D01*
X127416935Y-72188471D01*
X127409252Y-72186800D01*
X126448174Y-72186800D01*
X126434643Y-72190773D01*
X126433414Y-72199322D01*
X119954870Y-72199322D01*
X119923354Y-72126840D01*
X119802014Y-71939277D01*
X119796120Y-71932800D01*
X130922647Y-71932800D01*
X130942022Y-72154263D01*
X130977455Y-72286500D01*
X130990912Y-72336720D01*
X130999560Y-72368996D01*
X131001882Y-72373977D01*
X131001883Y-72373978D01*
X131091186Y-72565489D01*
X131091189Y-72565494D01*
X131093512Y-72570476D01*
X131096668Y-72574983D01*
X131096669Y-72574985D01*
X131217638Y-72747746D01*
X131221023Y-72752581D01*
X131378219Y-72909777D01*
X131382727Y-72912934D01*
X131382730Y-72912936D01*
X131443585Y-72955547D01*
X131560323Y-73037288D01*
X131565305Y-73039611D01*
X131565310Y-73039614D01*
X131755810Y-73128445D01*
X131761804Y-73131240D01*
X131767112Y-73132662D01*
X131767114Y-73132663D01*
X131825077Y-73148194D01*
X131976537Y-73188778D01*
X132198000Y-73208153D01*
X132419463Y-73188778D01*
X132570923Y-73148194D01*
X132628886Y-73132663D01*
X132628888Y-73132662D01*
X132634196Y-73131240D01*
X132640190Y-73128445D01*
X132830690Y-73039614D01*
X132830695Y-73039611D01*
X132835677Y-73037288D01*
X132952415Y-72955547D01*
X133013270Y-72912936D01*
X133013273Y-72912934D01*
X133017781Y-72909777D01*
X133174977Y-72752581D01*
X133178363Y-72747746D01*
X133299331Y-72574985D01*
X133299332Y-72574983D01*
X133302488Y-72570476D01*
X133304811Y-72565494D01*
X133304814Y-72565489D01*
X133394117Y-72373978D01*
X133394118Y-72373977D01*
X133396440Y-72368996D01*
X133405089Y-72336720D01*
X133418545Y-72286500D01*
X133453978Y-72154263D01*
X133473353Y-71932800D01*
X133453978Y-71711337D01*
X133396440Y-71496604D01*
X133388105Y-71478729D01*
X133304814Y-71300111D01*
X133304811Y-71300106D01*
X133302488Y-71295124D01*
X133272547Y-71252364D01*
X133178136Y-71117530D01*
X133178134Y-71117527D01*
X133174977Y-71113019D01*
X133017781Y-70955823D01*
X133013273Y-70952666D01*
X133013270Y-70952664D01*
X132937505Y-70899613D01*
X132835677Y-70828312D01*
X132830695Y-70825989D01*
X132830690Y-70825986D01*
X132639178Y-70736683D01*
X132639177Y-70736682D01*
X132634196Y-70734360D01*
X132628888Y-70732938D01*
X132628886Y-70732937D01*
X132521541Y-70704174D01*
X132419463Y-70676822D01*
X132198000Y-70657447D01*
X131976537Y-70676822D01*
X131874459Y-70704174D01*
X131767114Y-70732937D01*
X131767112Y-70732938D01*
X131761804Y-70734360D01*
X131756823Y-70736682D01*
X131756822Y-70736683D01*
X131565311Y-70825986D01*
X131565306Y-70825989D01*
X131560324Y-70828312D01*
X131555817Y-70831468D01*
X131555815Y-70831469D01*
X131382730Y-70952664D01*
X131382727Y-70952666D01*
X131378219Y-70955823D01*
X131221023Y-71113019D01*
X131217866Y-71117527D01*
X131217864Y-71117530D01*
X131123453Y-71252364D01*
X131093512Y-71295124D01*
X131091189Y-71300106D01*
X131091186Y-71300111D01*
X131007895Y-71478729D01*
X130999560Y-71496604D01*
X130942022Y-71711337D01*
X130922647Y-71932800D01*
X119796120Y-71932800D01*
X119651670Y-71774051D01*
X119647619Y-71770852D01*
X119647615Y-71770848D01*
X119508908Y-71661303D01*
X126434747Y-71661303D01*
X126435083Y-71675399D01*
X126443025Y-71678800D01*
X127404685Y-71678800D01*
X127419924Y-71674325D01*
X127421129Y-71672935D01*
X127422800Y-71665252D01*
X127422800Y-71660685D01*
X127930800Y-71660685D01*
X127935275Y-71675924D01*
X127936665Y-71677129D01*
X127944348Y-71678800D01*
X128905426Y-71678800D01*
X128918957Y-71674827D01*
X128920186Y-71666278D01*
X128876191Y-71502085D01*
X128872445Y-71491793D01*
X128783176Y-71300356D01*
X128777698Y-71290870D01*
X128656552Y-71117854D01*
X128649498Y-71109447D01*
X128500155Y-70960104D01*
X128491747Y-70953048D01*
X128318735Y-70831904D01*
X128309239Y-70826421D01*
X128117807Y-70737155D01*
X128107515Y-70733409D01*
X127948297Y-70690747D01*
X127934201Y-70691083D01*
X127930800Y-70699025D01*
X127930800Y-71660685D01*
X127422800Y-71660685D01*
X127422800Y-70704174D01*
X127418827Y-70690643D01*
X127410278Y-70689414D01*
X127246085Y-70733409D01*
X127235793Y-70737155D01*
X127044356Y-70826424D01*
X127034870Y-70831902D01*
X126861854Y-70953048D01*
X126853447Y-70960102D01*
X126704102Y-71109447D01*
X126697048Y-71117854D01*
X126575902Y-71290870D01*
X126570424Y-71300356D01*
X126481155Y-71491793D01*
X126477409Y-71502085D01*
X126434747Y-71661303D01*
X119508908Y-71661303D01*
X119480414Y-71638800D01*
X119480410Y-71638798D01*
X119476359Y-71635598D01*
X119453665Y-71623070D01*
X119424136Y-71606769D01*
X119280789Y-71527638D01*
X119275920Y-71525914D01*
X119275916Y-71525912D01*
X119075087Y-71454795D01*
X119075083Y-71454794D01*
X119070212Y-71453069D01*
X119065119Y-71452162D01*
X119065116Y-71452161D01*
X118855373Y-71414800D01*
X118855367Y-71414799D01*
X118850284Y-71413894D01*
X118776452Y-71412992D01*
X118632081Y-71411228D01*
X118632079Y-71411228D01*
X118626911Y-71411165D01*
X118406091Y-71444955D01*
X118193756Y-71514357D01*
X118163443Y-71530137D01*
X118012660Y-71608630D01*
X117995607Y-71617507D01*
X117991474Y-71620610D01*
X117991471Y-71620612D01*
X117835338Y-71737840D01*
X117816965Y-71751635D01*
X117662629Y-71913138D01*
X117536743Y-72097680D01*
X117442688Y-72300305D01*
X117382989Y-72515570D01*
X117359251Y-72737695D01*
X117359548Y-72742848D01*
X117359548Y-72742851D01*
X117370491Y-72932634D01*
X117372110Y-72960715D01*
X117373247Y-72965761D01*
X117373248Y-72965767D01*
X117410540Y-73131240D01*
X117421222Y-73178639D01*
X117505266Y-73385616D01*
X117507965Y-73390020D01*
X117588946Y-73522169D01*
X117621987Y-73576088D01*
X117768250Y-73744938D01*
X117940126Y-73887632D01*
X117979510Y-73910646D01*
X118013445Y-73930476D01*
X118062169Y-73982114D01*
X118075240Y-74051897D01*
X118048509Y-74117669D01*
X118008055Y-74151027D01*
X117995607Y-74157507D01*
X117991474Y-74160610D01*
X117991471Y-74160612D01*
X117821100Y-74288530D01*
X117816965Y-74291635D01*
X117662629Y-74453138D01*
X117536743Y-74637680D01*
X117442688Y-74840305D01*
X117382989Y-75055570D01*
X117359251Y-75277695D01*
X116078000Y-75277695D01*
X116078000Y-70104000D01*
X158325502Y-70104000D01*
X158345457Y-70332087D01*
X158346881Y-70337400D01*
X158346881Y-70337402D01*
X158398930Y-70531648D01*
X158404716Y-70553243D01*
X158407039Y-70558224D01*
X158407039Y-70558225D01*
X158499151Y-70755762D01*
X158499154Y-70755767D01*
X158501477Y-70760749D01*
X158574902Y-70865611D01*
X158617537Y-70926499D01*
X158632802Y-70948300D01*
X158794700Y-71110198D01*
X158799208Y-71113355D01*
X158799211Y-71113357D01*
X158951771Y-71220181D01*
X158996099Y-71275638D01*
X159005500Y-71323394D01*
X159005500Y-74652133D01*
X159004973Y-74663316D01*
X159003298Y-74670809D01*
X159003547Y-74678735D01*
X159003547Y-74678736D01*
X159005438Y-74738886D01*
X159005500Y-74742845D01*
X159005500Y-74770756D01*
X159005997Y-74774690D01*
X159005997Y-74774691D01*
X159006005Y-74774756D01*
X159006938Y-74786593D01*
X159008327Y-74830789D01*
X159011092Y-74840305D01*
X159013978Y-74850239D01*
X159017987Y-74869600D01*
X159018887Y-74876720D01*
X159020526Y-74889697D01*
X159023445Y-74897068D01*
X159023445Y-74897070D01*
X159036804Y-74930812D01*
X159040649Y-74942042D01*
X159052982Y-74984493D01*
X159057015Y-74991312D01*
X159057017Y-74991317D01*
X159063293Y-75001928D01*
X159071988Y-75019676D01*
X159079448Y-75038517D01*
X159084110Y-75044933D01*
X159084110Y-75044934D01*
X159105436Y-75074287D01*
X159111952Y-75084207D01*
X159134458Y-75122262D01*
X159148779Y-75136583D01*
X159161619Y-75151616D01*
X159173528Y-75168007D01*
X159179634Y-75173058D01*
X159207605Y-75196198D01*
X159216384Y-75204188D01*
X162230043Y-78217847D01*
X162237587Y-78226137D01*
X162241700Y-78232618D01*
X162247477Y-78238043D01*
X162291367Y-78279258D01*
X162294209Y-78282013D01*
X162313931Y-78301735D01*
X162317073Y-78304172D01*
X162317133Y-78304219D01*
X162326145Y-78311917D01*
X162351736Y-78335947D01*
X162358379Y-78342186D01*
X162365322Y-78346003D01*
X162376131Y-78351945D01*
X162392653Y-78362798D01*
X162408659Y-78375214D01*
X162415937Y-78378364D01*
X162415938Y-78378364D01*
X162449237Y-78392774D01*
X162459887Y-78397991D01*
X162498640Y-78419295D01*
X162499257Y-78419454D01*
X162552676Y-78461132D01*
X162568301Y-78490382D01*
X162597668Y-78568717D01*
X162608385Y-78597305D01*
X162695739Y-78713861D01*
X162812295Y-78801215D01*
X162948684Y-78852345D01*
X163010866Y-78859100D01*
X164607134Y-78859100D01*
X164669316Y-78852345D01*
X164805705Y-78801215D01*
X164922261Y-78713861D01*
X165009615Y-78597305D01*
X165060745Y-78460916D01*
X165067500Y-78398734D01*
X165067500Y-77252466D01*
X165060745Y-77190284D01*
X165045260Y-77148977D01*
X165012768Y-77062304D01*
X165012766Y-77062301D01*
X165009615Y-77053895D01*
X165004227Y-77046706D01*
X165004094Y-77046463D01*
X164988924Y-76977106D01*
X164994248Y-76948692D01*
X165031329Y-76828905D01*
X165051290Y-76764420D01*
X165058973Y-76691327D01*
X165071832Y-76568978D01*
X165071832Y-76568977D01*
X165072476Y-76562850D01*
X165060557Y-76431881D01*
X165054665Y-76367143D01*
X165054664Y-76367140D01*
X165054106Y-76361004D01*
X165050435Y-76348529D01*
X165005098Y-76194489D01*
X164996881Y-76166571D01*
X164994027Y-76161111D01*
X164905838Y-75992419D01*
X164905835Y-75992415D01*
X164902981Y-75986955D01*
X164902779Y-75986703D01*
X164882799Y-75920688D01*
X164897959Y-75859715D01*
X164987962Y-75693258D01*
X164992714Y-75681953D01*
X165031422Y-75556908D01*
X165031628Y-75542805D01*
X165024873Y-75539600D01*
X164255242Y-75539600D01*
X164241197Y-75538815D01*
X164226799Y-75537200D01*
X164092183Y-75522100D01*
X163532996Y-75522100D01*
X163382287Y-75536877D01*
X163379998Y-75537568D01*
X163359276Y-75539600D01*
X162600014Y-75539600D01*
X162586483Y-75543573D01*
X162585363Y-75551368D01*
X162619846Y-75668532D01*
X162624439Y-75679900D01*
X162712584Y-75848507D01*
X162714597Y-75851583D01*
X162715154Y-75853422D01*
X162715440Y-75853970D01*
X162715336Y-75854024D01*
X162735161Y-75919536D01*
X162720001Y-75980506D01*
X162626644Y-76153165D01*
X162622494Y-76166571D01*
X162571441Y-76331498D01*
X162566710Y-76346780D01*
X162557766Y-76431881D01*
X162554765Y-76460431D01*
X162527752Y-76526088D01*
X162469530Y-76566718D01*
X162398585Y-76569421D01*
X162340360Y-76536356D01*
X161417974Y-75613969D01*
X160832400Y-75028395D01*
X162586372Y-75028395D01*
X162593127Y-75031600D01*
X163536885Y-75031600D01*
X163552124Y-75027125D01*
X163553329Y-75025735D01*
X163555000Y-75018052D01*
X163555000Y-75013485D01*
X164063000Y-75013485D01*
X164067475Y-75028724D01*
X164068865Y-75029929D01*
X164076548Y-75031600D01*
X165017986Y-75031600D01*
X165031517Y-75027627D01*
X165032637Y-75019832D01*
X164998154Y-74902668D01*
X164993561Y-74891300D01*
X164905414Y-74722689D01*
X164898698Y-74712427D01*
X164779485Y-74564157D01*
X164770897Y-74555387D01*
X164625162Y-74433101D01*
X164615031Y-74426163D01*
X164448308Y-74334506D01*
X164437038Y-74329676D01*
X164255685Y-74272148D01*
X164243691Y-74269598D01*
X164095650Y-74252993D01*
X164088626Y-74252600D01*
X164081115Y-74252600D01*
X164065876Y-74257075D01*
X164064671Y-74258465D01*
X164063000Y-74266148D01*
X164063000Y-75013485D01*
X163555000Y-75013485D01*
X163555000Y-74270715D01*
X163550525Y-74255476D01*
X163549135Y-74254271D01*
X163541452Y-74252600D01*
X163536110Y-74252600D01*
X163529965Y-74252900D01*
X163388519Y-74266770D01*
X163376481Y-74269153D01*
X163194349Y-74324142D01*
X163183007Y-74328817D01*
X163015023Y-74418135D01*
X163004807Y-74424922D01*
X162857366Y-74545172D01*
X162848662Y-74553816D01*
X162727390Y-74700409D01*
X162720530Y-74710580D01*
X162630038Y-74877942D01*
X162625286Y-74889247D01*
X162586578Y-75014292D01*
X162586372Y-75028395D01*
X160832400Y-75028395D01*
X160309405Y-74505400D01*
X160275379Y-74443088D01*
X160272500Y-74416305D01*
X160272500Y-71323394D01*
X160292502Y-71255273D01*
X160326229Y-71220181D01*
X160478789Y-71113357D01*
X160478792Y-71113355D01*
X160483300Y-71110198D01*
X160645198Y-70948300D01*
X160660464Y-70926499D01*
X160703098Y-70865611D01*
X160776523Y-70760749D01*
X160778846Y-70755767D01*
X160778849Y-70755762D01*
X160870961Y-70558225D01*
X160870961Y-70558224D01*
X160873284Y-70553243D01*
X160879071Y-70531648D01*
X160931119Y-70337402D01*
X160931119Y-70337400D01*
X160932543Y-70332087D01*
X160952498Y-70104000D01*
X160932543Y-69875913D01*
X160873284Y-69654757D01*
X160846767Y-69597890D01*
X160778849Y-69452238D01*
X160778846Y-69452233D01*
X160776523Y-69447251D01*
X160645198Y-69259700D01*
X160483300Y-69097802D01*
X160478792Y-69094645D01*
X160478789Y-69094643D01*
X160387724Y-69030879D01*
X160295749Y-68966477D01*
X160290767Y-68964154D01*
X160290762Y-68964151D01*
X160093225Y-68872039D01*
X160093224Y-68872039D01*
X160088243Y-68869716D01*
X160082935Y-68868294D01*
X160082933Y-68868293D01*
X159872402Y-68811881D01*
X159872400Y-68811881D01*
X159867087Y-68810457D01*
X159639000Y-68790502D01*
X159410913Y-68810457D01*
X159405600Y-68811881D01*
X159405598Y-68811881D01*
X159195067Y-68868293D01*
X159195065Y-68868294D01*
X159189757Y-68869716D01*
X159184776Y-68872039D01*
X159184775Y-68872039D01*
X158987238Y-68964151D01*
X158987233Y-68964154D01*
X158982251Y-68966477D01*
X158890276Y-69030879D01*
X158799211Y-69094643D01*
X158799208Y-69094645D01*
X158794700Y-69097802D01*
X158632802Y-69259700D01*
X158501477Y-69447251D01*
X158499154Y-69452233D01*
X158499151Y-69452238D01*
X158431233Y-69597890D01*
X158404716Y-69654757D01*
X158345457Y-69875913D01*
X158325502Y-70104000D01*
X116078000Y-70104000D01*
X116078000Y-68577236D01*
X116098002Y-68509115D01*
X116151658Y-68462622D01*
X116221932Y-68452518D01*
X116286512Y-68482012D01*
X116316565Y-68520622D01*
X116356885Y-68600789D01*
X116359311Y-68604318D01*
X116359314Y-68604324D01*
X116507752Y-68820301D01*
X116513814Y-68829121D01*
X116700279Y-69034044D01*
X116772633Y-69094541D01*
X116909538Y-69209012D01*
X116909543Y-69209016D01*
X116912830Y-69211764D01*
X116996438Y-69264211D01*
X117143893Y-69356710D01*
X117143897Y-69356712D01*
X117147533Y-69358993D01*
X117400047Y-69473007D01*
X117665697Y-69551697D01*
X117669931Y-69552345D01*
X117669936Y-69552346D01*
X117935327Y-69592956D01*
X117935329Y-69592956D01*
X117939569Y-69593605D01*
X118080603Y-69595821D01*
X118212304Y-69597890D01*
X118212310Y-69597890D01*
X118216595Y-69597957D01*
X118491649Y-69564672D01*
X118759640Y-69494365D01*
X119015610Y-69388339D01*
X119254822Y-69248555D01*
X119472850Y-69077599D01*
X119496460Y-69053236D01*
X119591150Y-68955523D01*
X119665660Y-68878635D01*
X119829683Y-68655344D01*
X119925291Y-68479257D01*
X119959835Y-68415635D01*
X119959836Y-68415633D01*
X119961885Y-68411859D01*
X120016531Y-68267243D01*
X120058301Y-68156703D01*
X120058302Y-68156699D01*
X120059819Y-68152685D01*
X120075430Y-68084522D01*
X182232273Y-68084522D01*
X182279764Y-68261761D01*
X182283510Y-68272053D01*
X182375586Y-68469511D01*
X182381069Y-68479007D01*
X182506028Y-68657467D01*
X182513084Y-68665875D01*
X182667125Y-68819916D01*
X182675533Y-68826972D01*
X182853993Y-68951931D01*
X182863489Y-68957414D01*
X183060947Y-69049490D01*
X183071239Y-69053236D01*
X183243503Y-69099394D01*
X183257599Y-69099058D01*
X183261000Y-69091116D01*
X183261000Y-69085967D01*
X183769000Y-69085967D01*
X183772973Y-69099498D01*
X183781522Y-69100727D01*
X183958761Y-69053236D01*
X183969053Y-69049490D01*
X184166511Y-68957414D01*
X184176007Y-68951931D01*
X184354467Y-68826972D01*
X184362875Y-68819916D01*
X184516916Y-68665875D01*
X184523972Y-68657467D01*
X184648931Y-68479007D01*
X184654414Y-68469511D01*
X184746490Y-68272053D01*
X184750236Y-68261761D01*
X184796394Y-68089497D01*
X184796058Y-68075401D01*
X184788116Y-68072000D01*
X183787115Y-68072000D01*
X183771876Y-68076475D01*
X183770671Y-68077865D01*
X183769000Y-68085548D01*
X183769000Y-69085967D01*
X183261000Y-69085967D01*
X183261000Y-68090115D01*
X183256525Y-68074876D01*
X183255135Y-68073671D01*
X183247452Y-68072000D01*
X182247033Y-68072000D01*
X182233502Y-68075973D01*
X182232273Y-68084522D01*
X120075430Y-68084522D01*
X120121672Y-67882618D01*
X120126951Y-67823475D01*
X120127440Y-67818000D01*
X189821502Y-67818000D01*
X189841457Y-68046087D01*
X189842881Y-68051400D01*
X189842881Y-68051402D01*
X189874375Y-68168936D01*
X189900716Y-68267243D01*
X189903039Y-68272224D01*
X189903039Y-68272225D01*
X189995151Y-68469762D01*
X189995154Y-68469767D01*
X189997477Y-68474749D01*
X190128802Y-68662300D01*
X190290700Y-68824198D01*
X190295208Y-68827355D01*
X190295211Y-68827357D01*
X190353674Y-68868293D01*
X190478251Y-68955523D01*
X190483233Y-68957846D01*
X190483238Y-68957849D01*
X190646641Y-69034044D01*
X190685757Y-69052284D01*
X190691065Y-69053706D01*
X190691067Y-69053707D01*
X190901598Y-69110119D01*
X190901600Y-69110119D01*
X190906913Y-69111543D01*
X191135000Y-69131498D01*
X191363087Y-69111543D01*
X191368398Y-69110120D01*
X191368409Y-69110118D01*
X191426541Y-69094541D01*
X191497517Y-69096230D01*
X191548248Y-69127152D01*
X193527396Y-71106301D01*
X195483978Y-73062883D01*
X195517800Y-73124277D01*
X195530051Y-73178639D01*
X195556533Y-73296147D01*
X195558475Y-73300929D01*
X195558476Y-73300933D01*
X195623750Y-73461683D01*
X195648311Y-73522169D01*
X195775772Y-73730166D01*
X195935492Y-73914553D01*
X196123183Y-74070377D01*
X196333804Y-74193453D01*
X196561698Y-74280478D01*
X196566764Y-74281509D01*
X196566765Y-74281509D01*
X196795667Y-74328080D01*
X196795671Y-74328080D01*
X196800746Y-74329113D01*
X196805922Y-74329303D01*
X196805924Y-74329303D01*
X197039363Y-74337863D01*
X197039367Y-74337863D01*
X197044527Y-74338052D01*
X197049647Y-74337396D01*
X197049649Y-74337396D01*
X197153110Y-74324142D01*
X197286494Y-74307055D01*
X197291443Y-74305570D01*
X197291449Y-74305569D01*
X197515200Y-74238440D01*
X197515199Y-74238440D01*
X197520150Y-74236955D01*
X197739219Y-74129634D01*
X197743424Y-74126634D01*
X197743430Y-74126631D01*
X197933614Y-73990974D01*
X197933616Y-73990972D01*
X197937818Y-73987975D01*
X198110614Y-73815781D01*
X198252966Y-73617677D01*
X198273521Y-73576088D01*
X198358756Y-73403626D01*
X198358757Y-73403624D01*
X198361050Y-73398984D01*
X198393827Y-73291104D01*
X198430462Y-73170527D01*
X198430463Y-73170521D01*
X198431966Y-73165575D01*
X198463807Y-72923717D01*
X198463889Y-72920365D01*
X198465502Y-72854365D01*
X198465502Y-72854361D01*
X198465584Y-72851000D01*
X198445596Y-72607876D01*
X198386167Y-72371280D01*
X198313561Y-72204297D01*
X198290954Y-72152305D01*
X198290952Y-72152302D01*
X198288894Y-72147568D01*
X198156390Y-71942748D01*
X198148681Y-71934275D01*
X197995690Y-71766141D01*
X197995688Y-71766140D01*
X197992212Y-71762319D01*
X197988161Y-71759120D01*
X197988157Y-71759116D01*
X197804825Y-71614329D01*
X197804821Y-71614327D01*
X197800770Y-71611127D01*
X197587205Y-71493233D01*
X197582336Y-71491509D01*
X197582332Y-71491507D01*
X197362127Y-71413528D01*
X197362123Y-71413527D01*
X197357252Y-71411802D01*
X197352159Y-71410895D01*
X197352156Y-71410894D01*
X197122177Y-71369928D01*
X197122171Y-71369927D01*
X197117088Y-71369022D01*
X197037380Y-71368048D01*
X196878332Y-71366105D01*
X196878330Y-71366105D01*
X196873162Y-71366042D01*
X196632024Y-71402941D01*
X196400150Y-71478729D01*
X196183769Y-71591370D01*
X196179636Y-71594473D01*
X196179633Y-71594475D01*
X196054452Y-71688464D01*
X195987967Y-71713370D01*
X195918572Y-71698378D01*
X195889704Y-71676799D01*
X192444152Y-68231248D01*
X192410126Y-68168936D01*
X192411541Y-68109541D01*
X192427118Y-68051409D01*
X192427120Y-68051398D01*
X192428543Y-68046087D01*
X192448498Y-67818000D01*
X192428543Y-67589913D01*
X192427119Y-67584598D01*
X192370707Y-67374067D01*
X192370706Y-67374065D01*
X192369284Y-67368757D01*
X192366961Y-67363775D01*
X192274849Y-67166238D01*
X192274846Y-67166233D01*
X192272523Y-67161251D01*
X192160842Y-67001754D01*
X192144357Y-66978211D01*
X192144355Y-66978208D01*
X192141198Y-66973700D01*
X191979300Y-66811802D01*
X191974792Y-66808645D01*
X191974789Y-66808643D01*
X191865021Y-66731783D01*
X191791749Y-66680477D01*
X191786767Y-66678154D01*
X191786762Y-66678151D01*
X191589225Y-66586039D01*
X191589224Y-66586039D01*
X191584243Y-66583716D01*
X191578935Y-66582294D01*
X191578933Y-66582293D01*
X191368402Y-66525881D01*
X191368400Y-66525881D01*
X191363087Y-66524457D01*
X191135000Y-66504502D01*
X190906913Y-66524457D01*
X190901600Y-66525881D01*
X190901598Y-66525881D01*
X190691067Y-66582293D01*
X190691065Y-66582294D01*
X190685757Y-66583716D01*
X190680776Y-66586039D01*
X190680775Y-66586039D01*
X190483238Y-66678151D01*
X190483233Y-66678154D01*
X190478251Y-66680477D01*
X190404979Y-66731783D01*
X190295211Y-66808643D01*
X190295208Y-66808645D01*
X190290700Y-66811802D01*
X190128802Y-66973700D01*
X190125645Y-66978208D01*
X190125643Y-66978211D01*
X190109158Y-67001754D01*
X189997477Y-67161251D01*
X189995154Y-67166233D01*
X189995151Y-67166238D01*
X189903039Y-67363775D01*
X189900716Y-67368757D01*
X189899294Y-67374065D01*
X189899293Y-67374067D01*
X189842881Y-67584598D01*
X189841457Y-67589913D01*
X189821502Y-67818000D01*
X120127440Y-67818000D01*
X120146081Y-67609119D01*
X120146301Y-67606654D01*
X120146748Y-67564000D01*
X120146348Y-67558135D01*
X120145555Y-67546503D01*
X182233606Y-67546503D01*
X182233942Y-67560599D01*
X182241884Y-67564000D01*
X183242885Y-67564000D01*
X183258124Y-67559525D01*
X183259329Y-67558135D01*
X183261000Y-67550452D01*
X183261000Y-67545885D01*
X183769000Y-67545885D01*
X183773475Y-67561124D01*
X183774865Y-67562329D01*
X183782548Y-67564000D01*
X184782967Y-67564000D01*
X184796498Y-67560027D01*
X184797727Y-67551478D01*
X184750236Y-67374239D01*
X184746490Y-67363947D01*
X184654414Y-67166489D01*
X184648931Y-67156993D01*
X184523972Y-66978533D01*
X184516916Y-66970125D01*
X184362875Y-66816084D01*
X184354467Y-66809028D01*
X184176007Y-66684069D01*
X184166511Y-66678586D01*
X183969053Y-66586510D01*
X183958761Y-66582764D01*
X183786497Y-66536606D01*
X183772401Y-66536942D01*
X183769000Y-66544884D01*
X183769000Y-67545885D01*
X183261000Y-67545885D01*
X183261000Y-66550033D01*
X183257027Y-66536502D01*
X183248478Y-66535273D01*
X183071239Y-66582764D01*
X183060947Y-66586510D01*
X182863489Y-66678586D01*
X182853993Y-66684069D01*
X182675533Y-66809028D01*
X182667125Y-66816084D01*
X182513084Y-66970125D01*
X182506028Y-66978533D01*
X182381069Y-67156993D01*
X182375586Y-67166489D01*
X182283510Y-67363947D01*
X182279764Y-67374239D01*
X182233606Y-67546503D01*
X120145555Y-67546503D01*
X120128196Y-67291859D01*
X120128195Y-67291853D01*
X120127904Y-67287582D01*
X120071719Y-67016278D01*
X120065940Y-66999957D01*
X119980666Y-66759151D01*
X119979235Y-66755110D01*
X119870729Y-66544884D01*
X119854126Y-66512717D01*
X119854126Y-66512716D01*
X119852161Y-66508910D01*
X119692850Y-66282233D01*
X119504250Y-66079275D01*
X119500934Y-66076561D01*
X119500931Y-66076558D01*
X119293168Y-65906506D01*
X119289850Y-65903790D01*
X119071478Y-65769972D01*
X119064071Y-65765433D01*
X119016440Y-65712785D01*
X119004833Y-65642744D01*
X119032936Y-65577546D01*
X119091826Y-65537892D01*
X119129906Y-65532000D01*
X199515439Y-65532000D01*
X199583560Y-65552002D01*
G37*
%TD.AperFunction*%
%TD*%
M02*
