%TF.GenerationSoftware,KiCad,Pcbnew,(6.0.1)*%
%TF.CreationDate,2022-05-05T18:55:06-05:00*%
%TF.ProjectId,RGB_LightsBluetooth,5247425f-4c69-4676-9874-73426c756574,1*%
%TF.SameCoordinates,Original*%
%TF.FileFunction,Legend,Top*%
%TF.FilePolarity,Positive*%
%FSLAX46Y46*%
G04 Gerber Fmt 4.6, Leading zero omitted, Abs format (unit mm)*
G04 Created by KiCad (PCBNEW (6.0.1)) date 2022-05-05 18:55:06*
%MOMM*%
%LPD*%
G01*
G04 APERTURE LIST*
%ADD10C,0.150000*%
%ADD11C,0.100000*%
%ADD12C,0.200000*%
%ADD13C,0.254000*%
%ADD14C,0.120000*%
%ADD15C,0.203200*%
%ADD16C,0.127000*%
%ADD17C,0.280000*%
%ADD18C,1.600000*%
%ADD19O,1.600000X1.600000*%
%ADD20R,1.500000X1.050000*%
%ADD21O,1.500000X1.050000*%
%ADD22O,1.524000X1.524000*%
%ADD23R,1.800000X1.800000*%
%ADD24C,1.800000*%
%ADD25R,2.085000X2.085000*%
%ADD26C,2.085000*%
%ADD27R,1.950000X1.950000*%
%ADD28C,1.950000*%
%ADD29R,1.700000X1.700000*%
%ADD30O,1.700000X1.700000*%
%ADD31R,1.600000X1.600000*%
G04 APERTURE END LIST*
D10*
X208947713Y-90352357D02*
X209614379Y-90352357D01*
X208566760Y-90590452D02*
X209281046Y-90828547D01*
X209281046Y-90209500D01*
X208709618Y-89876166D02*
X208661999Y-89828547D01*
X208614379Y-89733309D01*
X208614379Y-89495214D01*
X208661999Y-89399976D01*
X208709618Y-89352357D01*
X208804856Y-89304738D01*
X208900094Y-89304738D01*
X209042951Y-89352357D01*
X209614379Y-89923785D01*
X209614379Y-89304738D01*
X209519141Y-88876166D02*
X209566760Y-88828547D01*
X209614379Y-88876166D01*
X209566760Y-88923785D01*
X209519141Y-88876166D01*
X209614379Y-88876166D01*
X208614379Y-88495214D02*
X208614379Y-87828547D01*
X209614379Y-88257119D01*
X209614379Y-87399976D02*
X209614379Y-87209500D01*
X209566760Y-87114261D01*
X209519141Y-87066642D01*
X209376284Y-86971404D01*
X209185808Y-86923785D01*
X208804856Y-86923785D01*
X208709618Y-86971404D01*
X208661999Y-87019023D01*
X208614379Y-87114261D01*
X208614379Y-87304738D01*
X208661999Y-87399976D01*
X208709618Y-87447595D01*
X208804856Y-87495214D01*
X209042951Y-87495214D01*
X209138189Y-87447595D01*
X209185808Y-87399976D01*
X209233427Y-87304738D01*
X209233427Y-87114261D01*
X209185808Y-87019023D01*
X209138189Y-86971404D01*
X209042951Y-86923785D01*
X209614379Y-86447595D02*
X209614379Y-86257119D01*
X209566760Y-86161880D01*
X209519141Y-86114261D01*
X209376284Y-86019023D01*
X209185808Y-85971404D01*
X208804856Y-85971404D01*
X208709618Y-86019023D01*
X208661999Y-86066642D01*
X208614379Y-86161880D01*
X208614379Y-86352357D01*
X208661999Y-86447595D01*
X208709618Y-86495214D01*
X208804856Y-86542833D01*
X209042951Y-86542833D01*
X209138189Y-86495214D01*
X209185808Y-86447595D01*
X209233427Y-86352357D01*
X209233427Y-86161880D01*
X209185808Y-86066642D01*
X209138189Y-86019023D01*
X209042951Y-85971404D01*
X208614379Y-85352357D02*
X208614379Y-85257119D01*
X208661999Y-85161880D01*
X208709618Y-85114261D01*
X208804856Y-85066642D01*
X208995332Y-85019023D01*
X209233427Y-85019023D01*
X209423903Y-85066642D01*
X209519141Y-85114261D01*
X209566760Y-85161880D01*
X209614379Y-85257119D01*
X209614379Y-85352357D01*
X209566760Y-85447595D01*
X209519141Y-85495214D01*
X209423903Y-85542833D01*
X209233427Y-85590452D01*
X208995332Y-85590452D01*
X208804856Y-85542833D01*
X208709618Y-85495214D01*
X208661999Y-85447595D01*
X208614379Y-85352357D01*
X209614379Y-83828547D02*
X208947713Y-83828547D01*
X209042951Y-83828547D02*
X208995332Y-83780928D01*
X208947713Y-83685690D01*
X208947713Y-83542833D01*
X208995332Y-83447595D01*
X209090570Y-83399976D01*
X209614379Y-83399976D01*
X209090570Y-83399976D02*
X208995332Y-83352357D01*
X208947713Y-83257119D01*
X208947713Y-83114261D01*
X208995332Y-83019023D01*
X209090570Y-82971404D01*
X209614379Y-82971404D01*
X209614379Y-82495214D02*
X208947713Y-82495214D01*
X209042951Y-82495214D02*
X208995332Y-82447595D01*
X208947713Y-82352357D01*
X208947713Y-82209500D01*
X208995332Y-82114261D01*
X209090570Y-82066642D01*
X209614379Y-82066642D01*
X209090570Y-82066642D02*
X208995332Y-82019023D01*
X208947713Y-81923785D01*
X208947713Y-81780928D01*
X208995332Y-81685690D01*
X209090570Y-81638071D01*
X209614379Y-81638071D01*
D11*
X208526000Y-64810000D02*
X210898419Y-64810000D01*
X208526000Y-107609000D02*
X210898419Y-107609000D01*
X210311999Y-64810000D02*
X210311999Y-107609000D01*
X210311999Y-64810000D02*
X210311999Y-107609000D01*
X210311999Y-64810000D02*
X209725578Y-65936504D01*
X210311999Y-64810000D02*
X210898420Y-65936504D01*
X210311999Y-107609000D02*
X210898420Y-106482496D01*
X210311999Y-107609000D02*
X209725578Y-106482496D01*
D10*
X154892928Y-61595953D02*
X154797690Y-61548334D01*
X154750071Y-61500715D01*
X154702452Y-61405477D01*
X154702452Y-61357858D01*
X154750071Y-61262620D01*
X154797690Y-61215001D01*
X154892928Y-61167381D01*
X155083404Y-61167381D01*
X155178642Y-61215001D01*
X155226261Y-61262620D01*
X155273880Y-61357858D01*
X155273880Y-61405477D01*
X155226261Y-61500715D01*
X155178642Y-61548334D01*
X155083404Y-61595953D01*
X154892928Y-61595953D01*
X154797690Y-61643572D01*
X154750071Y-61691191D01*
X154702452Y-61786429D01*
X154702452Y-61976905D01*
X154750071Y-62072143D01*
X154797690Y-62119762D01*
X154892928Y-62167381D01*
X155083404Y-62167381D01*
X155178642Y-62119762D01*
X155226261Y-62072143D01*
X155273880Y-61976905D01*
X155273880Y-61786429D01*
X155226261Y-61691191D01*
X155178642Y-61643572D01*
X155083404Y-61595953D01*
X155607214Y-61167381D02*
X156273880Y-61167381D01*
X155845309Y-62167381D01*
X156654833Y-62072143D02*
X156702452Y-62119762D01*
X156654833Y-62167381D01*
X156607214Y-62119762D01*
X156654833Y-62072143D01*
X156654833Y-62167381D01*
X157607214Y-61167381D02*
X157131023Y-61167381D01*
X157083404Y-61643572D01*
X157131023Y-61595953D01*
X157226261Y-61548334D01*
X157464357Y-61548334D01*
X157559595Y-61595953D01*
X157607214Y-61643572D01*
X157654833Y-61738810D01*
X157654833Y-61976905D01*
X157607214Y-62072143D01*
X157559595Y-62119762D01*
X157464357Y-62167381D01*
X157226261Y-62167381D01*
X157131023Y-62119762D01*
X157083404Y-62072143D01*
X158273880Y-61167381D02*
X158369119Y-61167381D01*
X158464357Y-61215001D01*
X158511976Y-61262620D01*
X158559595Y-61357858D01*
X158607214Y-61548334D01*
X158607214Y-61786429D01*
X158559595Y-61976905D01*
X158511976Y-62072143D01*
X158464357Y-62119762D01*
X158369119Y-62167381D01*
X158273880Y-62167381D01*
X158178642Y-62119762D01*
X158131023Y-62072143D01*
X158083404Y-61976905D01*
X158035785Y-61786429D01*
X158035785Y-61548334D01*
X158083404Y-61357858D01*
X158131023Y-61262620D01*
X158178642Y-61215001D01*
X158273880Y-61167381D01*
X158940547Y-61167381D02*
X159559595Y-61167381D01*
X159226261Y-61548334D01*
X159369119Y-61548334D01*
X159464357Y-61595953D01*
X159511976Y-61643572D01*
X159559595Y-61738810D01*
X159559595Y-61976905D01*
X159511976Y-62072143D01*
X159464357Y-62119762D01*
X159369119Y-62167381D01*
X159083404Y-62167381D01*
X158988166Y-62119762D01*
X158940547Y-62072143D01*
X160178642Y-61167381D02*
X160273880Y-61167381D01*
X160369119Y-61215001D01*
X160416738Y-61262620D01*
X160464357Y-61357858D01*
X160511976Y-61548334D01*
X160511976Y-61786429D01*
X160464357Y-61976905D01*
X160416738Y-62072143D01*
X160369119Y-62119762D01*
X160273880Y-62167381D01*
X160178642Y-62167381D01*
X160083404Y-62119762D01*
X160035785Y-62072143D01*
X159988166Y-61976905D01*
X159940547Y-61786429D01*
X159940547Y-61548334D01*
X159988166Y-61357858D01*
X160035785Y-61262620D01*
X160083404Y-61215001D01*
X160178642Y-61167381D01*
X161702452Y-62167381D02*
X161702452Y-61500715D01*
X161702452Y-61595953D02*
X161750071Y-61548334D01*
X161845309Y-61500715D01*
X161988166Y-61500715D01*
X162083404Y-61548334D01*
X162131023Y-61643572D01*
X162131023Y-62167381D01*
X162131023Y-61643572D02*
X162178642Y-61548334D01*
X162273880Y-61500715D01*
X162416738Y-61500715D01*
X162511976Y-61548334D01*
X162559595Y-61643572D01*
X162559595Y-62167381D01*
X163035785Y-62167381D02*
X163035785Y-61500715D01*
X163035785Y-61595953D02*
X163083404Y-61548334D01*
X163178642Y-61500715D01*
X163321500Y-61500715D01*
X163416738Y-61548334D01*
X163464357Y-61643572D01*
X163464357Y-62167381D01*
X163464357Y-61643572D02*
X163511976Y-61548334D01*
X163607214Y-61500715D01*
X163750071Y-61500715D01*
X163845309Y-61548334D01*
X163892928Y-61643572D01*
X163892928Y-62167381D01*
D11*
X115570000Y-64524000D02*
X115570000Y-62278581D01*
X203073000Y-64524000D02*
X203073000Y-62278581D01*
X115570000Y-62865001D02*
X203073000Y-62865001D01*
X115570000Y-62865001D02*
X203073000Y-62865001D01*
X115570000Y-62865001D02*
X116696504Y-63451422D01*
X115570000Y-62865001D02*
X116696504Y-62278580D01*
X203073000Y-62865001D02*
X201946496Y-62278580D01*
X203073000Y-62865001D02*
X201946496Y-63451422D01*
D10*
%TO.C,R7*%
X149550380Y-98083666D02*
X149074190Y-98417000D01*
X149550380Y-98655095D02*
X148550380Y-98655095D01*
X148550380Y-98274142D01*
X148598000Y-98178904D01*
X148645619Y-98131285D01*
X148740857Y-98083666D01*
X148883714Y-98083666D01*
X148978952Y-98131285D01*
X149026571Y-98178904D01*
X149074190Y-98274142D01*
X149074190Y-98655095D01*
X148550380Y-97750333D02*
X148550380Y-97083666D01*
X149550380Y-97512238D01*
D12*
X154158904Y-100088428D02*
X154158904Y-100545571D01*
X154158904Y-100317000D02*
X153358904Y-100317000D01*
X153473190Y-100393190D01*
X153549380Y-100469380D01*
X153587476Y-100545571D01*
X153358904Y-99593190D02*
X153358904Y-99517000D01*
X153397000Y-99440809D01*
X153435095Y-99402714D01*
X153511285Y-99364619D01*
X153663666Y-99326523D01*
X153854142Y-99326523D01*
X154006523Y-99364619D01*
X154082714Y-99402714D01*
X154120809Y-99440809D01*
X154158904Y-99517000D01*
X154158904Y-99593190D01*
X154120809Y-99669380D01*
X154082714Y-99707476D01*
X154006523Y-99745571D01*
X153854142Y-99783666D01*
X153663666Y-99783666D01*
X153511285Y-99745571D01*
X153435095Y-99707476D01*
X153397000Y-99669380D01*
X153358904Y-99593190D01*
X153358904Y-98831285D02*
X153358904Y-98755095D01*
X153397000Y-98678904D01*
X153435095Y-98640809D01*
X153511285Y-98602714D01*
X153663666Y-98564619D01*
X153854142Y-98564619D01*
X154006523Y-98602714D01*
X154082714Y-98640809D01*
X154120809Y-98678904D01*
X154158904Y-98755095D01*
X154158904Y-98831285D01*
X154120809Y-98907476D01*
X154082714Y-98945571D01*
X154006523Y-98983666D01*
X153854142Y-99021761D01*
X153663666Y-99021761D01*
X153511285Y-98983666D01*
X153435095Y-98945571D01*
X153397000Y-98907476D01*
X153358904Y-98831285D01*
X154158904Y-98221761D02*
X153358904Y-98221761D01*
X153854142Y-98145571D02*
X154158904Y-97917000D01*
X153625571Y-97917000D02*
X153930333Y-98221761D01*
X153358904Y-97421761D02*
X153358904Y-97269380D01*
X153397000Y-97193190D01*
X153473190Y-97117000D01*
X153625571Y-97078904D01*
X153892238Y-97078904D01*
X154044619Y-97117000D01*
X154120809Y-97193190D01*
X154158904Y-97269380D01*
X154158904Y-97421761D01*
X154120809Y-97497952D01*
X154044619Y-97574142D01*
X153892238Y-97612238D01*
X153625571Y-97612238D01*
X153473190Y-97574142D01*
X153397000Y-97497952D01*
X153358904Y-97421761D01*
X154158904Y-96736047D02*
X153358904Y-96736047D01*
X154158904Y-96393190D02*
X153739857Y-96393190D01*
X153663666Y-96431285D01*
X153625571Y-96507476D01*
X153625571Y-96621761D01*
X153663666Y-96697952D01*
X153701761Y-96736047D01*
X154158904Y-96012238D02*
X153625571Y-96012238D01*
X153701761Y-96012238D02*
X153663666Y-95974142D01*
X153625571Y-95897952D01*
X153625571Y-95783666D01*
X153663666Y-95707476D01*
X153739857Y-95669380D01*
X154158904Y-95669380D01*
X153739857Y-95669380D02*
X153663666Y-95631285D01*
X153625571Y-95555095D01*
X153625571Y-95440809D01*
X153663666Y-95364619D01*
X153739857Y-95326523D01*
X154158904Y-95326523D01*
D10*
%TO.C,R8*%
X149466380Y-83097666D02*
X148990190Y-83431000D01*
X149466380Y-83669095D02*
X148466380Y-83669095D01*
X148466380Y-83288142D01*
X148514000Y-83192904D01*
X148561619Y-83145285D01*
X148656857Y-83097666D01*
X148799714Y-83097666D01*
X148894952Y-83145285D01*
X148942571Y-83192904D01*
X148990190Y-83288142D01*
X148990190Y-83669095D01*
X148894952Y-82526238D02*
X148847333Y-82621476D01*
X148799714Y-82669095D01*
X148704476Y-82716714D01*
X148656857Y-82716714D01*
X148561619Y-82669095D01*
X148514000Y-82621476D01*
X148466380Y-82526238D01*
X148466380Y-82335761D01*
X148514000Y-82240523D01*
X148561619Y-82192904D01*
X148656857Y-82145285D01*
X148704476Y-82145285D01*
X148799714Y-82192904D01*
X148847333Y-82240523D01*
X148894952Y-82335761D01*
X148894952Y-82526238D01*
X148942571Y-82621476D01*
X148990190Y-82669095D01*
X149085428Y-82716714D01*
X149275904Y-82716714D01*
X149371142Y-82669095D01*
X149418761Y-82621476D01*
X149466380Y-82526238D01*
X149466380Y-82335761D01*
X149418761Y-82240523D01*
X149371142Y-82192904D01*
X149275904Y-82145285D01*
X149085428Y-82145285D01*
X148990190Y-82192904D01*
X148942571Y-82240523D01*
X148894952Y-82335761D01*
D12*
X154115904Y-85102428D02*
X154115904Y-85559571D01*
X154115904Y-85331000D02*
X153315904Y-85331000D01*
X153430190Y-85407190D01*
X153506380Y-85483380D01*
X153544476Y-85559571D01*
X153315904Y-84607190D02*
X153315904Y-84531000D01*
X153354000Y-84454809D01*
X153392095Y-84416714D01*
X153468285Y-84378619D01*
X153620666Y-84340523D01*
X153811142Y-84340523D01*
X153963523Y-84378619D01*
X154039714Y-84416714D01*
X154077809Y-84454809D01*
X154115904Y-84531000D01*
X154115904Y-84607190D01*
X154077809Y-84683380D01*
X154039714Y-84721476D01*
X153963523Y-84759571D01*
X153811142Y-84797666D01*
X153620666Y-84797666D01*
X153468285Y-84759571D01*
X153392095Y-84721476D01*
X153354000Y-84683380D01*
X153315904Y-84607190D01*
X153315904Y-83845285D02*
X153315904Y-83769095D01*
X153354000Y-83692904D01*
X153392095Y-83654809D01*
X153468285Y-83616714D01*
X153620666Y-83578619D01*
X153811142Y-83578619D01*
X153963523Y-83616714D01*
X154039714Y-83654809D01*
X154077809Y-83692904D01*
X154115904Y-83769095D01*
X154115904Y-83845285D01*
X154077809Y-83921476D01*
X154039714Y-83959571D01*
X153963523Y-83997666D01*
X153811142Y-84035761D01*
X153620666Y-84035761D01*
X153468285Y-83997666D01*
X153392095Y-83959571D01*
X153354000Y-83921476D01*
X153315904Y-83845285D01*
X154115904Y-83235761D02*
X153315904Y-83235761D01*
X153811142Y-83159571D02*
X154115904Y-82931000D01*
X153582571Y-82931000D02*
X153887333Y-83235761D01*
X153315904Y-82435761D02*
X153315904Y-82283380D01*
X153354000Y-82207190D01*
X153430190Y-82131000D01*
X153582571Y-82092904D01*
X153849238Y-82092904D01*
X154001619Y-82131000D01*
X154077809Y-82207190D01*
X154115904Y-82283380D01*
X154115904Y-82435761D01*
X154077809Y-82511952D01*
X154001619Y-82588142D01*
X153849238Y-82626238D01*
X153582571Y-82626238D01*
X153430190Y-82588142D01*
X153354000Y-82511952D01*
X153315904Y-82435761D01*
X154115904Y-81750047D02*
X153315904Y-81750047D01*
X154115904Y-81407190D02*
X153696857Y-81407190D01*
X153620666Y-81445285D01*
X153582571Y-81521476D01*
X153582571Y-81635761D01*
X153620666Y-81711952D01*
X153658761Y-81750047D01*
X154115904Y-81026238D02*
X153582571Y-81026238D01*
X153658761Y-81026238D02*
X153620666Y-80988142D01*
X153582571Y-80911952D01*
X153582571Y-80797666D01*
X153620666Y-80721476D01*
X153696857Y-80683380D01*
X154115904Y-80683380D01*
X153696857Y-80683380D02*
X153620666Y-80645285D01*
X153582571Y-80569095D01*
X153582571Y-80454809D01*
X153620666Y-80378619D01*
X153696857Y-80340523D01*
X154115904Y-80340523D01*
D10*
%TO.C,R12*%
X155451142Y-77406580D02*
X155117809Y-76930390D01*
X154879714Y-77406580D02*
X154879714Y-76406580D01*
X155260666Y-76406580D01*
X155355904Y-76454200D01*
X155403523Y-76501819D01*
X155451142Y-76597057D01*
X155451142Y-76739914D01*
X155403523Y-76835152D01*
X155355904Y-76882771D01*
X155260666Y-76930390D01*
X154879714Y-76930390D01*
X156403523Y-77406580D02*
X155832095Y-77406580D01*
X156117809Y-77406580D02*
X156117809Y-76406580D01*
X156022571Y-76549438D01*
X155927333Y-76644676D01*
X155832095Y-76692295D01*
X156784476Y-76501819D02*
X156832095Y-76454200D01*
X156927333Y-76406580D01*
X157165428Y-76406580D01*
X157260666Y-76454200D01*
X157308285Y-76501819D01*
X157355904Y-76597057D01*
X157355904Y-76692295D01*
X157308285Y-76835152D01*
X156736857Y-77406580D01*
X157355904Y-77406580D01*
D12*
X161563285Y-84939104D02*
X161182333Y-84939104D01*
X161144238Y-85320057D01*
X161182333Y-85281961D01*
X161258523Y-85243866D01*
X161449000Y-85243866D01*
X161525190Y-85281961D01*
X161563285Y-85320057D01*
X161601380Y-85396247D01*
X161601380Y-85586723D01*
X161563285Y-85662914D01*
X161525190Y-85701009D01*
X161449000Y-85739104D01*
X161258523Y-85739104D01*
X161182333Y-85701009D01*
X161144238Y-85662914D01*
X162287095Y-85205771D02*
X162287095Y-85739104D01*
X162096619Y-84901009D02*
X161906142Y-85472438D01*
X162401380Y-85472438D01*
X163049000Y-84939104D02*
X162896619Y-84939104D01*
X162820428Y-84977200D01*
X162782333Y-85015295D01*
X162706142Y-85129580D01*
X162668047Y-85281961D01*
X162668047Y-85586723D01*
X162706142Y-85662914D01*
X162744238Y-85701009D01*
X162820428Y-85739104D01*
X162972809Y-85739104D01*
X163049000Y-85701009D01*
X163087095Y-85662914D01*
X163125190Y-85586723D01*
X163125190Y-85396247D01*
X163087095Y-85320057D01*
X163049000Y-85281961D01*
X162972809Y-85243866D01*
X162820428Y-85243866D01*
X162744238Y-85281961D01*
X162706142Y-85320057D01*
X162668047Y-85396247D01*
X163620428Y-84939104D02*
X163772809Y-84939104D01*
X163849000Y-84977200D01*
X163925190Y-85053390D01*
X163963285Y-85205771D01*
X163963285Y-85472438D01*
X163925190Y-85624819D01*
X163849000Y-85701009D01*
X163772809Y-85739104D01*
X163620428Y-85739104D01*
X163544238Y-85701009D01*
X163468047Y-85624819D01*
X163429952Y-85472438D01*
X163429952Y-85205771D01*
X163468047Y-85053390D01*
X163544238Y-84977200D01*
X163620428Y-84939104D01*
X164306142Y-85739104D02*
X164306142Y-84939104D01*
X164649000Y-85739104D02*
X164649000Y-85320057D01*
X164610904Y-85243866D01*
X164534714Y-85205771D01*
X164420428Y-85205771D01*
X164344238Y-85243866D01*
X164306142Y-85281961D01*
X165029952Y-85739104D02*
X165029952Y-85205771D01*
X165029952Y-85281961D02*
X165068047Y-85243866D01*
X165144238Y-85205771D01*
X165258523Y-85205771D01*
X165334714Y-85243866D01*
X165372809Y-85320057D01*
X165372809Y-85739104D01*
X165372809Y-85320057D02*
X165410904Y-85243866D01*
X165487095Y-85205771D01*
X165601380Y-85205771D01*
X165677571Y-85243866D01*
X165715666Y-85320057D01*
X165715666Y-85739104D01*
D10*
%TO.C,Q3*%
X160796619Y-89554038D02*
X160749000Y-89649276D01*
X160653761Y-89744514D01*
X160510904Y-89887371D01*
X160463285Y-89982609D01*
X160463285Y-90077847D01*
X160701380Y-90030228D02*
X160653761Y-90125466D01*
X160558523Y-90220704D01*
X160368047Y-90268323D01*
X160034714Y-90268323D01*
X159844238Y-90220704D01*
X159749000Y-90125466D01*
X159701380Y-90030228D01*
X159701380Y-89839752D01*
X159749000Y-89744514D01*
X159844238Y-89649276D01*
X160034714Y-89601657D01*
X160368047Y-89601657D01*
X160558523Y-89649276D01*
X160653761Y-89744514D01*
X160701380Y-89839752D01*
X160701380Y-90030228D01*
X159701380Y-89268323D02*
X159701380Y-88649276D01*
X160082333Y-88982609D01*
X160082333Y-88839752D01*
X160129952Y-88744514D01*
X160177571Y-88696895D01*
X160272809Y-88649276D01*
X160510904Y-88649276D01*
X160606142Y-88696895D01*
X160653761Y-88744514D01*
X160701380Y-88839752D01*
X160701380Y-89125466D01*
X160653761Y-89220704D01*
X160606142Y-89268323D01*
D12*
X166541857Y-90944514D02*
X166579952Y-90830228D01*
X166618047Y-90792133D01*
X166694238Y-90754038D01*
X166808523Y-90754038D01*
X166884714Y-90792133D01*
X166922809Y-90830228D01*
X166960904Y-90906419D01*
X166960904Y-91211180D01*
X166160904Y-91211180D01*
X166160904Y-90944514D01*
X166199000Y-90868323D01*
X166237095Y-90830228D01*
X166313285Y-90792133D01*
X166389476Y-90792133D01*
X166465666Y-90830228D01*
X166503761Y-90868323D01*
X166541857Y-90944514D01*
X166541857Y-91211180D01*
X166884714Y-89954038D02*
X166922809Y-89992133D01*
X166960904Y-90106419D01*
X166960904Y-90182609D01*
X166922809Y-90296895D01*
X166846619Y-90373085D01*
X166770428Y-90411180D01*
X166618047Y-90449276D01*
X166503761Y-90449276D01*
X166351380Y-90411180D01*
X166275190Y-90373085D01*
X166199000Y-90296895D01*
X166160904Y-90182609D01*
X166160904Y-90106419D01*
X166199000Y-89992133D01*
X166237095Y-89954038D01*
X166160904Y-89230228D02*
X166160904Y-89611180D01*
X166541857Y-89649276D01*
X166503761Y-89611180D01*
X166465666Y-89534990D01*
X166465666Y-89344514D01*
X166503761Y-89268323D01*
X166541857Y-89230228D01*
X166618047Y-89192133D01*
X166808523Y-89192133D01*
X166884714Y-89230228D01*
X166922809Y-89268323D01*
X166960904Y-89344514D01*
X166960904Y-89534990D01*
X166922809Y-89611180D01*
X166884714Y-89649276D01*
X166427571Y-88506419D02*
X166960904Y-88506419D01*
X166122809Y-88696895D02*
X166694238Y-88887371D01*
X166694238Y-88392133D01*
X166503761Y-87973085D02*
X166465666Y-88049276D01*
X166427571Y-88087371D01*
X166351380Y-88125466D01*
X166313285Y-88125466D01*
X166237095Y-88087371D01*
X166199000Y-88049276D01*
X166160904Y-87973085D01*
X166160904Y-87820704D01*
X166199000Y-87744514D01*
X166237095Y-87706419D01*
X166313285Y-87668323D01*
X166351380Y-87668323D01*
X166427571Y-87706419D01*
X166465666Y-87744514D01*
X166503761Y-87820704D01*
X166503761Y-87973085D01*
X166541857Y-88049276D01*
X166579952Y-88087371D01*
X166656142Y-88125466D01*
X166808523Y-88125466D01*
X166884714Y-88087371D01*
X166922809Y-88049276D01*
X166960904Y-87973085D01*
X166960904Y-87820704D01*
X166922809Y-87744514D01*
X166884714Y-87706419D01*
X166808523Y-87668323D01*
X166656142Y-87668323D01*
X166579952Y-87706419D01*
X166541857Y-87744514D01*
X166503761Y-87820704D01*
D10*
%TO.C,R10*%
X162806142Y-93992780D02*
X162472809Y-93516590D01*
X162234714Y-93992780D02*
X162234714Y-92992780D01*
X162615666Y-92992780D01*
X162710904Y-93040400D01*
X162758523Y-93088019D01*
X162806142Y-93183257D01*
X162806142Y-93326114D01*
X162758523Y-93421352D01*
X162710904Y-93468971D01*
X162615666Y-93516590D01*
X162234714Y-93516590D01*
X163758523Y-93992780D02*
X163187095Y-93992780D01*
X163472809Y-93992780D02*
X163472809Y-92992780D01*
X163377571Y-93135638D01*
X163282333Y-93230876D01*
X163187095Y-93278495D01*
X164377571Y-92992780D02*
X164472809Y-92992780D01*
X164568047Y-93040400D01*
X164615666Y-93088019D01*
X164663285Y-93183257D01*
X164710904Y-93373733D01*
X164710904Y-93611828D01*
X164663285Y-93802304D01*
X164615666Y-93897542D01*
X164568047Y-93945161D01*
X164472809Y-93992780D01*
X164377571Y-93992780D01*
X164282333Y-93945161D01*
X164234714Y-93897542D01*
X164187095Y-93802304D01*
X164139476Y-93611828D01*
X164139476Y-93373733D01*
X164187095Y-93183257D01*
X164234714Y-93088019D01*
X164282333Y-93040400D01*
X164377571Y-92992780D01*
D12*
X161563285Y-97842304D02*
X161182333Y-97842304D01*
X161144238Y-98223257D01*
X161182333Y-98185161D01*
X161258523Y-98147066D01*
X161449000Y-98147066D01*
X161525190Y-98185161D01*
X161563285Y-98223257D01*
X161601380Y-98299447D01*
X161601380Y-98489923D01*
X161563285Y-98566114D01*
X161525190Y-98604209D01*
X161449000Y-98642304D01*
X161258523Y-98642304D01*
X161182333Y-98604209D01*
X161144238Y-98566114D01*
X162287095Y-98108971D02*
X162287095Y-98642304D01*
X162096619Y-97804209D02*
X161906142Y-98375638D01*
X162401380Y-98375638D01*
X163049000Y-97842304D02*
X162896619Y-97842304D01*
X162820428Y-97880400D01*
X162782333Y-97918495D01*
X162706142Y-98032780D01*
X162668047Y-98185161D01*
X162668047Y-98489923D01*
X162706142Y-98566114D01*
X162744238Y-98604209D01*
X162820428Y-98642304D01*
X162972809Y-98642304D01*
X163049000Y-98604209D01*
X163087095Y-98566114D01*
X163125190Y-98489923D01*
X163125190Y-98299447D01*
X163087095Y-98223257D01*
X163049000Y-98185161D01*
X162972809Y-98147066D01*
X162820428Y-98147066D01*
X162744238Y-98185161D01*
X162706142Y-98223257D01*
X162668047Y-98299447D01*
X163620428Y-97842304D02*
X163772809Y-97842304D01*
X163849000Y-97880400D01*
X163925190Y-97956590D01*
X163963285Y-98108971D01*
X163963285Y-98375638D01*
X163925190Y-98528019D01*
X163849000Y-98604209D01*
X163772809Y-98642304D01*
X163620428Y-98642304D01*
X163544238Y-98604209D01*
X163468047Y-98528019D01*
X163429952Y-98375638D01*
X163429952Y-98108971D01*
X163468047Y-97956590D01*
X163544238Y-97880400D01*
X163620428Y-97842304D01*
X164306142Y-98642304D02*
X164306142Y-97842304D01*
X164649000Y-98642304D02*
X164649000Y-98223257D01*
X164610904Y-98147066D01*
X164534714Y-98108971D01*
X164420428Y-98108971D01*
X164344238Y-98147066D01*
X164306142Y-98185161D01*
X165029952Y-98642304D02*
X165029952Y-98108971D01*
X165029952Y-98185161D02*
X165068047Y-98147066D01*
X165144238Y-98108971D01*
X165258523Y-98108971D01*
X165334714Y-98147066D01*
X165372809Y-98223257D01*
X165372809Y-98642304D01*
X165372809Y-98223257D02*
X165410904Y-98147066D01*
X165487095Y-98108971D01*
X165601380Y-98108971D01*
X165677571Y-98147066D01*
X165715666Y-98223257D01*
X165715666Y-98642304D01*
D10*
%TO.C,R4*%
X187412333Y-107640380D02*
X187079000Y-107164190D01*
X186840904Y-107640380D02*
X186840904Y-106640380D01*
X187221857Y-106640380D01*
X187317095Y-106688000D01*
X187364714Y-106735619D01*
X187412333Y-106830857D01*
X187412333Y-106973714D01*
X187364714Y-107068952D01*
X187317095Y-107116571D01*
X187221857Y-107164190D01*
X186840904Y-107164190D01*
X188269476Y-106973714D02*
X188269476Y-107640380D01*
X188031380Y-106592761D02*
X187793285Y-107307047D01*
X188412333Y-107307047D01*
D12*
X185604380Y-103231904D02*
X185147238Y-103231904D01*
X185375809Y-103231904D02*
X185375809Y-102431904D01*
X185299619Y-102546190D01*
X185223428Y-102622380D01*
X185147238Y-102660476D01*
X186099619Y-102431904D02*
X186175809Y-102431904D01*
X186252000Y-102470000D01*
X186290095Y-102508095D01*
X186328190Y-102584285D01*
X186366285Y-102736666D01*
X186366285Y-102927142D01*
X186328190Y-103079523D01*
X186290095Y-103155714D01*
X186252000Y-103193809D01*
X186175809Y-103231904D01*
X186099619Y-103231904D01*
X186023428Y-103193809D01*
X185985333Y-103155714D01*
X185947238Y-103079523D01*
X185909142Y-102927142D01*
X185909142Y-102736666D01*
X185947238Y-102584285D01*
X185985333Y-102508095D01*
X186023428Y-102470000D01*
X186099619Y-102431904D01*
X186861523Y-102431904D02*
X186937714Y-102431904D01*
X187013904Y-102470000D01*
X187052000Y-102508095D01*
X187090095Y-102584285D01*
X187128190Y-102736666D01*
X187128190Y-102927142D01*
X187090095Y-103079523D01*
X187052000Y-103155714D01*
X187013904Y-103193809D01*
X186937714Y-103231904D01*
X186861523Y-103231904D01*
X186785333Y-103193809D01*
X186747238Y-103155714D01*
X186709142Y-103079523D01*
X186671047Y-102927142D01*
X186671047Y-102736666D01*
X186709142Y-102584285D01*
X186747238Y-102508095D01*
X186785333Y-102470000D01*
X186861523Y-102431904D01*
X187623428Y-102431904D02*
X187775809Y-102431904D01*
X187852000Y-102470000D01*
X187928190Y-102546190D01*
X187966285Y-102698571D01*
X187966285Y-102965238D01*
X187928190Y-103117619D01*
X187852000Y-103193809D01*
X187775809Y-103231904D01*
X187623428Y-103231904D01*
X187547238Y-103193809D01*
X187471047Y-103117619D01*
X187432952Y-102965238D01*
X187432952Y-102698571D01*
X187471047Y-102546190D01*
X187547238Y-102470000D01*
X187623428Y-102431904D01*
X188309142Y-103231904D02*
X188309142Y-102431904D01*
X188652000Y-103231904D02*
X188652000Y-102812857D01*
X188613904Y-102736666D01*
X188537714Y-102698571D01*
X188423428Y-102698571D01*
X188347238Y-102736666D01*
X188309142Y-102774761D01*
X189032952Y-103231904D02*
X189032952Y-102698571D01*
X189032952Y-102774761D02*
X189071047Y-102736666D01*
X189147238Y-102698571D01*
X189261523Y-102698571D01*
X189337714Y-102736666D01*
X189375809Y-102812857D01*
X189375809Y-103231904D01*
X189375809Y-102812857D02*
X189413904Y-102736666D01*
X189490095Y-102698571D01*
X189604380Y-102698571D01*
X189680571Y-102736666D01*
X189718666Y-102812857D01*
X189718666Y-103231904D01*
D10*
%TO.C,R5*%
X187031333Y-66238380D02*
X186698000Y-65762190D01*
X186459904Y-66238380D02*
X186459904Y-65238380D01*
X186840857Y-65238380D01*
X186936095Y-65286000D01*
X186983714Y-65333619D01*
X187031333Y-65428857D01*
X187031333Y-65571714D01*
X186983714Y-65666952D01*
X186936095Y-65714571D01*
X186840857Y-65762190D01*
X186459904Y-65762190D01*
X187936095Y-65238380D02*
X187459904Y-65238380D01*
X187412285Y-65714571D01*
X187459904Y-65666952D01*
X187555142Y-65619333D01*
X187793238Y-65619333D01*
X187888476Y-65666952D01*
X187936095Y-65714571D01*
X187983714Y-65809809D01*
X187983714Y-66047904D01*
X187936095Y-66143142D01*
X187888476Y-66190761D01*
X187793238Y-66238380D01*
X187555142Y-66238380D01*
X187459904Y-66190761D01*
X187412285Y-66143142D01*
D12*
X185731380Y-70465904D02*
X185274238Y-70465904D01*
X185502809Y-70465904D02*
X185502809Y-69665904D01*
X185426619Y-69780190D01*
X185350428Y-69856380D01*
X185274238Y-69894476D01*
X186226619Y-69665904D02*
X186302809Y-69665904D01*
X186379000Y-69704000D01*
X186417095Y-69742095D01*
X186455190Y-69818285D01*
X186493285Y-69970666D01*
X186493285Y-70161142D01*
X186455190Y-70313523D01*
X186417095Y-70389714D01*
X186379000Y-70427809D01*
X186302809Y-70465904D01*
X186226619Y-70465904D01*
X186150428Y-70427809D01*
X186112333Y-70389714D01*
X186074238Y-70313523D01*
X186036142Y-70161142D01*
X186036142Y-69970666D01*
X186074238Y-69818285D01*
X186112333Y-69742095D01*
X186150428Y-69704000D01*
X186226619Y-69665904D01*
X186988523Y-69665904D02*
X187064714Y-69665904D01*
X187140904Y-69704000D01*
X187179000Y-69742095D01*
X187217095Y-69818285D01*
X187255190Y-69970666D01*
X187255190Y-70161142D01*
X187217095Y-70313523D01*
X187179000Y-70389714D01*
X187140904Y-70427809D01*
X187064714Y-70465904D01*
X186988523Y-70465904D01*
X186912333Y-70427809D01*
X186874238Y-70389714D01*
X186836142Y-70313523D01*
X186798047Y-70161142D01*
X186798047Y-69970666D01*
X186836142Y-69818285D01*
X186874238Y-69742095D01*
X186912333Y-69704000D01*
X186988523Y-69665904D01*
X187750428Y-69665904D02*
X187902809Y-69665904D01*
X187979000Y-69704000D01*
X188055190Y-69780190D01*
X188093285Y-69932571D01*
X188093285Y-70199238D01*
X188055190Y-70351619D01*
X187979000Y-70427809D01*
X187902809Y-70465904D01*
X187750428Y-70465904D01*
X187674238Y-70427809D01*
X187598047Y-70351619D01*
X187559952Y-70199238D01*
X187559952Y-69932571D01*
X187598047Y-69780190D01*
X187674238Y-69704000D01*
X187750428Y-69665904D01*
X188436142Y-70465904D02*
X188436142Y-69665904D01*
X188779000Y-70465904D02*
X188779000Y-70046857D01*
X188740904Y-69970666D01*
X188664714Y-69932571D01*
X188550428Y-69932571D01*
X188474238Y-69970666D01*
X188436142Y-70008761D01*
X189159952Y-70465904D02*
X189159952Y-69932571D01*
X189159952Y-70008761D02*
X189198047Y-69970666D01*
X189274238Y-69932571D01*
X189388523Y-69932571D01*
X189464714Y-69970666D01*
X189502809Y-70046857D01*
X189502809Y-70465904D01*
X189502809Y-70046857D02*
X189540904Y-69970666D01*
X189617095Y-69932571D01*
X189731380Y-69932571D01*
X189807571Y-69970666D01*
X189845666Y-70046857D01*
X189845666Y-70465904D01*
D10*
%TO.C,R6*%
X186904333Y-88590380D02*
X186571000Y-88114190D01*
X186332904Y-88590380D02*
X186332904Y-87590380D01*
X186713857Y-87590380D01*
X186809095Y-87638000D01*
X186856714Y-87685619D01*
X186904333Y-87780857D01*
X186904333Y-87923714D01*
X186856714Y-88018952D01*
X186809095Y-88066571D01*
X186713857Y-88114190D01*
X186332904Y-88114190D01*
X187761476Y-87590380D02*
X187571000Y-87590380D01*
X187475761Y-87638000D01*
X187428142Y-87685619D01*
X187332904Y-87828476D01*
X187285285Y-88018952D01*
X187285285Y-88399904D01*
X187332904Y-88495142D01*
X187380523Y-88542761D01*
X187475761Y-88590380D01*
X187666238Y-88590380D01*
X187761476Y-88542761D01*
X187809095Y-88495142D01*
X187856714Y-88399904D01*
X187856714Y-88161809D01*
X187809095Y-88066571D01*
X187761476Y-88018952D01*
X187666238Y-87971333D01*
X187475761Y-87971333D01*
X187380523Y-88018952D01*
X187332904Y-88066571D01*
X187285285Y-88161809D01*
D12*
X185477380Y-83970904D02*
X185020238Y-83970904D01*
X185248809Y-83970904D02*
X185248809Y-83170904D01*
X185172619Y-83285190D01*
X185096428Y-83361380D01*
X185020238Y-83399476D01*
X185972619Y-83170904D02*
X186048809Y-83170904D01*
X186125000Y-83209000D01*
X186163095Y-83247095D01*
X186201190Y-83323285D01*
X186239285Y-83475666D01*
X186239285Y-83666142D01*
X186201190Y-83818523D01*
X186163095Y-83894714D01*
X186125000Y-83932809D01*
X186048809Y-83970904D01*
X185972619Y-83970904D01*
X185896428Y-83932809D01*
X185858333Y-83894714D01*
X185820238Y-83818523D01*
X185782142Y-83666142D01*
X185782142Y-83475666D01*
X185820238Y-83323285D01*
X185858333Y-83247095D01*
X185896428Y-83209000D01*
X185972619Y-83170904D01*
X186734523Y-83170904D02*
X186810714Y-83170904D01*
X186886904Y-83209000D01*
X186925000Y-83247095D01*
X186963095Y-83323285D01*
X187001190Y-83475666D01*
X187001190Y-83666142D01*
X186963095Y-83818523D01*
X186925000Y-83894714D01*
X186886904Y-83932809D01*
X186810714Y-83970904D01*
X186734523Y-83970904D01*
X186658333Y-83932809D01*
X186620238Y-83894714D01*
X186582142Y-83818523D01*
X186544047Y-83666142D01*
X186544047Y-83475666D01*
X186582142Y-83323285D01*
X186620238Y-83247095D01*
X186658333Y-83209000D01*
X186734523Y-83170904D01*
X187496428Y-83170904D02*
X187648809Y-83170904D01*
X187725000Y-83209000D01*
X187801190Y-83285190D01*
X187839285Y-83437571D01*
X187839285Y-83704238D01*
X187801190Y-83856619D01*
X187725000Y-83932809D01*
X187648809Y-83970904D01*
X187496428Y-83970904D01*
X187420238Y-83932809D01*
X187344047Y-83856619D01*
X187305952Y-83704238D01*
X187305952Y-83437571D01*
X187344047Y-83285190D01*
X187420238Y-83209000D01*
X187496428Y-83170904D01*
X188182142Y-83970904D02*
X188182142Y-83170904D01*
X188525000Y-83970904D02*
X188525000Y-83551857D01*
X188486904Y-83475666D01*
X188410714Y-83437571D01*
X188296428Y-83437571D01*
X188220238Y-83475666D01*
X188182142Y-83513761D01*
X188905952Y-83970904D02*
X188905952Y-83437571D01*
X188905952Y-83513761D02*
X188944047Y-83475666D01*
X189020238Y-83437571D01*
X189134523Y-83437571D01*
X189210714Y-83475666D01*
X189248809Y-83551857D01*
X189248809Y-83970904D01*
X189248809Y-83551857D02*
X189286904Y-83475666D01*
X189363095Y-83437571D01*
X189477380Y-83437571D01*
X189553571Y-83475666D01*
X189591666Y-83551857D01*
X189591666Y-83970904D01*
D10*
%TO.C,R11*%
X162933142Y-68143380D02*
X162599809Y-67667190D01*
X162361714Y-68143380D02*
X162361714Y-67143380D01*
X162742666Y-67143380D01*
X162837904Y-67191000D01*
X162885523Y-67238619D01*
X162933142Y-67333857D01*
X162933142Y-67476714D01*
X162885523Y-67571952D01*
X162837904Y-67619571D01*
X162742666Y-67667190D01*
X162361714Y-67667190D01*
X163885523Y-68143380D02*
X163314095Y-68143380D01*
X163599809Y-68143380D02*
X163599809Y-67143380D01*
X163504571Y-67286238D01*
X163409333Y-67381476D01*
X163314095Y-67429095D01*
X164837904Y-68143380D02*
X164266476Y-68143380D01*
X164552190Y-68143380D02*
X164552190Y-67143380D01*
X164456952Y-67286238D01*
X164361714Y-67381476D01*
X164266476Y-67429095D01*
D12*
X161563285Y-72035904D02*
X161182333Y-72035904D01*
X161144238Y-72416857D01*
X161182333Y-72378761D01*
X161258523Y-72340666D01*
X161449000Y-72340666D01*
X161525190Y-72378761D01*
X161563285Y-72416857D01*
X161601380Y-72493047D01*
X161601380Y-72683523D01*
X161563285Y-72759714D01*
X161525190Y-72797809D01*
X161449000Y-72835904D01*
X161258523Y-72835904D01*
X161182333Y-72797809D01*
X161144238Y-72759714D01*
X162287095Y-72302571D02*
X162287095Y-72835904D01*
X162096619Y-71997809D02*
X161906142Y-72569238D01*
X162401380Y-72569238D01*
X163049000Y-72035904D02*
X162896619Y-72035904D01*
X162820428Y-72074000D01*
X162782333Y-72112095D01*
X162706142Y-72226380D01*
X162668047Y-72378761D01*
X162668047Y-72683523D01*
X162706142Y-72759714D01*
X162744238Y-72797809D01*
X162820428Y-72835904D01*
X162972809Y-72835904D01*
X163049000Y-72797809D01*
X163087095Y-72759714D01*
X163125190Y-72683523D01*
X163125190Y-72493047D01*
X163087095Y-72416857D01*
X163049000Y-72378761D01*
X162972809Y-72340666D01*
X162820428Y-72340666D01*
X162744238Y-72378761D01*
X162706142Y-72416857D01*
X162668047Y-72493047D01*
X163620428Y-72035904D02*
X163772809Y-72035904D01*
X163849000Y-72074000D01*
X163925190Y-72150190D01*
X163963285Y-72302571D01*
X163963285Y-72569238D01*
X163925190Y-72721619D01*
X163849000Y-72797809D01*
X163772809Y-72835904D01*
X163620428Y-72835904D01*
X163544238Y-72797809D01*
X163468047Y-72721619D01*
X163429952Y-72569238D01*
X163429952Y-72302571D01*
X163468047Y-72150190D01*
X163544238Y-72074000D01*
X163620428Y-72035904D01*
X164306142Y-72835904D02*
X164306142Y-72035904D01*
X164649000Y-72835904D02*
X164649000Y-72416857D01*
X164610904Y-72340666D01*
X164534714Y-72302571D01*
X164420428Y-72302571D01*
X164344238Y-72340666D01*
X164306142Y-72378761D01*
X165029952Y-72835904D02*
X165029952Y-72302571D01*
X165029952Y-72378761D02*
X165068047Y-72340666D01*
X165144238Y-72302571D01*
X165258523Y-72302571D01*
X165334714Y-72340666D01*
X165372809Y-72416857D01*
X165372809Y-72835904D01*
X165372809Y-72416857D02*
X165410904Y-72340666D01*
X165487095Y-72302571D01*
X165601380Y-72302571D01*
X165677571Y-72340666D01*
X165715666Y-72416857D01*
X165715666Y-72835904D01*
D10*
%TO.C,D1*%
X119403904Y-90091380D02*
X119403904Y-89091380D01*
X119642000Y-89091380D01*
X119784857Y-89139000D01*
X119880095Y-89234238D01*
X119927714Y-89329476D01*
X119975333Y-89519952D01*
X119975333Y-89662809D01*
X119927714Y-89853285D01*
X119880095Y-89948523D01*
X119784857Y-90043761D01*
X119642000Y-90091380D01*
X119403904Y-90091380D01*
X120927714Y-90091380D02*
X120356285Y-90091380D01*
X120642000Y-90091380D02*
X120642000Y-89091380D01*
X120546761Y-89234238D01*
X120451523Y-89329476D01*
X120356285Y-89377095D01*
D12*
X119627714Y-97920904D02*
X119246761Y-97920904D01*
X119246761Y-97120904D01*
X119894380Y-97501857D02*
X120161047Y-97501857D01*
X120275333Y-97920904D02*
X119894380Y-97920904D01*
X119894380Y-97120904D01*
X120275333Y-97120904D01*
X120618190Y-97920904D02*
X120618190Y-97120904D01*
X120808666Y-97120904D01*
X120922952Y-97159000D01*
X120999142Y-97235190D01*
X121037238Y-97311380D01*
X121075333Y-97463761D01*
X121075333Y-97578047D01*
X121037238Y-97730428D01*
X120999142Y-97806619D01*
X120922952Y-97882809D01*
X120808666Y-97920904D01*
X120618190Y-97920904D01*
D10*
%TO.C,R1*%
X134384380Y-96935666D02*
X133908190Y-97269000D01*
X134384380Y-97507095D02*
X133384380Y-97507095D01*
X133384380Y-97126142D01*
X133432000Y-97030904D01*
X133479619Y-96983285D01*
X133574857Y-96935666D01*
X133717714Y-96935666D01*
X133812952Y-96983285D01*
X133860571Y-97030904D01*
X133908190Y-97126142D01*
X133908190Y-97507095D01*
X134384380Y-95983285D02*
X134384380Y-96554714D01*
X134384380Y-96269000D02*
X133384380Y-96269000D01*
X133527238Y-96364238D01*
X133622476Y-96459476D01*
X133670095Y-96554714D01*
D12*
X129553904Y-98178523D02*
X129553904Y-98635666D01*
X129553904Y-98407095D02*
X128753904Y-98407095D01*
X128868190Y-98483285D01*
X128944380Y-98559476D01*
X128982476Y-98635666D01*
X129553904Y-97835666D02*
X128753904Y-97835666D01*
X129249142Y-97759476D02*
X129553904Y-97530904D01*
X129020571Y-97530904D02*
X129325333Y-97835666D01*
X128753904Y-97035666D02*
X128753904Y-96883285D01*
X128792000Y-96807095D01*
X128868190Y-96730904D01*
X129020571Y-96692809D01*
X129287238Y-96692809D01*
X129439619Y-96730904D01*
X129515809Y-96807095D01*
X129553904Y-96883285D01*
X129553904Y-97035666D01*
X129515809Y-97111857D01*
X129439619Y-97188047D01*
X129287238Y-97226142D01*
X129020571Y-97226142D01*
X128868190Y-97188047D01*
X128792000Y-97111857D01*
X128753904Y-97035666D01*
X129553904Y-96349952D02*
X128753904Y-96349952D01*
X129553904Y-96007095D02*
X129134857Y-96007095D01*
X129058666Y-96045190D01*
X129020571Y-96121380D01*
X129020571Y-96235666D01*
X129058666Y-96311857D01*
X129096761Y-96349952D01*
X129553904Y-95626142D02*
X129020571Y-95626142D01*
X129096761Y-95626142D02*
X129058666Y-95588047D01*
X129020571Y-95511857D01*
X129020571Y-95397571D01*
X129058666Y-95321380D01*
X129134857Y-95283285D01*
X129553904Y-95283285D01*
X129134857Y-95283285D02*
X129058666Y-95245190D01*
X129020571Y-95169000D01*
X129020571Y-95054714D01*
X129058666Y-94978523D01*
X129134857Y-94940428D01*
X129553904Y-94940428D01*
D13*
%TO.C,Q4*%
X172935476Y-98110952D02*
X172875000Y-98231904D01*
X172754047Y-98352857D01*
X172572619Y-98534285D01*
X172512142Y-98655238D01*
X172512142Y-98776190D01*
X172814523Y-98715714D02*
X172754047Y-98836666D01*
X172633095Y-98957619D01*
X172391190Y-99018095D01*
X171967857Y-99018095D01*
X171725952Y-98957619D01*
X171605000Y-98836666D01*
X171544523Y-98715714D01*
X171544523Y-98473809D01*
X171605000Y-98352857D01*
X171725952Y-98231904D01*
X171967857Y-98171428D01*
X172391190Y-98171428D01*
X172633095Y-98231904D01*
X172754047Y-98352857D01*
X172814523Y-98473809D01*
X172814523Y-98715714D01*
X171967857Y-97082857D02*
X172814523Y-97082857D01*
X171484047Y-97385238D02*
X172391190Y-97687619D01*
X172391190Y-96901428D01*
D10*
%TO.C,J1*%
X196545803Y-97711467D02*
X197108233Y-97711467D01*
X197220719Y-97748962D01*
X197295710Y-97823953D01*
X197333205Y-97936439D01*
X197333205Y-98011430D01*
X197333205Y-96924065D02*
X197333205Y-97374009D01*
X197333205Y-97149037D02*
X196545803Y-97149037D01*
X196658289Y-97224028D01*
X196733280Y-97299018D01*
X196770775Y-97374009D01*
%TO.C,J4*%
X118388666Y-87253380D02*
X118388666Y-87967666D01*
X118341047Y-88110523D01*
X118245809Y-88205761D01*
X118102952Y-88253380D01*
X118007714Y-88253380D01*
X119293428Y-87586714D02*
X119293428Y-88253380D01*
X119055333Y-87205761D02*
X118817238Y-87920047D01*
X119436285Y-87920047D01*
D12*
X116836285Y-70802904D02*
X116836285Y-70002904D01*
X116836285Y-70383857D02*
X117293428Y-70383857D01*
X117293428Y-70802904D02*
X117293428Y-70002904D01*
X118131523Y-70726714D02*
X118093428Y-70764809D01*
X117979142Y-70802904D01*
X117902952Y-70802904D01*
X117788666Y-70764809D01*
X117712476Y-70688619D01*
X117674380Y-70612428D01*
X117636285Y-70460047D01*
X117636285Y-70345761D01*
X117674380Y-70193380D01*
X117712476Y-70117190D01*
X117788666Y-70041000D01*
X117902952Y-70002904D01*
X117979142Y-70002904D01*
X118093428Y-70041000D01*
X118131523Y-70079095D01*
X118474380Y-70498142D02*
X119083904Y-70498142D01*
X119617238Y-70002904D02*
X119693428Y-70002904D01*
X119769619Y-70041000D01*
X119807714Y-70079095D01*
X119845809Y-70155285D01*
X119883904Y-70307666D01*
X119883904Y-70498142D01*
X119845809Y-70650523D01*
X119807714Y-70726714D01*
X119769619Y-70764809D01*
X119693428Y-70802904D01*
X119617238Y-70802904D01*
X119541047Y-70764809D01*
X119502952Y-70726714D01*
X119464857Y-70650523D01*
X119426761Y-70498142D01*
X119426761Y-70307666D01*
X119464857Y-70155285D01*
X119502952Y-70079095D01*
X119541047Y-70041000D01*
X119617238Y-70002904D01*
X120607714Y-70002904D02*
X120226761Y-70002904D01*
X120188666Y-70383857D01*
X120226761Y-70345761D01*
X120302952Y-70307666D01*
X120493428Y-70307666D01*
X120569619Y-70345761D01*
X120607714Y-70383857D01*
X120645809Y-70460047D01*
X120645809Y-70650523D01*
X120607714Y-70726714D01*
X120569619Y-70764809D01*
X120493428Y-70802904D01*
X120302952Y-70802904D01*
X120226761Y-70764809D01*
X120188666Y-70726714D01*
D13*
%TO.C,Q5*%
X172935476Y-73590952D02*
X172875000Y-73711904D01*
X172754047Y-73832857D01*
X172572619Y-74014285D01*
X172512142Y-74135238D01*
X172512142Y-74256190D01*
X172814523Y-74195714D02*
X172754047Y-74316666D01*
X172633095Y-74437619D01*
X172391190Y-74498095D01*
X171967857Y-74498095D01*
X171725952Y-74437619D01*
X171605000Y-74316666D01*
X171544523Y-74195714D01*
X171544523Y-73953809D01*
X171605000Y-73832857D01*
X171725952Y-73711904D01*
X171967857Y-73651428D01*
X172391190Y-73651428D01*
X172633095Y-73711904D01*
X172754047Y-73832857D01*
X172814523Y-73953809D01*
X172814523Y-74195714D01*
X171544523Y-72502380D02*
X171544523Y-73107142D01*
X172149285Y-73167619D01*
X172088809Y-73107142D01*
X172028333Y-72986190D01*
X172028333Y-72683809D01*
X172088809Y-72562857D01*
X172149285Y-72502380D01*
X172270238Y-72441904D01*
X172572619Y-72441904D01*
X172693571Y-72502380D01*
X172754047Y-72562857D01*
X172814523Y-72683809D01*
X172814523Y-72986190D01*
X172754047Y-73107142D01*
X172693571Y-73167619D01*
D10*
%TO.C,R2*%
X134384380Y-86775666D02*
X133908190Y-87109000D01*
X134384380Y-87347095D02*
X133384380Y-87347095D01*
X133384380Y-86966142D01*
X133432000Y-86870904D01*
X133479619Y-86823285D01*
X133574857Y-86775666D01*
X133717714Y-86775666D01*
X133812952Y-86823285D01*
X133860571Y-86870904D01*
X133908190Y-86966142D01*
X133908190Y-87347095D01*
X133479619Y-86394714D02*
X133432000Y-86347095D01*
X133384380Y-86251857D01*
X133384380Y-86013761D01*
X133432000Y-85918523D01*
X133479619Y-85870904D01*
X133574857Y-85823285D01*
X133670095Y-85823285D01*
X133812952Y-85870904D01*
X134384380Y-86442333D01*
X134384380Y-85823285D01*
D12*
X128753904Y-88494714D02*
X128753904Y-88875666D01*
X129134857Y-88913761D01*
X129096761Y-88875666D01*
X129058666Y-88799476D01*
X129058666Y-88609000D01*
X129096761Y-88532809D01*
X129134857Y-88494714D01*
X129211047Y-88456619D01*
X129401523Y-88456619D01*
X129477714Y-88494714D01*
X129515809Y-88532809D01*
X129553904Y-88609000D01*
X129553904Y-88799476D01*
X129515809Y-88875666D01*
X129477714Y-88913761D01*
X129553904Y-87694714D02*
X129553904Y-88151857D01*
X129553904Y-87923285D02*
X128753904Y-87923285D01*
X128868190Y-87999476D01*
X128944380Y-88075666D01*
X128982476Y-88151857D01*
X128753904Y-86970904D02*
X128753904Y-87351857D01*
X129134857Y-87389952D01*
X129096761Y-87351857D01*
X129058666Y-87275666D01*
X129058666Y-87085190D01*
X129096761Y-87009000D01*
X129134857Y-86970904D01*
X129211047Y-86932809D01*
X129401523Y-86932809D01*
X129477714Y-86970904D01*
X129515809Y-87009000D01*
X129553904Y-87085190D01*
X129553904Y-87275666D01*
X129515809Y-87351857D01*
X129477714Y-87389952D01*
X128753904Y-86437571D02*
X128753904Y-86285190D01*
X128792000Y-86209000D01*
X128868190Y-86132809D01*
X129020571Y-86094714D01*
X129287238Y-86094714D01*
X129439619Y-86132809D01*
X129515809Y-86209000D01*
X129553904Y-86285190D01*
X129553904Y-86437571D01*
X129515809Y-86513761D01*
X129439619Y-86589952D01*
X129287238Y-86628047D01*
X129020571Y-86628047D01*
X128868190Y-86589952D01*
X128792000Y-86513761D01*
X128753904Y-86437571D01*
X129553904Y-85751857D02*
X128753904Y-85751857D01*
X129553904Y-85409000D02*
X129134857Y-85409000D01*
X129058666Y-85447095D01*
X129020571Y-85523285D01*
X129020571Y-85637571D01*
X129058666Y-85713761D01*
X129096761Y-85751857D01*
X129553904Y-85028047D02*
X129020571Y-85028047D01*
X129096761Y-85028047D02*
X129058666Y-84989952D01*
X129020571Y-84913761D01*
X129020571Y-84799476D01*
X129058666Y-84723285D01*
X129134857Y-84685190D01*
X129553904Y-84685190D01*
X129134857Y-84685190D02*
X129058666Y-84647095D01*
X129020571Y-84570904D01*
X129020571Y-84456619D01*
X129058666Y-84380428D01*
X129134857Y-84342333D01*
X129553904Y-84342333D01*
D10*
%TO.C,J3*%
X196545803Y-86662467D02*
X197108233Y-86662467D01*
X197220719Y-86699962D01*
X197295710Y-86774953D01*
X197333205Y-86887439D01*
X197333205Y-86962430D01*
X196545803Y-86362504D02*
X196545803Y-85875065D01*
X196845766Y-86137532D01*
X196845766Y-86025046D01*
X196883261Y-85950056D01*
X196920757Y-85912560D01*
X196995747Y-85875065D01*
X197183224Y-85875065D01*
X197258215Y-85912560D01*
X197295710Y-85950056D01*
X197333205Y-86025046D01*
X197333205Y-86250018D01*
X197295710Y-86325009D01*
X197258215Y-86362504D01*
%TO.C,Q2*%
X160796619Y-102457238D02*
X160749000Y-102552476D01*
X160653761Y-102647714D01*
X160510904Y-102790571D01*
X160463285Y-102885809D01*
X160463285Y-102981047D01*
X160701380Y-102933428D02*
X160653761Y-103028666D01*
X160558523Y-103123904D01*
X160368047Y-103171523D01*
X160034714Y-103171523D01*
X159844238Y-103123904D01*
X159749000Y-103028666D01*
X159701380Y-102933428D01*
X159701380Y-102742952D01*
X159749000Y-102647714D01*
X159844238Y-102552476D01*
X160034714Y-102504857D01*
X160368047Y-102504857D01*
X160558523Y-102552476D01*
X160653761Y-102647714D01*
X160701380Y-102742952D01*
X160701380Y-102933428D01*
X159796619Y-102123904D02*
X159749000Y-102076285D01*
X159701380Y-101981047D01*
X159701380Y-101742952D01*
X159749000Y-101647714D01*
X159796619Y-101600095D01*
X159891857Y-101552476D01*
X159987095Y-101552476D01*
X160129952Y-101600095D01*
X160701380Y-102171523D01*
X160701380Y-101552476D01*
D12*
X166541857Y-103847714D02*
X166579952Y-103733428D01*
X166618047Y-103695333D01*
X166694238Y-103657238D01*
X166808523Y-103657238D01*
X166884714Y-103695333D01*
X166922809Y-103733428D01*
X166960904Y-103809619D01*
X166960904Y-104114380D01*
X166160904Y-104114380D01*
X166160904Y-103847714D01*
X166199000Y-103771523D01*
X166237095Y-103733428D01*
X166313285Y-103695333D01*
X166389476Y-103695333D01*
X166465666Y-103733428D01*
X166503761Y-103771523D01*
X166541857Y-103847714D01*
X166541857Y-104114380D01*
X166884714Y-102857238D02*
X166922809Y-102895333D01*
X166960904Y-103009619D01*
X166960904Y-103085809D01*
X166922809Y-103200095D01*
X166846619Y-103276285D01*
X166770428Y-103314380D01*
X166618047Y-103352476D01*
X166503761Y-103352476D01*
X166351380Y-103314380D01*
X166275190Y-103276285D01*
X166199000Y-103200095D01*
X166160904Y-103085809D01*
X166160904Y-103009619D01*
X166199000Y-102895333D01*
X166237095Y-102857238D01*
X166160904Y-102133428D02*
X166160904Y-102514380D01*
X166541857Y-102552476D01*
X166503761Y-102514380D01*
X166465666Y-102438190D01*
X166465666Y-102247714D01*
X166503761Y-102171523D01*
X166541857Y-102133428D01*
X166618047Y-102095333D01*
X166808523Y-102095333D01*
X166884714Y-102133428D01*
X166922809Y-102171523D01*
X166960904Y-102247714D01*
X166960904Y-102438190D01*
X166922809Y-102514380D01*
X166884714Y-102552476D01*
X166427571Y-101409619D02*
X166960904Y-101409619D01*
X166122809Y-101600095D02*
X166694238Y-101790571D01*
X166694238Y-101295333D01*
X166503761Y-100876285D02*
X166465666Y-100952476D01*
X166427571Y-100990571D01*
X166351380Y-101028666D01*
X166313285Y-101028666D01*
X166237095Y-100990571D01*
X166199000Y-100952476D01*
X166160904Y-100876285D01*
X166160904Y-100723904D01*
X166199000Y-100647714D01*
X166237095Y-100609619D01*
X166313285Y-100571523D01*
X166351380Y-100571523D01*
X166427571Y-100609619D01*
X166465666Y-100647714D01*
X166503761Y-100723904D01*
X166503761Y-100876285D01*
X166541857Y-100952476D01*
X166579952Y-100990571D01*
X166656142Y-101028666D01*
X166808523Y-101028666D01*
X166884714Y-100990571D01*
X166922809Y-100952476D01*
X166960904Y-100876285D01*
X166960904Y-100723904D01*
X166922809Y-100647714D01*
X166884714Y-100609619D01*
X166808523Y-100571523D01*
X166656142Y-100571523D01*
X166579952Y-100609619D01*
X166541857Y-100647714D01*
X166503761Y-100723904D01*
D10*
%TO.C,Q1*%
X160796619Y-76650838D02*
X160749000Y-76746076D01*
X160653761Y-76841314D01*
X160510904Y-76984171D01*
X160463285Y-77079409D01*
X160463285Y-77174647D01*
X160701380Y-77127028D02*
X160653761Y-77222266D01*
X160558523Y-77317504D01*
X160368047Y-77365123D01*
X160034714Y-77365123D01*
X159844238Y-77317504D01*
X159749000Y-77222266D01*
X159701380Y-77127028D01*
X159701380Y-76936552D01*
X159749000Y-76841314D01*
X159844238Y-76746076D01*
X160034714Y-76698457D01*
X160368047Y-76698457D01*
X160558523Y-76746076D01*
X160653761Y-76841314D01*
X160701380Y-76936552D01*
X160701380Y-77127028D01*
X160701380Y-75746076D02*
X160701380Y-76317504D01*
X160701380Y-76031790D02*
X159701380Y-76031790D01*
X159844238Y-76127028D01*
X159939476Y-76222266D01*
X159987095Y-76317504D01*
D12*
X166541857Y-78041314D02*
X166579952Y-77927028D01*
X166618047Y-77888933D01*
X166694238Y-77850838D01*
X166808523Y-77850838D01*
X166884714Y-77888933D01*
X166922809Y-77927028D01*
X166960904Y-78003219D01*
X166960904Y-78307980D01*
X166160904Y-78307980D01*
X166160904Y-78041314D01*
X166199000Y-77965123D01*
X166237095Y-77927028D01*
X166313285Y-77888933D01*
X166389476Y-77888933D01*
X166465666Y-77927028D01*
X166503761Y-77965123D01*
X166541857Y-78041314D01*
X166541857Y-78307980D01*
X166884714Y-77050838D02*
X166922809Y-77088933D01*
X166960904Y-77203219D01*
X166960904Y-77279409D01*
X166922809Y-77393695D01*
X166846619Y-77469885D01*
X166770428Y-77507980D01*
X166618047Y-77546076D01*
X166503761Y-77546076D01*
X166351380Y-77507980D01*
X166275190Y-77469885D01*
X166199000Y-77393695D01*
X166160904Y-77279409D01*
X166160904Y-77203219D01*
X166199000Y-77088933D01*
X166237095Y-77050838D01*
X166160904Y-76327028D02*
X166160904Y-76707980D01*
X166541857Y-76746076D01*
X166503761Y-76707980D01*
X166465666Y-76631790D01*
X166465666Y-76441314D01*
X166503761Y-76365123D01*
X166541857Y-76327028D01*
X166618047Y-76288933D01*
X166808523Y-76288933D01*
X166884714Y-76327028D01*
X166922809Y-76365123D01*
X166960904Y-76441314D01*
X166960904Y-76631790D01*
X166922809Y-76707980D01*
X166884714Y-76746076D01*
X166427571Y-75603219D02*
X166960904Y-75603219D01*
X166122809Y-75793695D02*
X166694238Y-75984171D01*
X166694238Y-75488933D01*
X166503761Y-75069885D02*
X166465666Y-75146076D01*
X166427571Y-75184171D01*
X166351380Y-75222266D01*
X166313285Y-75222266D01*
X166237095Y-75184171D01*
X166199000Y-75146076D01*
X166160904Y-75069885D01*
X166160904Y-74917504D01*
X166199000Y-74841314D01*
X166237095Y-74803219D01*
X166313285Y-74765123D01*
X166351380Y-74765123D01*
X166427571Y-74803219D01*
X166465666Y-74841314D01*
X166503761Y-74917504D01*
X166503761Y-75069885D01*
X166541857Y-75146076D01*
X166579952Y-75184171D01*
X166656142Y-75222266D01*
X166808523Y-75222266D01*
X166884714Y-75184171D01*
X166922809Y-75146076D01*
X166960904Y-75069885D01*
X166960904Y-74917504D01*
X166922809Y-74841314D01*
X166884714Y-74803219D01*
X166808523Y-74765123D01*
X166656142Y-74765123D01*
X166579952Y-74803219D01*
X166541857Y-74841314D01*
X166503761Y-74917504D01*
D10*
%TO.C,J2*%
X196545803Y-75613467D02*
X197108233Y-75613467D01*
X197220719Y-75650962D01*
X197295710Y-75725953D01*
X197333205Y-75838439D01*
X197333205Y-75913430D01*
X196620794Y-75276009D02*
X196583299Y-75238514D01*
X196545803Y-75163523D01*
X196545803Y-74976046D01*
X196583299Y-74901056D01*
X196620794Y-74863560D01*
X196695785Y-74826065D01*
X196770775Y-74826065D01*
X196883261Y-74863560D01*
X197333205Y-75313504D01*
X197333205Y-74826065D01*
%TO.C,R9*%
X154577333Y-88506380D02*
X154244000Y-88030190D01*
X154005904Y-88506380D02*
X154005904Y-87506380D01*
X154386857Y-87506380D01*
X154482095Y-87554000D01*
X154529714Y-87601619D01*
X154577333Y-87696857D01*
X154577333Y-87839714D01*
X154529714Y-87934952D01*
X154482095Y-87982571D01*
X154386857Y-88030190D01*
X154005904Y-88030190D01*
X155053523Y-88506380D02*
X155244000Y-88506380D01*
X155339238Y-88458761D01*
X155386857Y-88411142D01*
X155482095Y-88268285D01*
X155529714Y-88077809D01*
X155529714Y-87696857D01*
X155482095Y-87601619D01*
X155434476Y-87554000D01*
X155339238Y-87506380D01*
X155148761Y-87506380D01*
X155053523Y-87554000D01*
X155005904Y-87601619D01*
X154958285Y-87696857D01*
X154958285Y-87934952D01*
X155005904Y-88030190D01*
X155053523Y-88077809D01*
X155148761Y-88125428D01*
X155339238Y-88125428D01*
X155434476Y-88077809D01*
X155482095Y-88030190D01*
X155529714Y-87934952D01*
D12*
X152572571Y-93155904D02*
X152115428Y-93155904D01*
X152344000Y-93155904D02*
X152344000Y-92355904D01*
X152267809Y-92470190D01*
X152191619Y-92546380D01*
X152115428Y-92584476D01*
X153067809Y-92355904D02*
X153144000Y-92355904D01*
X153220190Y-92394000D01*
X153258285Y-92432095D01*
X153296380Y-92508285D01*
X153334476Y-92660666D01*
X153334476Y-92851142D01*
X153296380Y-93003523D01*
X153258285Y-93079714D01*
X153220190Y-93117809D01*
X153144000Y-93155904D01*
X153067809Y-93155904D01*
X152991619Y-93117809D01*
X152953523Y-93079714D01*
X152915428Y-93003523D01*
X152877333Y-92851142D01*
X152877333Y-92660666D01*
X152915428Y-92508285D01*
X152953523Y-92432095D01*
X152991619Y-92394000D01*
X153067809Y-92355904D01*
X153829714Y-92355904D02*
X153905904Y-92355904D01*
X153982095Y-92394000D01*
X154020190Y-92432095D01*
X154058285Y-92508285D01*
X154096380Y-92660666D01*
X154096380Y-92851142D01*
X154058285Y-93003523D01*
X154020190Y-93079714D01*
X153982095Y-93117809D01*
X153905904Y-93155904D01*
X153829714Y-93155904D01*
X153753523Y-93117809D01*
X153715428Y-93079714D01*
X153677333Y-93003523D01*
X153639238Y-92851142D01*
X153639238Y-92660666D01*
X153677333Y-92508285D01*
X153715428Y-92432095D01*
X153753523Y-92394000D01*
X153829714Y-92355904D01*
X154439238Y-93155904D02*
X154439238Y-92355904D01*
X154515428Y-92851142D02*
X154744000Y-93155904D01*
X154744000Y-92622571D02*
X154439238Y-92927333D01*
X155239238Y-92355904D02*
X155391619Y-92355904D01*
X155467809Y-92394000D01*
X155544000Y-92470190D01*
X155582095Y-92622571D01*
X155582095Y-92889238D01*
X155544000Y-93041619D01*
X155467809Y-93117809D01*
X155391619Y-93155904D01*
X155239238Y-93155904D01*
X155163047Y-93117809D01*
X155086857Y-93041619D01*
X155048761Y-92889238D01*
X155048761Y-92622571D01*
X155086857Y-92470190D01*
X155163047Y-92394000D01*
X155239238Y-92355904D01*
X155924952Y-93155904D02*
X155924952Y-92355904D01*
X156267809Y-93155904D02*
X156267809Y-92736857D01*
X156229714Y-92660666D01*
X156153523Y-92622571D01*
X156039238Y-92622571D01*
X155963047Y-92660666D01*
X155924952Y-92698761D01*
X156648761Y-93155904D02*
X156648761Y-92622571D01*
X156648761Y-92698761D02*
X156686857Y-92660666D01*
X156763047Y-92622571D01*
X156877333Y-92622571D01*
X156953523Y-92660666D01*
X156991619Y-92736857D01*
X156991619Y-93155904D01*
X156991619Y-92736857D02*
X157029714Y-92660666D01*
X157105904Y-92622571D01*
X157220190Y-92622571D01*
X157296380Y-92660666D01*
X157334476Y-92736857D01*
X157334476Y-93155904D01*
D13*
%TO.C,Q6*%
X173145476Y-85440952D02*
X173085000Y-85561904D01*
X172964047Y-85682857D01*
X172782619Y-85864285D01*
X172722142Y-85985238D01*
X172722142Y-86106190D01*
X173024523Y-86045714D02*
X172964047Y-86166666D01*
X172843095Y-86287619D01*
X172601190Y-86348095D01*
X172177857Y-86348095D01*
X171935952Y-86287619D01*
X171815000Y-86166666D01*
X171754523Y-86045714D01*
X171754523Y-85803809D01*
X171815000Y-85682857D01*
X171935952Y-85561904D01*
X172177857Y-85501428D01*
X172601190Y-85501428D01*
X172843095Y-85561904D01*
X172964047Y-85682857D01*
X173024523Y-85803809D01*
X173024523Y-86045714D01*
X171754523Y-84412857D02*
X171754523Y-84654761D01*
X171815000Y-84775714D01*
X171875476Y-84836190D01*
X172056904Y-84957142D01*
X172298809Y-85017619D01*
X172782619Y-85017619D01*
X172903571Y-84957142D01*
X172964047Y-84896666D01*
X173024523Y-84775714D01*
X173024523Y-84533809D01*
X172964047Y-84412857D01*
X172903571Y-84352380D01*
X172782619Y-84291904D01*
X172480238Y-84291904D01*
X172359285Y-84352380D01*
X172298809Y-84412857D01*
X172238333Y-84533809D01*
X172238333Y-84775714D01*
X172298809Y-84896666D01*
X172359285Y-84957142D01*
X172480238Y-85017619D01*
D10*
%TO.C,R3*%
X139663333Y-74652380D02*
X139330000Y-74176190D01*
X139091904Y-74652380D02*
X139091904Y-73652380D01*
X139472857Y-73652380D01*
X139568095Y-73700000D01*
X139615714Y-73747619D01*
X139663333Y-73842857D01*
X139663333Y-73985714D01*
X139615714Y-74080952D01*
X139568095Y-74128571D01*
X139472857Y-74176190D01*
X139091904Y-74176190D01*
X139996666Y-73652380D02*
X140615714Y-73652380D01*
X140282380Y-74033333D01*
X140425238Y-74033333D01*
X140520476Y-74080952D01*
X140568095Y-74128571D01*
X140615714Y-74223809D01*
X140615714Y-74461904D01*
X140568095Y-74557142D01*
X140520476Y-74604761D01*
X140425238Y-74652380D01*
X140139523Y-74652380D01*
X140044285Y-74604761D01*
X139996666Y-74557142D01*
D12*
X138661476Y-69920704D02*
X138204333Y-69920704D01*
X138432904Y-69920704D02*
X138432904Y-69120704D01*
X138356714Y-69234990D01*
X138280523Y-69311180D01*
X138204333Y-69349276D01*
X139004333Y-69920704D02*
X139004333Y-69120704D01*
X139080523Y-69615942D02*
X139309095Y-69920704D01*
X139309095Y-69387371D02*
X139004333Y-69692133D01*
X139804333Y-69120704D02*
X139956714Y-69120704D01*
X140032904Y-69158800D01*
X140109095Y-69234990D01*
X140147190Y-69387371D01*
X140147190Y-69654038D01*
X140109095Y-69806419D01*
X140032904Y-69882609D01*
X139956714Y-69920704D01*
X139804333Y-69920704D01*
X139728142Y-69882609D01*
X139651952Y-69806419D01*
X139613857Y-69654038D01*
X139613857Y-69387371D01*
X139651952Y-69234990D01*
X139728142Y-69158800D01*
X139804333Y-69120704D01*
X140490047Y-69920704D02*
X140490047Y-69120704D01*
X140832904Y-69920704D02*
X140832904Y-69501657D01*
X140794809Y-69425466D01*
X140718619Y-69387371D01*
X140604333Y-69387371D01*
X140528142Y-69425466D01*
X140490047Y-69463561D01*
X141213857Y-69920704D02*
X141213857Y-69387371D01*
X141213857Y-69463561D02*
X141251952Y-69425466D01*
X141328142Y-69387371D01*
X141442428Y-69387371D01*
X141518619Y-69425466D01*
X141556714Y-69501657D01*
X141556714Y-69920704D01*
X141556714Y-69501657D02*
X141594809Y-69425466D01*
X141671000Y-69387371D01*
X141785285Y-69387371D01*
X141861476Y-69425466D01*
X141899571Y-69501657D01*
X141899571Y-69920704D01*
D10*
%TO.C,U2*%
X139068095Y-75022380D02*
X139068095Y-75831904D01*
X139115714Y-75927142D01*
X139163333Y-75974761D01*
X139258571Y-76022380D01*
X139449047Y-76022380D01*
X139544285Y-75974761D01*
X139591904Y-75927142D01*
X139639523Y-75831904D01*
X139639523Y-75022380D01*
X140068095Y-75117619D02*
X140115714Y-75070000D01*
X140210952Y-75022380D01*
X140449047Y-75022380D01*
X140544285Y-75070000D01*
X140591904Y-75117619D01*
X140639523Y-75212857D01*
X140639523Y-75308095D01*
X140591904Y-75450952D01*
X140020476Y-76022380D01*
X140639523Y-76022380D01*
D12*
X135192095Y-103047333D02*
X135573047Y-103047333D01*
X135115904Y-103275904D02*
X135382571Y-102475904D01*
X135649238Y-103275904D01*
X135801619Y-102475904D02*
X136258761Y-102475904D01*
X136030190Y-103275904D02*
X136030190Y-102475904D01*
X136411142Y-102742571D02*
X136715904Y-102742571D01*
X136525428Y-102475904D02*
X136525428Y-103161619D01*
X136563523Y-103237809D01*
X136639714Y-103275904D01*
X136715904Y-103275904D01*
X136982571Y-103275904D02*
X136982571Y-102742571D01*
X136982571Y-102475904D02*
X136944476Y-102514000D01*
X136982571Y-102552095D01*
X137020666Y-102514000D01*
X136982571Y-102475904D01*
X136982571Y-102552095D01*
X137363523Y-102742571D02*
X137363523Y-103275904D01*
X137363523Y-102818761D02*
X137401619Y-102780666D01*
X137477809Y-102742571D01*
X137592095Y-102742571D01*
X137668285Y-102780666D01*
X137706380Y-102856857D01*
X137706380Y-103275904D01*
X138011142Y-102742571D02*
X138201619Y-103275904D01*
X138392095Y-102742571D02*
X138201619Y-103275904D01*
X138125428Y-103466380D01*
X138087333Y-103504476D01*
X138011142Y-103542571D01*
X138658761Y-102552095D02*
X138696857Y-102514000D01*
X138773047Y-102475904D01*
X138963523Y-102475904D01*
X139039714Y-102514000D01*
X139077809Y-102552095D01*
X139115904Y-102628285D01*
X139115904Y-102704476D01*
X139077809Y-102818761D01*
X138620666Y-103275904D01*
X139115904Y-103275904D01*
X139382571Y-102475904D02*
X139877809Y-102475904D01*
X139611142Y-102780666D01*
X139725428Y-102780666D01*
X139801619Y-102818761D01*
X139839714Y-102856857D01*
X139877809Y-102933047D01*
X139877809Y-103123523D01*
X139839714Y-103199714D01*
X139801619Y-103237809D01*
X139725428Y-103275904D01*
X139496857Y-103275904D01*
X139420666Y-103237809D01*
X139382571Y-103199714D01*
X140639714Y-103275904D02*
X140182571Y-103275904D01*
X140411142Y-103275904D02*
X140411142Y-102475904D01*
X140334952Y-102590190D01*
X140258761Y-102666380D01*
X140182571Y-102704476D01*
X140906380Y-102475904D02*
X141401619Y-102475904D01*
X141134952Y-102780666D01*
X141249238Y-102780666D01*
X141325428Y-102818761D01*
X141363523Y-102856857D01*
X141401619Y-102933047D01*
X141401619Y-103123523D01*
X141363523Y-103199714D01*
X141325428Y-103237809D01*
X141249238Y-103275904D01*
X141020666Y-103275904D01*
X140944476Y-103237809D01*
X140906380Y-103199714D01*
X141744476Y-102971142D02*
X142354000Y-102971142D01*
X142696857Y-102552095D02*
X142734952Y-102514000D01*
X142811142Y-102475904D01*
X143001619Y-102475904D01*
X143077809Y-102514000D01*
X143115904Y-102552095D01*
X143154000Y-102628285D01*
X143154000Y-102704476D01*
X143115904Y-102818761D01*
X142658761Y-103275904D01*
X143154000Y-103275904D01*
X143649238Y-102475904D02*
X143725428Y-102475904D01*
X143801619Y-102514000D01*
X143839714Y-102552095D01*
X143877809Y-102628285D01*
X143915904Y-102780666D01*
X143915904Y-102971142D01*
X143877809Y-103123523D01*
X143839714Y-103199714D01*
X143801619Y-103237809D01*
X143725428Y-103275904D01*
X143649238Y-103275904D01*
X143573047Y-103237809D01*
X143534952Y-103199714D01*
X143496857Y-103123523D01*
X143458761Y-102971142D01*
X143458761Y-102780666D01*
X143496857Y-102628285D01*
X143534952Y-102552095D01*
X143573047Y-102514000D01*
X143649238Y-102475904D01*
X144258761Y-103275904D02*
X144258761Y-102475904D01*
X144563523Y-102475904D01*
X144639714Y-102514000D01*
X144677809Y-102552095D01*
X144715904Y-102628285D01*
X144715904Y-102742571D01*
X144677809Y-102818761D01*
X144639714Y-102856857D01*
X144563523Y-102894952D01*
X144258761Y-102894952D01*
D14*
%TO.C,R7*%
X152424000Y-94647000D02*
X152754000Y-94647000D01*
X150344000Y-94647000D02*
X150014000Y-94647000D01*
X152754000Y-94647000D02*
X152754000Y-101187000D01*
X152754000Y-101187000D02*
X152424000Y-101187000D01*
X150014000Y-94647000D02*
X150014000Y-101187000D01*
X150014000Y-101187000D02*
X150344000Y-101187000D01*
%TO.C,R8*%
X150014000Y-86201000D02*
X150014000Y-79661000D01*
X152754000Y-79661000D02*
X152424000Y-79661000D01*
X150014000Y-79661000D02*
X150344000Y-79661000D01*
X152424000Y-86201000D02*
X152754000Y-86201000D01*
X152754000Y-86201000D02*
X152754000Y-79661000D01*
X150344000Y-86201000D02*
X150014000Y-86201000D01*
%TO.C,R12*%
X160179000Y-84377200D02*
X166719000Y-84377200D01*
X166719000Y-84377200D02*
X166719000Y-84047200D01*
X160179000Y-81637200D02*
X166719000Y-81637200D01*
X160179000Y-81967200D02*
X160179000Y-81637200D01*
X160179000Y-84047200D02*
X160179000Y-84377200D01*
X166719000Y-81637200D02*
X166719000Y-81967200D01*
%TO.C,Q3*%
X165659000Y-91258800D02*
X165659000Y-87658800D01*
X165647478Y-87620322D02*
G75*
G03*
X161209000Y-89458800I-1838478J-1838478D01*
G01*
X161208999Y-89458800D02*
G75*
G03*
X165647478Y-91297278I2600001J0D01*
G01*
%TO.C,R10*%
X166719000Y-97280400D02*
X166719000Y-96950400D01*
X160179000Y-97280400D02*
X166719000Y-97280400D01*
X166719000Y-94540400D02*
X166719000Y-94870400D01*
X160179000Y-96950400D02*
X160179000Y-97280400D01*
X160179000Y-94540400D02*
X166719000Y-94540400D01*
X160179000Y-94870400D02*
X160179000Y-94540400D01*
%TO.C,R4*%
X190595000Y-103989000D02*
X190595000Y-103659000D01*
X190595000Y-106069000D02*
X190595000Y-106399000D01*
X190595000Y-103659000D02*
X184055000Y-103659000D01*
X184055000Y-103659000D02*
X184055000Y-103989000D01*
X190595000Y-106399000D02*
X184055000Y-106399000D01*
X184055000Y-106399000D02*
X184055000Y-106069000D01*
D15*
%TO.C,SW1*%
X128911240Y-78232000D02*
X130953400Y-78232000D01*
X126889400Y-73025000D02*
X126889400Y-77343000D01*
X128941720Y-72136000D02*
X130953400Y-72136000D01*
X132985400Y-77343000D02*
X132985400Y-73025000D01*
X131715400Y-75184000D02*
G75*
G03*
X131715400Y-75184000I-1778000J0D01*
G01*
D14*
%TO.C,R5*%
X190595000Y-69188000D02*
X184055000Y-69188000D01*
X184055000Y-69188000D02*
X184055000Y-68858000D01*
X190595000Y-66448000D02*
X184055000Y-66448000D01*
X190595000Y-68858000D02*
X190595000Y-69188000D01*
X190595000Y-66778000D02*
X190595000Y-66448000D01*
X184055000Y-66448000D02*
X184055000Y-66778000D01*
%TO.C,R6*%
X190595000Y-84609000D02*
X184055000Y-84609000D01*
X184055000Y-87349000D02*
X184055000Y-87019000D01*
X184055000Y-84609000D02*
X184055000Y-84939000D01*
X190595000Y-87349000D02*
X184055000Y-87349000D01*
X190595000Y-87019000D02*
X190595000Y-87349000D01*
X190595000Y-84939000D02*
X190595000Y-84609000D01*
%TO.C,R11*%
X166719000Y-71474000D02*
X166719000Y-71144000D01*
X166719000Y-68734000D02*
X166719000Y-69064000D01*
X160179000Y-68734000D02*
X166719000Y-68734000D01*
X160179000Y-71474000D02*
X166719000Y-71474000D01*
X160179000Y-69064000D02*
X160179000Y-68734000D01*
X160179000Y-71144000D02*
X160179000Y-71474000D01*
%TO.C,D1*%
X117582000Y-92054000D02*
X117582000Y-95144000D01*
X117582000Y-95143830D02*
G75*
G03*
X123132000Y-93598538I2560000J1544830D01*
G01*
X123132000Y-93599462D02*
G75*
G03*
X117582000Y-92054170I-2990000J462D01*
G01*
X122642000Y-93599000D02*
G75*
G03*
X122642000Y-93599000I-2500000J0D01*
G01*
%TO.C,R1*%
X130522000Y-93499000D02*
X130192000Y-93499000D01*
X132932000Y-100039000D02*
X132602000Y-100039000D01*
X130192000Y-100039000D02*
X130522000Y-100039000D01*
X132932000Y-93499000D02*
X132932000Y-100039000D01*
X130192000Y-93499000D02*
X130192000Y-100039000D01*
X132602000Y-93499000D02*
X132932000Y-93499000D01*
D12*
%TO.C,Q4*%
X173686000Y-93292000D02*
X173686000Y-103812000D01*
X178336000Y-93292000D02*
X173686000Y-93292000D01*
X173686000Y-103812000D02*
X176911000Y-103812000D01*
D16*
%TO.C,J1*%
X192977000Y-92449000D02*
X201277000Y-92449000D01*
X201277000Y-102449000D02*
X192977000Y-102449000D01*
X201277000Y-92449000D02*
X201277000Y-102449000D01*
X192977000Y-102449000D02*
X192977000Y-92449000D01*
D17*
X195617000Y-101249000D02*
G75*
G03*
X195617000Y-101249000I-140000J0D01*
G01*
%TO.C,G\u002A\u002A\u002A*%
G36*
X122296583Y-67441130D02*
G01*
X122327338Y-67345913D01*
X122356348Y-67255967D01*
X122382516Y-67174690D01*
X122404746Y-67105482D01*
X122421942Y-67051741D01*
X122423823Y-67045840D01*
X122442425Y-66988078D01*
X122459245Y-66937022D01*
X122473213Y-66895823D01*
X122483261Y-66867634D01*
X122488319Y-66855606D01*
X122488370Y-66855542D01*
X122500358Y-66851916D01*
X122528519Y-66847397D01*
X122568759Y-66842541D01*
X122616983Y-66837903D01*
X122621345Y-66837534D01*
X122686277Y-66831615D01*
X122759298Y-66824190D01*
X122829697Y-66816378D01*
X122868824Y-66811643D01*
X122915790Y-66805942D01*
X122954702Y-66801691D01*
X122981548Y-66799294D01*
X122992315Y-66799156D01*
X122992332Y-66799171D01*
X122992630Y-66809847D01*
X122991081Y-66835898D01*
X122988001Y-66872493D01*
X122986476Y-66888360D01*
X122984127Y-66917297D01*
X122981004Y-66963858D01*
X122977258Y-67025365D01*
X122973040Y-67099141D01*
X122968502Y-67182512D01*
X122963795Y-67272799D01*
X122959070Y-67367328D01*
X122957171Y-67406520D01*
X122950902Y-67536374D01*
X122945461Y-67647267D01*
X122940770Y-67740538D01*
X122936752Y-67817524D01*
X122933328Y-67879564D01*
X122930421Y-67927997D01*
X122927953Y-67964161D01*
X122925847Y-67989395D01*
X122924024Y-68005037D01*
X122922407Y-68012426D01*
X122921906Y-68013280D01*
X122910458Y-68016523D01*
X122883422Y-68021466D01*
X122845173Y-68027515D01*
X122800085Y-68034076D01*
X122752530Y-68040557D01*
X122706884Y-68046365D01*
X122667521Y-68050906D01*
X122638814Y-68053586D01*
X122625138Y-68053814D01*
X122624647Y-68053594D01*
X122623900Y-68042153D01*
X122625497Y-68014505D01*
X122629125Y-67974589D01*
X122634467Y-67926343D01*
X122635524Y-67917588D01*
X122641515Y-67868010D01*
X122646484Y-67825827D01*
X122649964Y-67795079D01*
X122651488Y-67779812D01*
X122651520Y-67779079D01*
X122642164Y-67775916D01*
X122617251Y-67774145D01*
X122581513Y-67774031D01*
X122567945Y-67774409D01*
X122484370Y-67777360D01*
X122449709Y-67894200D01*
X122436130Y-67939637D01*
X122424691Y-67977275D01*
X122416584Y-68003233D01*
X122413005Y-68013628D01*
X122412994Y-68013644D01*
X122402822Y-68015758D01*
X122376807Y-68019689D01*
X122339287Y-68024873D01*
X122294599Y-68030747D01*
X122247080Y-68036748D01*
X122201067Y-68042313D01*
X122160899Y-68046880D01*
X122140980Y-68048948D01*
X122116562Y-68049722D01*
X122103543Y-68046983D01*
X122102880Y-68045764D01*
X122105915Y-68034924D01*
X122114589Y-68006805D01*
X122128248Y-67963450D01*
X122146243Y-67906902D01*
X122167920Y-67839206D01*
X122192630Y-67762403D01*
X122219720Y-67678538D01*
X122234218Y-67633784D01*
X122249420Y-67586860D01*
X122532439Y-67586860D01*
X122535798Y-67594081D01*
X122553978Y-67598137D01*
X122589522Y-67599544D01*
X122595112Y-67599560D01*
X122638492Y-67597553D01*
X122662183Y-67591552D01*
X122666669Y-67586860D01*
X122668804Y-67573430D01*
X122672379Y-67542823D01*
X122677078Y-67498106D01*
X122682585Y-67442344D01*
X122688582Y-67378604D01*
X122691588Y-67345560D01*
X122697872Y-67276330D01*
X122703900Y-67211048D01*
X122709322Y-67153422D01*
X122713787Y-67107165D01*
X122716944Y-67075987D01*
X122717747Y-67068700D01*
X122720128Y-67039343D01*
X122717479Y-67024972D01*
X122708504Y-67020597D01*
X122705209Y-67020481D01*
X122699034Y-67023277D01*
X122692154Y-67032951D01*
X122683905Y-67051475D01*
X122673625Y-67080818D01*
X122660650Y-67122951D01*
X122644317Y-67179845D01*
X122623963Y-67253471D01*
X122612025Y-67297341D01*
X122592415Y-67369532D01*
X122574395Y-67435603D01*
X122558689Y-67492929D01*
X122546017Y-67538885D01*
X122537101Y-67570845D01*
X122532663Y-67586184D01*
X122532439Y-67586860D01*
X122249420Y-67586860D01*
X122265177Y-67538220D01*
X122296583Y-67441130D01*
G37*
G36*
X124838113Y-67221738D02*
G01*
X124851614Y-67147648D01*
X124862492Y-67085170D01*
X124870219Y-67036936D01*
X124871144Y-67030600D01*
X124879669Y-66970918D01*
X124886229Y-66928215D01*
X124892066Y-66899405D01*
X124898420Y-66881401D01*
X124906534Y-66871117D01*
X124917649Y-66865467D01*
X124933006Y-66861364D01*
X124939911Y-66859645D01*
X124993694Y-66846904D01*
X125047017Y-66836805D01*
X125105709Y-66828466D01*
X125175601Y-66821003D01*
X125222101Y-66816851D01*
X125320649Y-66811344D01*
X125401737Y-66813504D01*
X125466942Y-66823894D01*
X125517844Y-66843081D01*
X125556019Y-66871630D01*
X125583047Y-66910106D01*
X125598622Y-66951726D01*
X125606339Y-67016106D01*
X125598096Y-67087204D01*
X125575291Y-67161171D01*
X125539318Y-67234154D01*
X125491573Y-67302302D01*
X125458368Y-67338761D01*
X125418944Y-67375513D01*
X125378068Y-67409606D01*
X125340282Y-67437550D01*
X125310131Y-67455853D01*
X125300713Y-67459868D01*
X125300343Y-67470290D01*
X125308756Y-67497257D01*
X125325387Y-67539273D01*
X125349669Y-67594842D01*
X125361411Y-67620557D01*
X125388713Y-67679961D01*
X125416079Y-67739924D01*
X125441053Y-67795042D01*
X125461185Y-67839910D01*
X125468841Y-67857208D01*
X125485060Y-67891964D01*
X125498581Y-67916944D01*
X125507312Y-67928447D01*
X125509071Y-67928328D01*
X125514922Y-67911925D01*
X125524388Y-67876964D01*
X125537166Y-67824825D01*
X125552947Y-67756886D01*
X125571427Y-67674527D01*
X125592299Y-67579128D01*
X125615258Y-67472069D01*
X125639996Y-67354728D01*
X125666209Y-67228486D01*
X125688931Y-67117610D01*
X125703021Y-67048840D01*
X125715828Y-66987057D01*
X125726789Y-66934923D01*
X125735338Y-66895099D01*
X125740913Y-66870250D01*
X125742896Y-66862888D01*
X125754440Y-66860495D01*
X125781298Y-66856478D01*
X125818963Y-66851386D01*
X125862926Y-66845773D01*
X125908679Y-66840190D01*
X125951716Y-66835188D01*
X125987528Y-66831320D01*
X126011607Y-66829137D01*
X126019499Y-66829032D01*
X126018253Y-66839405D01*
X126013203Y-66867461D01*
X126004786Y-66911010D01*
X125993440Y-66967864D01*
X125979604Y-67035832D01*
X125963714Y-67112725D01*
X125946208Y-67196354D01*
X125943667Y-67208410D01*
X125923441Y-67304502D01*
X125902516Y-67404298D01*
X125881759Y-67503645D01*
X125862032Y-67598393D01*
X125844203Y-67684389D01*
X125829135Y-67757481D01*
X125820910Y-67797680D01*
X125807600Y-67861450D01*
X125795016Y-67918815D01*
X125783893Y-67966654D01*
X125774964Y-68001849D01*
X125768963Y-68021280D01*
X125767723Y-68023740D01*
X125751977Y-68031925D01*
X125725195Y-68036241D01*
X125718002Y-68036440D01*
X125689818Y-68037700D01*
X125648653Y-68041066D01*
X125601661Y-68045918D01*
X125582028Y-68048235D01*
X125540133Y-68052827D01*
X125506370Y-68055480D01*
X125485416Y-68055881D01*
X125481004Y-68054990D01*
X125480730Y-68043185D01*
X125485700Y-68018822D01*
X125490065Y-68003092D01*
X125497410Y-67974881D01*
X125500251Y-67955755D01*
X125499507Y-67951574D01*
X125488725Y-67952938D01*
X125462349Y-67959895D01*
X125423990Y-67971398D01*
X125377259Y-67986397D01*
X125361386Y-67991676D01*
X125312923Y-68007872D01*
X125271935Y-68021457D01*
X125241975Y-68031263D01*
X125226594Y-68036121D01*
X125225336Y-68036440D01*
X125221479Y-68027289D01*
X125212726Y-68002085D01*
X125200147Y-67964198D01*
X125184813Y-67916997D01*
X125167796Y-67863852D01*
X125150168Y-67808134D01*
X125132998Y-67753212D01*
X125117360Y-67702456D01*
X125104324Y-67659237D01*
X125094961Y-67626924D01*
X125093719Y-67622420D01*
X125082114Y-67587137D01*
X125070601Y-67564807D01*
X125062854Y-67558920D01*
X125050414Y-67562854D01*
X125049280Y-67565466D01*
X125047216Y-67580293D01*
X125041546Y-67610690D01*
X125033053Y-67653046D01*
X125022518Y-67703748D01*
X125010724Y-67759185D01*
X124998454Y-67815744D01*
X124986489Y-67869814D01*
X124975611Y-67917783D01*
X124966604Y-67956039D01*
X124960249Y-67980970D01*
X124957562Y-67988940D01*
X124945377Y-67994354D01*
X124917394Y-68003096D01*
X124877632Y-68014010D01*
X124830110Y-68025935D01*
X124824491Y-68027281D01*
X124775057Y-68039164D01*
X124731603Y-68049803D01*
X124698618Y-68058084D01*
X124680590Y-68062896D01*
X124679977Y-68063083D01*
X124666389Y-68063957D01*
X124666865Y-68050928D01*
X124667109Y-68050142D01*
X124674699Y-68022082D01*
X124685461Y-67976674D01*
X124698868Y-67916551D01*
X124714393Y-67844345D01*
X124731509Y-67762689D01*
X124749689Y-67674217D01*
X124768407Y-67581559D01*
X124787135Y-67487350D01*
X124805346Y-67394222D01*
X124819824Y-67318823D01*
X125101111Y-67318823D01*
X125110116Y-67322526D01*
X125126737Y-67319380D01*
X125151426Y-67310951D01*
X125185508Y-67296154D01*
X125213973Y-67282106D01*
X125251287Y-67259403D01*
X125293849Y-67228818D01*
X125332582Y-67196884D01*
X125333353Y-67196188D01*
X125365116Y-67166077D01*
X125383868Y-67143895D01*
X125392699Y-67125180D01*
X125394720Y-67107578D01*
X125390191Y-67080665D01*
X125373846Y-67065108D01*
X125370157Y-67063310D01*
X125339431Y-67054066D01*
X125296773Y-67046939D01*
X125250533Y-67042793D01*
X125209062Y-67042490D01*
X125189435Y-67044607D01*
X125155662Y-67050943D01*
X125131679Y-67165231D01*
X125121596Y-67213202D01*
X125112628Y-67255733D01*
X125105846Y-67287750D01*
X125102604Y-67302895D01*
X125101111Y-67318823D01*
X124819824Y-67318823D01*
X124822515Y-67304807D01*
X124838113Y-67221738D01*
G37*
G36*
X123707404Y-66819879D02*
G01*
X123758747Y-66828250D01*
X123799037Y-66843495D01*
X123830129Y-66864560D01*
X123862673Y-66897915D01*
X123882621Y-66935085D01*
X123892088Y-66981563D01*
X123893540Y-67029107D01*
X123892270Y-67066079D01*
X123890041Y-67094442D01*
X123887303Y-67108684D01*
X123886947Y-67109198D01*
X123876191Y-67113312D01*
X123850332Y-67121407D01*
X123813891Y-67132207D01*
X123771392Y-67144433D01*
X123727359Y-67156807D01*
X123686314Y-67168051D01*
X123652781Y-67176886D01*
X123631282Y-67182034D01*
X123626380Y-67182830D01*
X123623738Y-67174097D01*
X123624428Y-67152378D01*
X123624948Y-67147467D01*
X123624567Y-67097970D01*
X123609936Y-67062192D01*
X123591544Y-67045053D01*
X123559583Y-67035662D01*
X123521773Y-67043552D01*
X123481175Y-67067738D01*
X123458569Y-67087827D01*
X123430890Y-67126414D01*
X123423418Y-67166487D01*
X123435499Y-67206527D01*
X123443414Y-67219832D01*
X123453619Y-67232086D01*
X123469291Y-67245896D01*
X123493605Y-67263869D01*
X123529737Y-67288613D01*
X123560840Y-67309411D01*
X123627966Y-67357386D01*
X123678180Y-67402156D01*
X123713667Y-67447465D01*
X123736607Y-67497058D01*
X123749186Y-67554681D01*
X123753584Y-67624077D01*
X123753674Y-67640200D01*
X123752980Y-67691106D01*
X123750438Y-67727921D01*
X123745008Y-67756853D01*
X123735650Y-67784114D01*
X123725895Y-67806199D01*
X123691941Y-67861986D01*
X123644105Y-67917518D01*
X123588090Y-67967130D01*
X123529600Y-68005154D01*
X123521615Y-68009192D01*
X123444539Y-68039197D01*
X123362244Y-68058136D01*
X123280205Y-68065433D01*
X123203899Y-68060511D01*
X123152652Y-68048084D01*
X123119049Y-68033026D01*
X123080094Y-68010465D01*
X123041037Y-67984074D01*
X123007129Y-67957523D01*
X122983621Y-67934485D01*
X122977486Y-67925585D01*
X122977780Y-67910579D01*
X122987962Y-67882215D01*
X123008549Y-67839273D01*
X123034832Y-67790001D01*
X123100457Y-67670562D01*
X123127830Y-67699865D01*
X123151243Y-67719651D01*
X123185485Y-67742525D01*
X123220229Y-67761993D01*
X123259223Y-67780145D01*
X123289068Y-67789235D01*
X123317698Y-67791207D01*
X123334904Y-67790048D01*
X123382811Y-67778668D01*
X123422114Y-67756433D01*
X123449634Y-67726451D01*
X123462190Y-67691834D01*
X123460544Y-67667179D01*
X123443235Y-67632182D01*
X123407388Y-67590372D01*
X123353444Y-67542193D01*
X123281846Y-67488088D01*
X123281818Y-67488068D01*
X123216746Y-67438936D01*
X123162305Y-67391743D01*
X123120691Y-67348631D01*
X123094098Y-67311741D01*
X123088118Y-67299100D01*
X123079302Y-67254604D01*
X123080877Y-67200488D01*
X123092517Y-67144400D01*
X123095024Y-67136549D01*
X123116610Y-67094089D01*
X123152704Y-67046927D01*
X123199364Y-66998880D01*
X123252650Y-66953766D01*
X123308620Y-66915400D01*
X123342400Y-66896942D01*
X123432333Y-66857615D01*
X123513640Y-66832211D01*
X123591162Y-66819439D01*
X123640650Y-66817296D01*
X123707404Y-66819879D01*
G37*
G36*
X122089345Y-66822927D02*
G01*
X122126376Y-66824156D01*
X122152777Y-66827339D01*
X122173388Y-66833254D01*
X122193054Y-66842676D01*
X122205697Y-66849913D01*
X122249825Y-66887038D01*
X122279079Y-66936628D01*
X122292621Y-66996455D01*
X122289613Y-67064290D01*
X122288592Y-67070214D01*
X122280467Y-67114908D01*
X122173893Y-67143376D01*
X122127779Y-67155663D01*
X122087035Y-67166465D01*
X122056870Y-67174404D01*
X122044460Y-67177615D01*
X122031260Y-67179477D01*
X122024452Y-67173455D01*
X122021936Y-67155088D01*
X122021600Y-67129084D01*
X122019724Y-67093672D01*
X122012404Y-67070517D01*
X121997094Y-67051764D01*
X121996331Y-67051043D01*
X121977670Y-67036106D01*
X121960391Y-67032595D01*
X121934662Y-67038686D01*
X121932831Y-67039255D01*
X121883098Y-67062669D01*
X121844424Y-67100177D01*
X121834271Y-67114569D01*
X121820522Y-67151830D01*
X121826892Y-67190686D01*
X121853261Y-67230951D01*
X121899506Y-67272434D01*
X121962436Y-67313201D01*
X122035150Y-67363658D01*
X122091637Y-67421977D01*
X122124020Y-67473419D01*
X122135229Y-67498680D01*
X122142450Y-67523353D01*
X122146522Y-67552967D01*
X122148286Y-67593049D01*
X122148600Y-67635120D01*
X122148084Y-67686891D01*
X122145920Y-67724178D01*
X122141177Y-67752804D01*
X122132926Y-67778593D01*
X122121570Y-67804539D01*
X122075056Y-67880323D01*
X122012525Y-67945369D01*
X121936168Y-67997959D01*
X121848176Y-68036375D01*
X121812604Y-68046782D01*
X121730045Y-68061711D01*
X121648478Y-68065095D01*
X121575295Y-68056666D01*
X121570387Y-68055558D01*
X121534004Y-68043565D01*
X121497793Y-68026619D01*
X121494187Y-68024536D01*
X121467559Y-68006231D01*
X121437727Y-67982077D01*
X121409077Y-67956139D01*
X121385992Y-67932484D01*
X121372857Y-67915175D01*
X121371360Y-67910634D01*
X121376014Y-67898464D01*
X121388730Y-67872265D01*
X121407637Y-67835734D01*
X121430864Y-67792568D01*
X121434071Y-67786719D01*
X121496783Y-67672620D01*
X121527813Y-67703649D01*
X121562011Y-67730764D01*
X121606365Y-67756377D01*
X121653849Y-67777233D01*
X121697438Y-67790078D01*
X121719744Y-67792591D01*
X121761937Y-67786063D01*
X121802948Y-67768911D01*
X121835450Y-67744808D01*
X121847953Y-67728291D01*
X121858373Y-67694644D01*
X121853530Y-67659395D01*
X121832628Y-67621382D01*
X121794869Y-67579446D01*
X121739456Y-67532427D01*
X121686792Y-67493803D01*
X121609115Y-67436010D01*
X121549639Y-67383387D01*
X121507485Y-67334113D01*
X121481776Y-67286365D01*
X121471634Y-67238320D01*
X121476180Y-67188156D01*
X121494536Y-67134051D01*
X121503898Y-67114173D01*
X121550558Y-67042796D01*
X121615630Y-66977566D01*
X121697876Y-66919452D01*
X121796060Y-66869421D01*
X121838720Y-66852189D01*
X121874617Y-66839478D01*
X121905927Y-66831103D01*
X121938802Y-66826154D01*
X121979393Y-66823721D01*
X122033855Y-66822894D01*
X122036840Y-66822880D01*
X122089345Y-66822927D01*
G37*
G36*
X123807872Y-67626868D02*
G01*
X123817257Y-67550075D01*
X123834475Y-67474450D01*
X123860918Y-67393506D01*
X123887478Y-67325790D01*
X123941708Y-67210510D01*
X124004473Y-67108967D01*
X124079795Y-67015088D01*
X124123924Y-66968619D01*
X124199484Y-66899584D01*
X124271753Y-66848106D01*
X124343771Y-66812430D01*
X124418575Y-66790806D01*
X124437999Y-66787400D01*
X124518010Y-66782474D01*
X124587339Y-66794438D01*
X124647122Y-66823654D01*
X124698115Y-66870040D01*
X124724542Y-66905860D01*
X124743963Y-66945137D01*
X124757252Y-66991523D01*
X124765281Y-67048665D01*
X124768925Y-67120216D01*
X124769376Y-67167760D01*
X124768788Y-67230046D01*
X124766676Y-67278273D01*
X124762327Y-67318686D01*
X124755028Y-67357530D01*
X124744065Y-67401048D01*
X124741775Y-67409400D01*
X124695451Y-67544591D01*
X124634855Y-67668126D01*
X124560974Y-67778715D01*
X124474795Y-67875068D01*
X124377304Y-67955896D01*
X124277814Y-68015769D01*
X124245153Y-68030041D01*
X124204363Y-68044772D01*
X124161053Y-68058311D01*
X124120832Y-68069007D01*
X124089309Y-68075209D01*
X124073920Y-68075790D01*
X124061735Y-68073447D01*
X124036799Y-68068606D01*
X124023120Y-68065942D01*
X123972489Y-68053445D01*
X123934662Y-68036432D01*
X123902127Y-68010811D01*
X123881079Y-67988535D01*
X123851224Y-67949808D01*
X123829856Y-67909156D01*
X123815808Y-67862336D01*
X123807916Y-67805105D01*
X123805013Y-67733221D01*
X123804970Y-67721501D01*
X124071100Y-67721501D01*
X124108793Y-67757050D01*
X124144748Y-67782834D01*
X124183082Y-67792392D01*
X124227608Y-67785996D01*
X124272246Y-67768649D01*
X124322724Y-67736442D01*
X124372578Y-67688918D01*
X124417544Y-67630752D01*
X124450147Y-67573514D01*
X124477710Y-67506776D01*
X124498642Y-67437727D01*
X124512723Y-67369482D01*
X124519733Y-67305155D01*
X124519452Y-67247859D01*
X124511659Y-67200709D01*
X124496136Y-67166818D01*
X124479919Y-67152305D01*
X124458149Y-67145975D01*
X124427040Y-67142555D01*
X124418155Y-67142360D01*
X124361792Y-67152125D01*
X124306238Y-67179877D01*
X124253107Y-67223296D01*
X124204016Y-67280064D01*
X124160577Y-67347863D01*
X124124406Y-67424375D01*
X124097117Y-67507282D01*
X124080326Y-67594265D01*
X124076719Y-67632590D01*
X124071100Y-67721501D01*
X123804970Y-67721501D01*
X123804933Y-67711320D01*
X123807872Y-67626868D01*
G37*
D14*
%TO.C,J4*%
X120052000Y-86801000D02*
X118722000Y-86801000D01*
X117392000Y-84201000D02*
X117392000Y-71441000D01*
X120052000Y-84201000D02*
X117392000Y-84201000D01*
X120052000Y-85471000D02*
X120052000Y-86801000D01*
X120052000Y-71441000D02*
X117392000Y-71441000D01*
X120052000Y-84201000D02*
X120052000Y-71441000D01*
D12*
%TO.C,Q5*%
X173686000Y-79428000D02*
X176911000Y-79428000D01*
X178336000Y-68908000D02*
X173686000Y-68908000D01*
X173686000Y-68908000D02*
X173686000Y-79428000D01*
D14*
%TO.C,R2*%
X132602000Y-83339000D02*
X132932000Y-83339000D01*
X130522000Y-83339000D02*
X130192000Y-83339000D01*
X130192000Y-89879000D02*
X130522000Y-89879000D01*
X130192000Y-83339000D02*
X130192000Y-89879000D01*
X132932000Y-89879000D02*
X132602000Y-89879000D01*
X132932000Y-83339000D02*
X132932000Y-89879000D01*
D16*
%TO.C,J3*%
X192977000Y-81400000D02*
X201277000Y-81400000D01*
X201277000Y-91400000D02*
X192977000Y-91400000D01*
X192977000Y-91400000D02*
X192977000Y-81400000D01*
X201277000Y-81400000D02*
X201277000Y-91400000D01*
D17*
X195617000Y-90200000D02*
G75*
G03*
X195617000Y-90200000I-140000J0D01*
G01*
D14*
%TO.C,Q2*%
X165659000Y-104162000D02*
X165659000Y-100562000D01*
X165647478Y-100523522D02*
G75*
G03*
X161209000Y-102362000I-1838478J-1838478D01*
G01*
X161208999Y-102362000D02*
G75*
G03*
X165647478Y-104200478I2600001J0D01*
G01*
%TO.C,Q1*%
X165659000Y-78355600D02*
X165659000Y-74755600D01*
X161208999Y-76555600D02*
G75*
G03*
X165647478Y-78394078I2600001J0D01*
G01*
X165647478Y-74717122D02*
G75*
G03*
X161209000Y-76555600I-1838478J-1838478D01*
G01*
D16*
%TO.C,J2*%
X192977000Y-80351000D02*
X192977000Y-70351000D01*
X201277000Y-80351000D02*
X192977000Y-80351000D01*
X192977000Y-70351000D02*
X201277000Y-70351000D01*
X201277000Y-70351000D02*
X201277000Y-80351000D01*
D17*
X195617000Y-79151000D02*
G75*
G03*
X195617000Y-79151000I-140000J0D01*
G01*
D14*
%TO.C,R9*%
X158014000Y-91794000D02*
X158014000Y-91464000D01*
X158014000Y-89054000D02*
X158014000Y-89384000D01*
X151474000Y-91464000D02*
X151474000Y-91794000D01*
X151474000Y-89384000D02*
X151474000Y-89054000D01*
X151474000Y-89054000D02*
X158014000Y-89054000D01*
X151474000Y-91794000D02*
X158014000Y-91794000D01*
D12*
%TO.C,Q6*%
X173686000Y-91620000D02*
X176911000Y-91620000D01*
X173686000Y-81100000D02*
X173686000Y-91620000D01*
X178336000Y-81100000D02*
X173686000Y-81100000D01*
D14*
%TO.C,R3*%
X143341000Y-70558800D02*
X136801000Y-70558800D01*
X136801000Y-70558800D02*
X136801000Y-70888800D01*
X136801000Y-73298800D02*
X136801000Y-72968800D01*
X143341000Y-72968800D02*
X143341000Y-73298800D01*
X143341000Y-70888800D02*
X143341000Y-70558800D01*
X143341000Y-73298800D02*
X136801000Y-73298800D01*
%TO.C,U2*%
X142604000Y-76394000D02*
X140954000Y-76394000D01*
X137304000Y-76394000D02*
X137304000Y-101914000D01*
X138954000Y-76394000D02*
X137304000Y-76394000D01*
X142604000Y-101914000D02*
X142604000Y-76394000D01*
X137304000Y-101914000D02*
X142604000Y-101914000D01*
X138954000Y-76394000D02*
G75*
G03*
X140954000Y-76394000I1000000J0D01*
G01*
%TD*%
%LPC*%
D18*
%TO.C,R7*%
X151384000Y-94107000D03*
D19*
X151384000Y-101727000D03*
%TD*%
D18*
%TO.C,R8*%
X151384000Y-86741000D03*
D19*
X151384000Y-79121000D03*
%TD*%
D18*
%TO.C,R12*%
X159639000Y-83007200D03*
D19*
X167259000Y-83007200D03*
%TD*%
D20*
%TO.C,Q3*%
X163809000Y-90728800D03*
D21*
X163809000Y-89458800D03*
X163809000Y-88188800D03*
%TD*%
D18*
%TO.C,R10*%
X159639000Y-95910400D03*
D19*
X167259000Y-95910400D03*
%TD*%
D18*
%TO.C,R4*%
X191135000Y-105029000D03*
D19*
X183515000Y-105029000D03*
%TD*%
D22*
%TO.C,SW1*%
X127676800Y-78435200D03*
X127676800Y-71932800D03*
X132198000Y-71932800D03*
X132198000Y-78435200D03*
%TD*%
D18*
%TO.C,R5*%
X191135000Y-67818000D03*
D19*
X183515000Y-67818000D03*
%TD*%
D18*
%TO.C,R6*%
X191135000Y-85979000D03*
D19*
X183515000Y-85979000D03*
%TD*%
D18*
%TO.C,R11*%
X159639000Y-70104000D03*
D19*
X167259000Y-70104000D03*
%TD*%
D23*
%TO.C,D1*%
X118872000Y-93599000D03*
D24*
X121412000Y-93599000D03*
%TD*%
D18*
%TO.C,R1*%
X131562000Y-92959000D03*
D19*
X131562000Y-100579000D03*
%TD*%
D25*
%TO.C,Q4*%
X176911000Y-101092000D03*
D26*
X176911000Y-98552000D03*
X176911000Y-96012000D03*
%TD*%
D27*
%TO.C,J1*%
X196977000Y-99949000D03*
D28*
X196977000Y-94949000D03*
%TD*%
D29*
%TO.C,J4*%
X118722000Y-85471000D03*
D30*
X118722000Y-82931000D03*
X118722000Y-80391000D03*
X118722000Y-77851000D03*
X118722000Y-75311000D03*
X118722000Y-72771000D03*
%TD*%
D25*
%TO.C,Q5*%
X176911000Y-76708000D03*
D26*
X176911000Y-74168000D03*
X176911000Y-71628000D03*
%TD*%
D18*
%TO.C,R2*%
X131562000Y-82799000D03*
D19*
X131562000Y-90419000D03*
%TD*%
D27*
%TO.C,J3*%
X196977000Y-88900000D03*
D28*
X196977000Y-83900000D03*
%TD*%
D20*
%TO.C,Q2*%
X163809000Y-103632000D03*
D21*
X163809000Y-102362000D03*
X163809000Y-101092000D03*
%TD*%
D20*
%TO.C,Q1*%
X163809000Y-77825600D03*
D21*
X163809000Y-76555600D03*
X163809000Y-75285600D03*
%TD*%
D27*
%TO.C,J2*%
X196977000Y-77851000D03*
D28*
X196977000Y-72851000D03*
%TD*%
D18*
%TO.C,R9*%
X150934000Y-90424000D03*
D19*
X158554000Y-90424000D03*
%TD*%
D25*
%TO.C,Q6*%
X176911000Y-88900000D03*
D26*
X176911000Y-86360000D03*
X176911000Y-83820000D03*
%TD*%
D18*
%TO.C,R3*%
X143881000Y-71928800D03*
D19*
X136261000Y-71928800D03*
%TD*%
D31*
%TO.C,U2*%
X136144000Y-77724000D03*
D19*
X136144000Y-80264000D03*
X136144000Y-82804000D03*
X136144000Y-85344000D03*
X136144000Y-87884000D03*
X136144000Y-90424000D03*
X136144000Y-92964000D03*
X136144000Y-95504000D03*
X136144000Y-98044000D03*
X136144000Y-100584000D03*
X143764000Y-100584000D03*
X143764000Y-98044000D03*
X143764000Y-95504000D03*
X143764000Y-92964000D03*
X143764000Y-90424000D03*
X143764000Y-87884000D03*
X143764000Y-85344000D03*
X143764000Y-82804000D03*
X143764000Y-80264000D03*
X143764000Y-77724000D03*
%TD*%
M02*
